<ttFont>
<head>
    <!-- Most of this table will be recalculated by the compiler -->
    <tableVersion value="1.0"/>
    <fontRevision value="5.0"/>
    <checkSumAdjustment value="0x3a7306aa"/>
    <magicNumber value="0x5f0f3cf5"/>
    <flags value="00000000 00001011"/>
    <unitsPerEm value="2048"/>
    <created value="Sun May 15 08:57:39 2005"/>
    <modified value="Thu Apr 14 13:37:27 2011"/>
    <xMin value="-62"/>
    <yMin value="-1020"/>
    <xMax value="7683"/>
    <yMax value="2305"/>
    <macStyle value="00000000 00000000"/>
    <lowestRecPPEM value="8"/>
    <fontDirectionHint value="2"/>
    <indexToLocFormat value="1"/>
    <glyphDataFormat value="0"/>
  </head>
    <TTGlyph name=".notdef" xMin="142" yMin="226" xMax="842" yMax="1588">
      <contour>
        <pt x="142" y="226" on="1"/>
        <pt x="142" y="1588" on="1"/>
        <pt x="842" y="1588" on="1"/>
        <pt x="842" y="226" on="1"/>
      </contour>
      <contour>
        <pt x="284" y="368" on="1"/>
        <pt x="700" y="368" on="1"/>
        <pt x="700" y="1447" on="1"/>
        <pt x="284" y="1447" on="1"/>
      </contour>
    </TTGlyph>
    <TTGlyph name=".null" xMin="142" yMin="226" xMax="842" yMax="1588">
      <contour>
        <pt x="142" y="226" on="1"/>
        <pt x="142" y="1588" on="1"/>
        <pt x="842" y="1588" on="1"/>
        <pt x="842" y="226" on="1"/>
      </contour>
      <contour>
        <pt x="284" y="368" on="1"/>
        <pt x="700" y="368" on="1"/>
        <pt x="700" y="1447" on="1"/>
        <pt x="284" y="1447" on="1"/>
      </contour>
    </TTGlyph>
    <TTGlyph name="afii57381" xMin="142" yMin="226" xMax="842" yMax="1588">
      <contour>
        <pt x="142" y="226" on="1"/>
        <pt x="142" y="1588" on="1"/>
        <pt x="842" y="1588" on="1"/>
        <pt x="842" y="226" on="1"/>
      </contour>
      <contour>
        <pt x="284" y="368" on="1"/>
        <pt x="700" y="368" on="1"/>
        <pt x="700" y="1447" on="1"/>
        <pt x="284" y="1447" on="1"/>
      </contour>
    </TTGlyph>
    <TTGlyph name="afii57388" xMin="142" yMin="226" xMax="842" yMax="1588">
      <contour>
        <pt x="142" y="226" on="1"/>
        <pt x="142" y="1588" on="1"/>
        <pt x="842" y="1588" on="1"/>
        <pt x="842" y="226" on="1"/>
      </contour>
      <contour>
        <pt x="284" y="368" on="1"/>
        <pt x="700" y="368" on="1"/>
        <pt x="700" y="1447" on="1"/>
        <pt x="284" y="1447" on="1"/>
      </contour>
    </TTGlyph>
    <TTGlyph name="afii57396" xMin="142" yMin="226" xMax="842" yMax="1588">
      <contour>
        <pt x="142" y="226" on="1"/>
        <pt x="142" y="1588" on="1"/>
        <pt x="842" y="1588" on="1"/>
        <pt x="842" y="226" on="1"/>
      </contour>
      <contour>
        <pt x="284" y="368" on="1"/>
        <pt x="700" y="368" on="1"/>
        <pt x="700" y="1447" on="1"/>
        <pt x="284" y="1447" on="1"/>
      </contour>
    </TTGlyph>
    <TTGlyph name="afii57397" xMin="142" yMin="226" xMax="842" yMax="1588">
      <contour>
        <pt x="142" y="226" on="1"/>
        <pt x="142" y="1588" on="1"/>
        <pt x="842" y="1588" on="1"/>
        <pt x="842" y="226" on="1"/>
      </contour>
      <contour>
        <pt x="284" y="368" on="1"/>
        <pt x="700" y="368" on="1"/>
        <pt x="700" y="1447" on="1"/>
        <pt x="284" y="1447" on="1"/>
      </contour>
    </TTGlyph>
    <TTGlyph name="afii57398" xMin="142" yMin="226" xMax="842" yMax="1588">
      <contour>
        <pt x="142" y="226" on="1"/>
        <pt x="142" y="1588" on="1"/>
        <pt x="842" y="1588" on="1"/>
        <pt x="842" y="226" on="1"/>
      </contour>
      <contour>
        <pt x="284" y="368" on="1"/>
        <pt x="700" y="368" on="1"/>
        <pt x="700" y="1447" on="1"/>
        <pt x="284" y="1447" on="1"/>
      </contour>
    </TTGlyph>
    <TTGlyph name="afii57403" xMin="142" yMin="226" xMax="842" yMax="1588">
      <contour>
        <pt x="142" y="226" on="1"/>
        <pt x="142" y="1588" on="1"/>
        <pt x="842" y="1588" on="1"/>
        <pt x="842" y="226" on="1"/>
      </contour>
      <contour>
        <pt x="284" y="368" on="1"/>
        <pt x="700" y="368" on="1"/>
        <pt x="700" y="1447" on="1"/>
        <pt x="284" y="1447" on="1"/>
      </contour>
    </TTGlyph>
    <TTGlyph name="afii57407" xMin="142" yMin="226" xMax="842" yMax="1588">
      <contour>
        <pt x="142" y="226" on="1"/>
        <pt x="142" y="1588" on="1"/>
        <pt x="842" y="1588" on="1"/>
        <pt x="842" y="226" on="1"/>
      </contour>
      <contour>
        <pt x="284" y="368" on="1"/>
        <pt x="700" y="368" on="1"/>
        <pt x="700" y="1447" on="1"/>
        <pt x="284" y="1447" on="1"/>
      </contour>
    </TTGlyph>
    <TTGlyph name="afii57440" xMin="142" yMin="226" xMax="842" yMax="1588">
      <contour>
        <pt x="142" y="226" on="1"/>
        <pt x="142" y="1588" on="1"/>
        <pt x="842" y="1588" on="1"/>
        <pt x="842" y="226" on="1"/>
      </contour>
      <contour>
        <pt x="284" y="368" on="1"/>
        <pt x="700" y="368" on="1"/>
        <pt x="700" y="1447" on="1"/>
        <pt x="284" y="1447" on="1"/>
      </contour>
    </TTGlyph>
    <TTGlyph name="afii57451" xMin="142" yMin="226" xMax="842" yMax="1588">
      <contour>
        <pt x="142" y="226" on="1"/>
        <pt x="142" y="1588" on="1"/>
        <pt x="842" y="1588" on="1"/>
        <pt x="842" y="226" on="1"/>
      </contour>
      <contour>
        <pt x="284" y="368" on="1"/>
        <pt x="700" y="368" on="1"/>
        <pt x="700" y="1447" on="1"/>
        <pt x="284" y="1447" on="1"/>
      </contour>
    </TTGlyph>
    <TTGlyph name="afii57452" xMin="142" yMin="226" xMax="842" yMax="1588">
      <contour>
        <pt x="142" y="226" on="1"/>
        <pt x="142" y="1588" on="1"/>
        <pt x="842" y="1588" on="1"/>
        <pt x="842" y="226" on="1"/>
      </contour>
      <contour>
        <pt x="284" y="368" on="1"/>
        <pt x="700" y="368" on="1"/>
        <pt x="700" y="1447" on="1"/>
        <pt x="284" y="1447" on="1"/>
      </contour>
    </TTGlyph>
    <TTGlyph name="afii57453" xMin="142" yMin="226" xMax="842" yMax="1588">
      <contour>
        <pt x="142" y="226" on="1"/>
        <pt x="142" y="1588" on="1"/>
        <pt x="842" y="1588" on="1"/>
        <pt x="842" y="226" on="1"/>
      </contour>
      <contour>
        <pt x="284" y="368" on="1"/>
        <pt x="700" y="368" on="1"/>
        <pt x="700" y="1447" on="1"/>
        <pt x="284" y="1447" on="1"/>
      </contour>
    </TTGlyph>
    <TTGlyph name="afii57454" xMin="142" yMin="226" xMax="842" yMax="1588">
      <contour>
        <pt x="142" y="226" on="1"/>
        <pt x="142" y="1588" on="1"/>
        <pt x="842" y="1588" on="1"/>
        <pt x="842" y="226" on="1"/>
      </contour>
      <contour>
        <pt x="284" y="368" on="1"/>
        <pt x="700" y="368" on="1"/>
        <pt x="700" y="1447" on="1"/>
        <pt x="284" y="1447" on="1"/>
      </contour>
    </TTGlyph>
    <TTGlyph name="afii57455" xMin="142" yMin="226" xMax="842" yMax="1588">
      <contour>
        <pt x="142" y="226" on="1"/>
        <pt x="142" y="1588" on="1"/>
        <pt x="842" y="1588" on="1"/>
        <pt x="842" y="226" on="1"/>
      </contour>
      <contour>
        <pt x="284" y="368" on="1"/>
        <pt x="700" y="368" on="1"/>
        <pt x="700" y="1447" on="1"/>
        <pt x="284" y="1447" on="1"/>
      </contour>
    </TTGlyph>
    <TTGlyph name="afii57456" xMin="142" yMin="226" xMax="842" yMax="1588">
      <contour>
        <pt x="142" y="226" on="1"/>
        <pt x="142" y="1588" on="1"/>
        <pt x="842" y="1588" on="1"/>
        <pt x="842" y="226" on="1"/>
      </contour>
      <contour>
        <pt x="284" y="368" on="1"/>
        <pt x="700" y="368" on="1"/>
        <pt x="700" y="1447" on="1"/>
        <pt x="284" y="1447" on="1"/>
      </contour>
    </TTGlyph>
    <TTGlyph name="afii57457" xMin="142" yMin="226" xMax="842" yMax="1588">
      <contour>
        <pt x="142" y="226" on="1"/>
        <pt x="142" y="1588" on="1"/>
        <pt x="842" y="1588" on="1"/>
        <pt x="842" y="226" on="1"/>
      </contour>
      <contour>
        <pt x="284" y="368" on="1"/>
        <pt x="700" y="368" on="1"/>
        <pt x="700" y="1447" on="1"/>
        <pt x="284" y="1447" on="1"/>
      </contour>
    </TTGlyph>
    <TTGlyph name="afii57458" xMin="142" yMin="226" xMax="842" yMax="1588">
      <contour>
        <pt x="142" y="226" on="1"/>
        <pt x="142" y="1588" on="1"/>
        <pt x="842" y="1588" on="1"/>
        <pt x="842" y="226" on="1"/>
      </contour>
      <contour>
        <pt x="284" y="368" on="1"/>
        <pt x="700" y="368" on="1"/>
        <pt x="700" y="1447" on="1"/>
        <pt x="284" y="1447" on="1"/>
      </contour>
    </TTGlyph>
    <TTGlyph name="afii57505" xMin="142" yMin="226" xMax="842" yMax="1588">
      <contour>
        <pt x="142" y="226" on="1"/>
        <pt x="142" y="1588" on="1"/>
        <pt x="842" y="1588" on="1"/>
        <pt x="842" y="226" on="1"/>
      </contour>
      <contour>
        <pt x="284" y="368" on="1"/>
        <pt x="700" y="368" on="1"/>
        <pt x="700" y="1447" on="1"/>
        <pt x="284" y="1447" on="1"/>
      </contour>
    </TTGlyph>
    <TTGlyph name="afii57506" xMin="142" yMin="226" xMax="842" yMax="1588">
      <contour>
        <pt x="142" y="226" on="1"/>
        <pt x="142" y="1588" on="1"/>
        <pt x="842" y="1588" on="1"/>
        <pt x="842" y="226" on="1"/>
      </contour>
      <contour>
        <pt x="284" y="368" on="1"/>
        <pt x="700" y="368" on="1"/>
        <pt x="700" y="1447" on="1"/>
        <pt x="284" y="1447" on="1"/>
      </contour>
    </TTGlyph>
    <TTGlyph name="afii57507" xMin="142" yMin="226" xMax="842" yMax="1588">
      <contour>
        <pt x="142" y="226" on="1"/>
        <pt x="142" y="1588" on="1"/>
        <pt x="842" y="1588" on="1"/>
        <pt x="842" y="226" on="1"/>
      </contour>
      <contour>
        <pt x="284" y="368" on="1"/>
        <pt x="700" y="368" on="1"/>
        <pt x="700" y="1447" on="1"/>
        <pt x="284" y="1447" on="1"/>
      </contour>
    </TTGlyph>
    <TTGlyph name="afii57508" xMin="142" yMin="226" xMax="842" yMax="1588">
      <contour>
        <pt x="142" y="226" on="1"/>
        <pt x="142" y="1588" on="1"/>
        <pt x="842" y="1588" on="1"/>
        <pt x="842" y="226" on="1"/>
      </contour>
      <contour>
        <pt x="284" y="368" on="1"/>
        <pt x="700" y="368" on="1"/>
        <pt x="700" y="1447" on="1"/>
        <pt x="284" y="1447" on="1"/>
      </contour>
    </TTGlyph>
    <TTGlyph name="afii57509" xMin="142" yMin="226" xMax="842" yMax="1588">
      <contour>
        <pt x="142" y="226" on="1"/>
        <pt x="142" y="1588" on="1"/>
        <pt x="842" y="1588" on="1"/>
        <pt x="842" y="226" on="1"/>
      </contour>
      <contour>
        <pt x="284" y="368" on="1"/>
        <pt x="700" y="368" on="1"/>
        <pt x="700" y="1447" on="1"/>
        <pt x="284" y="1447" on="1"/>
      </contour>
    </TTGlyph>
    <TTGlyph name="afii57511" xMin="142" yMin="226" xMax="842" yMax="1588">
      <contour>
        <pt x="142" y="226" on="1"/>
        <pt x="142" y="1588" on="1"/>
        <pt x="842" y="1588" on="1"/>
        <pt x="842" y="226" on="1"/>
      </contour>
      <contour>
        <pt x="284" y="368" on="1"/>
        <pt x="700" y="368" on="1"/>
        <pt x="700" y="1447" on="1"/>
        <pt x="284" y="1447" on="1"/>
      </contour>
    </TTGlyph>
    <TTGlyph name="afii57512" xMin="142" yMin="226" xMax="842" yMax="1588">
      <contour>
        <pt x="142" y="226" on="1"/>
        <pt x="142" y="1588" on="1"/>
        <pt x="842" y="1588" on="1"/>
        <pt x="842" y="226" on="1"/>
      </contour>
      <contour>
        <pt x="284" y="368" on="1"/>
        <pt x="700" y="368" on="1"/>
        <pt x="700" y="1447" on="1"/>
        <pt x="284" y="1447" on="1"/>
      </contour>
    </TTGlyph>
    <TTGlyph name="afii57513" xMin="142" yMin="226" xMax="842" yMax="1588">
      <contour>
        <pt x="142" y="226" on="1"/>
        <pt x="142" y="1588" on="1"/>
        <pt x="842" y="1588" on="1"/>
        <pt x="842" y="226" on="1"/>
      </contour>
      <contour>
        <pt x="284" y="368" on="1"/>
        <pt x="700" y="368" on="1"/>
        <pt x="700" y="1447" on="1"/>
        <pt x="284" y="1447" on="1"/>
      </contour>
    </TTGlyph>
    <TTGlyph name="afii57514" xMin="142" yMin="226" xMax="842" yMax="1588">
      <contour>
        <pt x="142" y="226" on="1"/>
        <pt x="142" y="1588" on="1"/>
        <pt x="842" y="1588" on="1"/>
        <pt x="842" y="226" on="1"/>
      </contour>
      <contour>
        <pt x="284" y="368" on="1"/>
        <pt x="700" y="368" on="1"/>
        <pt x="700" y="1447" on="1"/>
        <pt x="284" y="1447" on="1"/>
      </contour>
    </TTGlyph>
    <TTGlyph name="afii57519" xMin="142" yMin="226" xMax="842" yMax="1588">
      <contour>
        <pt x="142" y="226" on="1"/>
        <pt x="142" y="1588" on="1"/>
        <pt x="842" y="1588" on="1"/>
        <pt x="842" y="226" on="1"/>
      </contour>
      <contour>
        <pt x="284" y="368" on="1"/>
        <pt x="700" y="368" on="1"/>
        <pt x="700" y="1447" on="1"/>
        <pt x="284" y="1447" on="1"/>
      </contour>
    </TTGlyph>
    <TTGlyph name="afii57534" xMin="142" yMin="226" xMax="842" yMax="1588">
      <contour>
        <pt x="142" y="226" on="1"/>
        <pt x="142" y="1588" on="1"/>
        <pt x="842" y="1588" on="1"/>
        <pt x="842" y="226" on="1"/>
      </contour>
      <contour>
        <pt x="284" y="368" on="1"/>
        <pt x="700" y="368" on="1"/>
        <pt x="700" y="1447" on="1"/>
        <pt x="284" y="1447" on="1"/>
      </contour>
    </TTGlyph>
    <TTGlyph name="afii63167" xMin="142" yMin="226" xMax="842" yMax="1588">
      <contour>
        <pt x="142" y="226" on="1"/>
        <pt x="142" y="1588" on="1"/>
        <pt x="842" y="1588" on="1"/>
        <pt x="842" y="226" on="1"/>
      </contour>
      <contour>
        <pt x="284" y="368" on="1"/>
        <pt x="700" y="368" on="1"/>
        <pt x="700" y="1447" on="1"/>
        <pt x="284" y="1447" on="1"/>
      </contour>
    </TTGlyph>
    <TTGlyph name="alefmaksurainitial" xMin="142" yMin="226" xMax="842" yMax="1588">
      <contour>
        <pt x="142" y="226" on="1"/>
        <pt x="142" y="1588" on="1"/>
        <pt x="842" y="1588" on="1"/>
        <pt x="842" y="226" on="1"/>
      </contour>
      <contour>
        <pt x="284" y="368" on="1"/>
        <pt x="700" y="368" on="1"/>
        <pt x="700" y="1447" on="1"/>
        <pt x="284" y="1447" on="1"/>
      </contour>
    </TTGlyph>
    <TTGlyph name="alefwaslafinalarabic" xMin="142" yMin="226" xMax="842" yMax="1588">
      <contour>
        <pt x="142" y="226" on="1"/>
        <pt x="142" y="1588" on="1"/>
        <pt x="842" y="1588" on="1"/>
        <pt x="842" y="226" on="1"/>
      </contour>
      <contour>
        <pt x="284" y="368" on="1"/>
        <pt x="700" y="368" on="1"/>
        <pt x="700" y="1447" on="1"/>
        <pt x="284" y="1447" on="1"/>
      </contour>
    </TTGlyph>
    <TTGlyph name="ampersand" xMin="142" yMin="226" xMax="842" yMax="1588">
      <contour>
        <pt x="142" y="226" on="1"/>
        <pt x="142" y="1588" on="1"/>
        <pt x="842" y="1588" on="1"/>
        <pt x="842" y="226" on="1"/>
      </contour>
      <contour>
        <pt x="284" y="368" on="1"/>
        <pt x="700" y="368" on="1"/>
        <pt x="700" y="1447" on="1"/>
        <pt x="284" y="1447" on="1"/>
      </contour>
    </TTGlyph>
    <TTGlyph name="asterisk" xMin="142" yMin="226" xMax="842" yMax="1588">
      <contour>
        <pt x="142" y="226" on="1"/>
        <pt x="142" y="1588" on="1"/>
        <pt x="842" y="1588" on="1"/>
        <pt x="842" y="226" on="1"/>
      </contour>
      <contour>
        <pt x="284" y="368" on="1"/>
        <pt x="700" y="368" on="1"/>
        <pt x="700" y="1447" on="1"/>
        <pt x="284" y="1447" on="1"/>
      </contour>
    </TTGlyph>
    <TTGlyph name="behmeemisolatedarabic" xMin="142" yMin="226" xMax="842" yMax="1588">
      <contour>
        <pt x="142" y="226" on="1"/>
        <pt x="142" y="1588" on="1"/>
        <pt x="842" y="1588" on="1"/>
        <pt x="842" y="226" on="1"/>
      </contour>
      <contour>
        <pt x="284" y="368" on="1"/>
        <pt x="700" y="368" on="1"/>
        <pt x="700" y="1447" on="1"/>
        <pt x="284" y="1447" on="1"/>
      </contour>
    </TTGlyph>
    <TTGlyph name="behnoonfinalarabic" xMin="142" yMin="226" xMax="842" yMax="1588">
      <contour>
        <pt x="142" y="226" on="1"/>
        <pt x="142" y="1588" on="1"/>
        <pt x="842" y="1588" on="1"/>
        <pt x="842" y="226" on="1"/>
      </contour>
      <contour>
        <pt x="284" y="368" on="1"/>
        <pt x="700" y="368" on="1"/>
        <pt x="700" y="1447" on="1"/>
        <pt x="284" y="1447" on="1"/>
      </contour>
    </TTGlyph>
    <TTGlyph name="colon" xMin="142" yMin="226" xMax="842" yMax="1588">
      <contour>
        <pt x="142" y="226" on="1"/>
        <pt x="142" y="1588" on="1"/>
        <pt x="842" y="1588" on="1"/>
        <pt x="842" y="226" on="1"/>
      </contour>
      <contour>
        <pt x="284" y="368" on="1"/>
        <pt x="700" y="368" on="1"/>
        <pt x="700" y="1447" on="1"/>
        <pt x="284" y="1447" on="1"/>
      </contour>
    </TTGlyph>
    <TTGlyph name="dagger" xMin="142" yMin="226" xMax="842" yMax="1588">
      <contour>
        <pt x="142" y="226" on="1"/>
        <pt x="142" y="1588" on="1"/>
        <pt x="842" y="1588" on="1"/>
        <pt x="842" y="226" on="1"/>
      </contour>
      <contour>
        <pt x="284" y="368" on="1"/>
        <pt x="700" y="368" on="1"/>
        <pt x="700" y="1447" on="1"/>
        <pt x="284" y="1447" on="1"/>
      </contour>
    </TTGlyph>
    <TTGlyph name="dalringfinal" xMin="142" yMin="226" xMax="842" yMax="1588">
      <contour>
        <pt x="142" y="226" on="1"/>
        <pt x="142" y="1588" on="1"/>
        <pt x="842" y="1588" on="1"/>
        <pt x="842" y="226" on="1"/>
      </contour>
      <contour>
        <pt x="284" y="368" on="1"/>
        <pt x="700" y="368" on="1"/>
        <pt x="700" y="1447" on="1"/>
        <pt x="284" y="1447" on="1"/>
      </contour>
    </TTGlyph>
    <TTGlyph name="ddalfinalarabic" xMin="142" yMin="226" xMax="842" yMax="1588">
      <contour>
        <pt x="142" y="226" on="1"/>
        <pt x="142" y="1588" on="1"/>
        <pt x="842" y="1588" on="1"/>
        <pt x="842" y="226" on="1"/>
      </contour>
      <contour>
        <pt x="284" y="368" on="1"/>
        <pt x="700" y="368" on="1"/>
        <pt x="700" y="1447" on="1"/>
        <pt x="284" y="1447" on="1"/>
      </contour>
    </TTGlyph>
    <TTGlyph name="divide" xMin="142" yMin="226" xMax="842" yMax="1588">
      <contour>
        <pt x="142" y="226" on="1"/>
        <pt x="142" y="1588" on="1"/>
        <pt x="842" y="1588" on="1"/>
        <pt x="842" y="226" on="1"/>
      </contour>
      <contour>
        <pt x="284" y="368" on="1"/>
        <pt x="700" y="368" on="1"/>
        <pt x="700" y="1447" on="1"/>
        <pt x="284" y="1447" on="1"/>
      </contour>
    </TTGlyph>
    <TTGlyph name="dollar" xMin="142" yMin="226" xMax="842" yMax="1588">
      <contour>
        <pt x="142" y="226" on="1"/>
        <pt x="142" y="1588" on="1"/>
        <pt x="842" y="1588" on="1"/>
        <pt x="842" y="226" on="1"/>
      </contour>
      <contour>
        <pt x="284" y="368" on="1"/>
        <pt x="700" y="368" on="1"/>
        <pt x="700" y="1447" on="1"/>
        <pt x="284" y="1447" on="1"/>
      </contour>
    </TTGlyph>
    <TTGlyph name="dotlessyehfinalarabic" xMin="142" yMin="226" xMax="842" yMax="1588">
      <contour>
        <pt x="142" y="226" on="1"/>
        <pt x="142" y="1588" on="1"/>
        <pt x="842" y="1588" on="1"/>
        <pt x="842" y="226" on="1"/>
      </contour>
      <contour>
        <pt x="284" y="368" on="1"/>
        <pt x="700" y="368" on="1"/>
        <pt x="700" y="1447" on="1"/>
        <pt x="284" y="1447" on="1"/>
      </contour>
    </TTGlyph>
    <TTGlyph name="dotlessyehinitialarabic" xMin="142" yMin="226" xMax="842" yMax="1588">
      <contour>
        <pt x="142" y="226" on="1"/>
        <pt x="142" y="1588" on="1"/>
        <pt x="842" y="1588" on="1"/>
        <pt x="842" y="226" on="1"/>
      </contour>
      <contour>
        <pt x="284" y="368" on="1"/>
        <pt x="700" y="368" on="1"/>
        <pt x="700" y="1447" on="1"/>
        <pt x="284" y="1447" on="1"/>
      </contour>
    </TTGlyph>
    <TTGlyph name="dotlessyehmedialarabic" xMin="142" yMin="226" xMax="842" yMax="1588">
      <contour>
        <pt x="142" y="226" on="1"/>
        <pt x="142" y="1588" on="1"/>
        <pt x="842" y="1588" on="1"/>
        <pt x="842" y="226" on="1"/>
      </contour>
      <contour>
        <pt x="284" y="368" on="1"/>
        <pt x="700" y="368" on="1"/>
        <pt x="700" y="1447" on="1"/>
        <pt x="284" y="1447" on="1"/>
      </contour>
    </TTGlyph>
    <TTGlyph name="elefmaksuramedial" xMin="142" yMin="226" xMax="842" yMax="1588">
      <contour>
        <pt x="142" y="226" on="1"/>
        <pt x="142" y="1588" on="1"/>
        <pt x="842" y="1588" on="1"/>
        <pt x="842" y="226" on="1"/>
      </contour>
      <contour>
        <pt x="284" y="368" on="1"/>
        <pt x="700" y="368" on="1"/>
        <pt x="700" y="1447" on="1"/>
        <pt x="284" y="1447" on="1"/>
      </contour>
    </TTGlyph>
    <TTGlyph name="ellipsis" xMin="142" yMin="226" xMax="842" yMax="1588">
      <contour>
        <pt x="142" y="226" on="1"/>
        <pt x="142" y="1588" on="1"/>
        <pt x="842" y="1588" on="1"/>
        <pt x="842" y="226" on="1"/>
      </contour>
      <contour>
        <pt x="284" y="368" on="1"/>
        <pt x="700" y="368" on="1"/>
        <pt x="700" y="1447" on="1"/>
        <pt x="284" y="1447" on="1"/>
      </contour>
    </TTGlyph>
    <TTGlyph name="emdash" xMin="122" yMin="-434" xMax="2170" yMax="1665">
      <contour>
        <pt x="2170" y="1485" on="1"/>
        <pt x="2170" y="1441" on="0"/>
        <pt x="2096" y="1347" on="1"/>
        <pt x="2055" y="1299" on="0"/>
        <pt x="2014" y="1252" on="1"/>
        <pt x="1960" y="1183" on="0"/>
        <pt x="1888" y="1112" on="1"/>
        <pt x="1881" y="1126" on="0"/>
        <pt x="1881" y="1148" on="1"/>
        <pt x="1881" y="1185" on="0"/>
        <pt x="1923" y="1235" on="1"/>
        <pt x="1952" y="1266" on="0"/>
        <pt x="1981" y="1298" on="1"/>
        <pt x="2035" y="1369" on="0"/>
        <pt x="2146" y="1511" on="1"/>
        <pt x="2164" y="1511" on="1"/>
        <pt x="2170" y="1509" on="0"/>
      </contour>
      <contour>
        <pt x="1834" y="1458" on="1"/>
        <pt x="1833" y="1426" on="0"/>
        <pt x="1822" y="1379" on="1"/>
        <pt x="1747" y="1266" on="0"/>
        <pt x="1563" y="1051" on="1"/>
        <pt x="1563" y="1054" on="0"/>
        <pt x="1556" y="1067" on="0"/>
        <pt x="1556" y="1081" on="1"/>
        <pt x="1556" y="1134" on="0"/>
        <pt x="1628" y="1226" on="1"/>
        <pt x="1668" y="1272" on="0"/>
        <pt x="1707" y="1318" on="1"/>
        <pt x="1742" y="1366" on="0"/>
        <pt x="1811" y="1458" on="1"/>
      </contour>
      <contour>
        <pt x="2170" y="251" on="1"/>
        <pt x="2170" y="98" on="0"/>
        <pt x="2126" y="-58" on="1"/>
        <pt x="2087" y="-196" on="0"/>
        <pt x="2030" y="-287" on="1"/>
        <pt x="2012" y="-315" on="0"/>
        <pt x="1993" y="-318" on="1"/>
        <pt x="1871" y="-342" on="0"/>
        <pt x="1876" y="-342" on="1"/>
        <pt x="1870" y="-342" on="0"/>
        <pt x="1800" y="-331" on="0"/>
        <pt x="1794" y="-331" on="1"/>
        <pt x="1767" y="-331" on="0"/>
        <pt x="1757" y="-285" on="1"/>
        <pt x="1761" y="-267" on="0"/>
        <pt x="1772" y="-264" on="1"/>
        <pt x="1780" y="-261" on="0"/>
        <pt x="1795" y="-265" on="1"/>
        <pt x="1811" y="-270" on="0"/>
        <pt x="1814" y="-270" on="1"/>
        <pt x="1851" y="-270" on="0"/>
        <pt x="1936" y="-225" on="0"/>
        <pt x="1986" y="-176" on="1"/>
        <pt x="2025" y="-138" on="0"/>
        <pt x="2075" y="-13" on="1"/>
        <pt x="2129" y="118" on="0"/>
        <pt x="2129" y="190" on="1"/>
        <pt x="2129" y="215" on="0"/>
        <pt x="2126" y="221" on="1"/>
        <pt x="2073" y="139" on="0"/>
        <pt x="2064" y="139" on="1"/>
        <pt x="2035" y="139" on="0"/>
        <pt x="2011" y="193" on="1"/>
        <pt x="1990" y="243" on="0"/>
        <pt x="1990" y="297" on="1"/>
        <pt x="1990" y="361" on="0"/>
        <pt x="2009" y="452" on="1"/>
        <pt x="2035" y="569" on="0"/>
        <pt x="2072" y="569" on="1"/>
        <pt x="2075" y="569" on="0"/>
        <pt x="2107" y="534" on="1"/>
        <pt x="2116" y="523" on="0"/>
        <pt x="2127" y="487" on="1"/>
        <pt x="2144" y="427" on="0"/>
        <pt x="2145" y="424" on="1"/>
        <pt x="2170" y="353" on="0"/>
      </contour>
      <contour>
        <pt x="1314" y="1102" on="1"/>
        <pt x="1314" y="1050" on="0"/>
        <pt x="1288" y="1050" on="1"/>
        <pt x="1281" y="1050" on="0"/>
        <pt x="1248" y="1091" on="0"/>
        <pt x="1242" y="1091" on="1"/>
        <pt x="1228" y="1091" on="0"/>
        <pt x="1201" y="1031" on="1"/>
        <pt x="1120" y="856" on="0"/>
        <pt x="1052" y="856" on="1"/>
        <pt x="1046" y="856" on="0"/>
        <pt x="1041" y="858" on="1"/>
        <pt x="1041" y="886" on="0"/>
        <pt x="1071" y="934" on="1"/>
        <pt x="1095" y="967" on="0"/>
        <pt x="1119" y="1001" on="1"/>
        <pt x="1141" y="1040" on="0"/>
        <pt x="1190" y="1119" on="1"/>
        <pt x="1187" y="1142" on="0"/>
        <pt x="1150" y="1196" on="1"/>
        <pt x="1150" y="1205" on="0"/>
        <pt x="1143" y="1262" on="0"/>
        <pt x="1143" y="1275" on="1"/>
        <pt x="1143" y="1312" on="0"/>
        <pt x="1169" y="1383" on="1"/>
        <pt x="1196" y="1460" on="0"/>
        <pt x="1218" y="1460" on="1"/>
        <pt x="1244" y="1460" on="0"/>
        <pt x="1253" y="1370" on="1"/>
        <pt x="1261" y="1294" on="0"/>
        <pt x="1255" y="1241" on="1"/>
        <pt x="1263" y="1217" on="0"/>
        <pt x="1294" y="1167" on="1"/>
        <pt x="1314" y="1132" on="0"/>
      </contour>
      <contour>
        <pt x="1845" y="338" on="1"/>
        <pt x="1845" y="215" on="0"/>
        <pt x="1809" y="70" on="1"/>
        <pt x="1770" y="-84" on="0"/>
        <pt x="1708" y="-185" on="1"/>
        <pt x="1684" y="-223" on="0"/>
        <pt x="1621" y="-249" on="0"/>
        <pt x="1566" y="-249" on="1"/>
        <pt x="1541" y="-249" on="0"/>
        <pt x="1418" y="-216" on="1"/>
        <pt x="1413" y="-208" on="0"/>
        <pt x="1402" y="-171" on="1"/>
        <pt x="1407" y="-167" on="0"/>
        <pt x="1463" y="-167" on="1"/>
        <pt x="1537" y="-167" on="0"/>
        <pt x="1600" y="-135" on="1"/>
        <pt x="1630" y="-118" on="0"/>
        <pt x="1696" y="-22" on="1"/>
        <pt x="1715" y="4" on="0"/>
        <pt x="1758" y="115" on="1"/>
        <pt x="1804" y="234" on="0"/>
        <pt x="1804" y="272" on="1"/>
        <pt x="1804" y="331" on="0"/>
        <pt x="1729" y="447" on="1"/>
        <pt x="1716" y="467" on="0"/>
        <pt x="1716" y="513" on="1"/>
        <pt x="1716" y="560" on="0"/>
        <pt x="1733" y="609" on="1"/>
        <pt x="1749" y="609" on="1"/>
        <pt x="1767" y="610" on="0"/>
        <pt x="1845" y="437" on="0"/>
      </contour>
      <contour>
        <pt x="736" y="1633" on="1"/>
        <pt x="736" y="1590" on="0"/>
        <pt x="636" y="1437" on="1"/>
        <pt x="560" y="1319" on="0"/>
        <pt x="516" y="1266" on="1"/>
        <pt x="509" y="1280" on="0"/>
        <pt x="509" y="1301" on="1"/>
        <pt x="509" y="1348" on="0"/>
        <pt x="609" y="1506" on="1"/>
        <pt x="663" y="1585" on="0"/>
        <pt x="717" y="1665" on="1"/>
        <pt x="736" y="1665" on="0"/>
      </contour>
      <contour>
        <pt x="1520" y="338" on="1"/>
        <pt x="1520" y="249" on="0"/>
        <pt x="1492" y="143" on="1"/>
        <pt x="1470" y="119" on="0"/>
        <pt x="1447" y="119" on="1"/>
        <pt x="1441" y="119" on="0"/>
        <pt x="1374" y="149" on="0"/>
        <pt x="1368" y="149" on="1"/>
        <pt x="1364" y="149" on="0"/>
        <pt x="1344" y="113" on="1"/>
        <pt x="1322" y="75" on="0"/>
        <pt x="1312" y="70" on="1"/>
        <pt x="1281" y="57" on="0"/>
        <pt x="1257" y="57" on="1"/>
        <pt x="1250" y="57" on="0"/>
        <pt x="1183" y="119" on="0"/>
        <pt x="1177" y="119" on="1"/>
        <pt x="1171" y="119" on="0"/>
        <pt x="1160" y="93" on="1"/>
        <pt x="1147" y="65" on="0"/>
        <pt x="1141" y="60" on="1"/>
        <pt x="1112" y="48" on="0"/>
        <pt x="1059" y="13" on="1"/>
        <pt x="1050" y="4" on="0"/>
        <pt x="1045" y="-27" on="1"/>
        <pt x="1041" y="-49" on="0"/>
        <pt x="1038" y="-72" on="1"/>
        <pt x="1022" y="-155" on="0"/>
        <pt x="978" y="-261" on="1"/>
        <pt x="925" y="-389" on="0"/>
        <pt x="878" y="-421" on="1"/>
        <pt x="859" y="-434" on="0"/>
        <pt x="805" y="-434" on="1"/>
        <pt x="739" y="-434" on="0"/>
        <pt x="649" y="-401" on="1"/>
        <pt x="649" y="-398" on="0"/>
        <pt x="643" y="-367" on="0"/>
        <pt x="643" y="-355" on="1"/>
        <pt x="650" y="-339" on="1"/>
        <pt x="664" y="-335" on="0"/>
        <pt x="699" y="-343" on="1"/>
        <pt x="740" y="-352" on="0"/>
        <pt x="741" y="-352" on="1"/>
        <pt x="847" y="-352" on="0"/>
        <pt x="955" y="-132" on="1"/>
        <pt x="969" y="-107" on="0"/>
        <pt x="984" y="-58" on="1"/>
        <pt x="984" y="-12" on="1"/>
        <pt x="946" y="2" on="0"/>
        <pt x="909" y="17" on="1"/>
        <pt x="854" y="51" on="0"/>
        <pt x="854" y="144" on="1"/>
        <pt x="854" y="216" on="0"/>
        <pt x="879" y="308" on="1"/>
        <pt x="909" y="415" on="0"/>
        <pt x="947" y="415" on="1"/>
        <pt x="978" y="415" on="0"/>
        <pt x="1009" y="313" on="1"/>
        <pt x="1031" y="240" on="0"/>
        <pt x="1036" y="197" on="1"/>
        <pt x="1040" y="186" on="0"/>
        <pt x="1049" y="170" on="1"/>
        <pt x="1106" y="181" on="0"/>
        <pt x="1121" y="188" on="1"/>
        <pt x="1162" y="210" on="0"/>
        <pt x="1183" y="270" on="1"/>
        <pt x="1189" y="298" on="0"/>
        <pt x="1196" y="326" on="1"/>
        <pt x="1206" y="363" on="0"/>
        <pt x="1225" y="374" on="1"/>
        <pt x="1225" y="369" on="0"/>
        <pt x="1225" y="209" on="1"/>
        <pt x="1227" y="209" on="0"/>
        <pt x="1237" y="201" on="0"/>
        <pt x="1244" y="201" on="1"/>
        <pt x="1265" y="201" on="0"/>
        <pt x="1302" y="222" on="1"/>
        <pt x="1343" y="246" on="0"/>
        <pt x="1348" y="270" on="1"/>
        <pt x="1358" y="327" on="0"/>
        <pt x="1368" y="385" on="1"/>
        <pt x="1379" y="448" on="0"/>
        <pt x="1394" y="456" on="1"/>
        <pt x="1401" y="445" on="0"/>
        <pt x="1406" y="445" on="1"/>
        <pt x="1406" y="430" on="0"/>
        <pt x="1401" y="351" on="0"/>
        <pt x="1401" y="338" on="1"/>
        <pt x="1401" y="292" on="0"/>
        <pt x="1420" y="292" on="1"/>
        <pt x="1460" y="292" on="1"/>
        <pt x="1471" y="305" on="0"/>
        <pt x="1471" y="330" on="1"/>
        <pt x="1471" y="349" on="0"/>
        <pt x="1458" y="411" on="0"/>
        <pt x="1458" y="415" on="1"/>
        <pt x="1458" y="461" on="0"/>
        <pt x="1481" y="528" on="1"/>
        <pt x="1498" y="517" on="0"/>
        <pt x="1509" y="455" on="1"/>
        <pt x="1520" y="399" on="0"/>
      </contour>
      <contour>
        <pt x="457" y="1209" on="1"/>
        <pt x="457" y="1194" on="0"/>
        <pt x="452" y="1168" on="0"/>
        <pt x="452" y="1165" on="1"/>
        <pt x="441" y="1158" on="0"/>
        <pt x="431" y="1158" on="1"/>
        <pt x="422" y="1158" on="0"/>
        <pt x="394" y="1173" on="0"/>
        <pt x="390" y="1173" on="1"/>
        <pt x="385" y="1173" on="0"/>
        <pt x="348" y="1102" on="1"/>
        <pt x="305" y="1018" on="0"/>
        <pt x="286" y="992" on="1"/>
        <pt x="267" y="976" on="0"/>
        <pt x="233" y="938" on="1"/>
        <pt x="211" y="938" on="1"/>
        <pt x="204" y="940" on="0"/>
        <pt x="204" y="963" on="1"/>
        <pt x="204" y="979" on="0"/>
        <pt x="273" y="1094" on="1"/>
        <pt x="326" y="1183" on="0"/>
        <pt x="344" y="1210" on="1"/>
        <pt x="336" y="1235" on="0"/>
        <pt x="303" y="1277" on="1"/>
        <pt x="301" y="1384" on="0"/>
        <pt x="309" y="1407" on="1"/>
        <pt x="356" y="1532" on="0"/>
        <pt x="377" y="1532" on="1"/>
        <pt x="413" y="1532" on="0"/>
        <pt x="413" y="1416" on="1"/>
        <pt x="413" y="1395" on="0"/>
        <pt x="410" y="1327" on="0"/>
        <pt x="410" y="1319" on="1"/>
        <pt x="410" y="1307" on="0"/>
        <pt x="411" y="1304" on="1"/>
        <pt x="414" y="1298" on="0"/>
        <pt x="438" y="1257" on="1"/>
        <pt x="457" y="1224" on="0"/>
      </contour>
      <contour>
        <pt x="720" y="267" on="1"/>
        <pt x="720" y="91" on="0"/>
        <pt x="667" y="-44" on="1"/>
        <pt x="654" y="-49" on="0"/>
        <pt x="639" y="-49" on="1"/>
        <pt x="590" y="-49" on="0"/>
        <pt x="550" y="0" on="1"/>
        <pt x="505" y="57" on="0"/>
        <pt x="490" y="160" on="1"/>
        <pt x="470" y="116" on="0"/>
        <pt x="427" y="43" on="1"/>
        <pt x="404" y="16" on="0"/>
        <pt x="367" y="16" on="1"/>
        <pt x="310" y="16" on="0"/>
        <pt x="282" y="70" on="1"/>
        <pt x="284" y="200" on="0"/>
        <pt x="391" y="380" on="1"/>
        <pt x="392" y="382" on="0"/>
        <pt x="424" y="419" on="1"/>
        <pt x="448" y="446" on="0"/>
        <pt x="456" y="474" on="1"/>
        <pt x="461" y="492" on="0"/>
        <pt x="464" y="551" on="1"/>
        <pt x="469" y="620" on="0"/>
        <pt x="474" y="650" on="1"/>
        <pt x="489" y="650" on="0"/>
        <pt x="496" y="627" on="1"/>
        <pt x="505" y="429" on="0"/>
        <pt x="541" y="238" on="1"/>
        <pt x="548" y="197" on="0"/>
        <pt x="578" y="154" on="1"/>
        <pt x="609" y="108" on="0"/>
        <pt x="635" y="108" on="1"/>
        <pt x="677" y="108" on="0"/>
        <pt x="674" y="184" on="1"/>
        <pt x="602" y="1055" on="1"/>
        <pt x="610" y="1191" on="0"/>
        <pt x="645" y="1275" on="1"/>
        <pt x="662" y="1256" on="0"/>
        <pt x="663" y="1199" on="1"/>
        <pt x="664" y="1154" on="0"/>
        <pt x="664" y="1109" on="1"/>
        <pt x="677" y="1094" on="0"/>
        <pt x="700" y="1058" on="1"/>
        <pt x="700" y="1022" on="0"/>
        <pt x="697" y="1013" on="1"/>
        <pt x="679" y="932" on="0"/>
        <pt x="679" y="830" on="1"/>
        <pt x="679" y="818" on="0"/>
        <pt x="720" y="280" on="0"/>
      </contour>
      <contour>
        <pt x="245" y="185" on="1"/>
        <pt x="245" y="70" on="0"/>
        <pt x="201" y="0" on="1"/>
        <pt x="173" y="-45" on="0"/>
        <pt x="155" y="-43" on="1"/>
        <pt x="122" y="-43" on="1"/>
        <pt x="150" y="10" on="0"/>
        <pt x="199" y="114" on="1"/>
        <pt x="199" y="116" on="0"/>
        <pt x="175" y="121" on="1"/>
        <pt x="153" y="160" on="0"/>
        <pt x="153" y="196" on="1"/>
        <pt x="153" y="215" on="0"/>
        <pt x="169" y="270" on="1"/>
        <pt x="189" y="333" on="0"/>
        <pt x="207" y="333" on="1"/>
        <pt x="239" y="333" on="0"/>
      </contour>
      <contour>
        <pt x="2093" y="350" on="1"/>
        <pt x="2084" y="372" on="0"/>
        <pt x="2071" y="415" on="1"/>
        <pt x="2053" y="415" on="1"/>
        <pt x="2053" y="411" on="0"/>
        <pt x="2041" y="379" on="0"/>
        <pt x="2041" y="365" on="1"/>
        <pt x="2041" y="346" on="0"/>
        <pt x="2062" y="313" on="0"/>
        <pt x="2072" y="313" on="1"/>
        <pt x="2080" y="313" on="0"/>
        <pt x="2087" y="328" on="1"/>
        <pt x="2093" y="342" on="0"/>
      </contour>
      <contour>
        <pt x="1219" y="1245" on="1"/>
        <pt x="1226" y="1287" on="0"/>
        <pt x="1214" y="1337" on="1"/>
        <pt x="1190" y="1313" on="0"/>
        <pt x="1190" y="1291" on="1"/>
        <pt x="1190" y="1270" on="0"/>
      </contour>
      <contour>
        <pt x="379" y="1407" on="1"/>
        <pt x="349" y="1389" on="0"/>
        <pt x="349" y="1348" on="1"/>
        <pt x="351" y="1348" on="0"/>
        <pt x="367" y="1327" on="0"/>
        <pt x="374" y="1327" on="1"/>
        <pt x="381" y="1327" on="0"/>
        <pt x="381" y="1344" on="1"/>
        <pt x="382" y="1357" on="0"/>
        <pt x="379" y="1407" on="0"/>
      </contour>
      <contour>
        <pt x="962" y="177" on="1"/>
        <pt x="947" y="251" on="0"/>
        <pt x="932" y="251" on="1"/>
        <pt x="922" y="251" on="0"/>
        <pt x="906" y="215" on="1"/>
        <pt x="911" y="206" on="0"/>
        <pt x="913" y="191" on="1"/>
        <pt x="905" y="191" on="0"/>
      </contour>
      <contour>
        <pt x="478" y="272" on="1"/>
        <pt x="478" y="287" on="0"/>
        <pt x="470" y="314" on="1"/>
        <pt x="460" y="343" on="0"/>
        <pt x="449" y="354" on="1"/>
        <pt x="447" y="351" on="0"/>
        <pt x="397" y="289" on="1"/>
        <pt x="361" y="245" on="0"/>
        <pt x="354" y="205" on="1"/>
        <pt x="366" y="180" on="1"/>
        <pt x="433" y="180" on="1"/>
        <pt x="443" y="180" on="0"/>
        <pt x="478" y="258" on="0"/>
      </contour>
    </TTGlyph>
    <TTGlyph name="endash" xMin="122" yMin="-434" xMax="1146" yMax="1665">
      <contour>
        <pt x="1146" y="1485" on="1"/>
        <pt x="1146" y="1441" on="0"/>
        <pt x="1109" y="1347" on="1"/>
        <pt x="1089" y="1299" on="0"/>
        <pt x="1068" y="1252" on="1"/>
        <pt x="1041" y="1183" on="0"/>
        <pt x="1005" y="1112" on="1"/>
        <pt x="1002" y="1126" on="0"/>
        <pt x="1002" y="1148" on="1"/>
        <pt x="1002" y="1185" on="0"/>
        <pt x="1023" y="1235" on="1"/>
        <pt x="1037" y="1266" on="0"/>
        <pt x="1051" y="1298" on="1"/>
        <pt x="1078" y="1369" on="0"/>
        <pt x="1134" y="1511" on="1"/>
        <pt x="1143" y="1511" on="1"/>
        <pt x="1146" y="1509" on="0"/>
      </contour>
      <contour>
        <pt x="978" y="1458" on="1"/>
        <pt x="977" y="1426" on="0"/>
        <pt x="972" y="1379" on="1"/>
        <pt x="934" y="1266" on="0"/>
        <pt x="842" y="1051" on="1"/>
        <pt x="842" y="1054" on="0"/>
        <pt x="839" y="1067" on="0"/>
        <pt x="839" y="1081" on="1"/>
        <pt x="839" y="1134" on="0"/>
        <pt x="875" y="1226" on="1"/>
        <pt x="895" y="1272" on="0"/>
        <pt x="914" y="1318" on="1"/>
        <pt x="932" y="1366" on="0"/>
        <pt x="966" y="1458" on="1"/>
      </contour>
      <contour>
        <pt x="1146" y="251" on="1"/>
        <pt x="1146" y="98" on="0"/>
        <pt x="1124" y="-58" on="1"/>
        <pt x="1105" y="-196" on="0"/>
        <pt x="1076" y="-287" on="1"/>
        <pt x="1067" y="-315" on="0"/>
        <pt x="1057" y="-318" on="1"/>
        <pt x="997" y="-342" on="0"/>
        <pt x="999" y="-342" on="1"/>
        <pt x="996" y="-342" on="0"/>
        <pt x="961" y="-331" on="0"/>
        <pt x="958" y="-331" on="1"/>
        <pt x="945" y="-331" on="0"/>
        <pt x="940" y="-285" on="1"/>
        <pt x="941" y="-267" on="0"/>
        <pt x="947" y="-264" on="1"/>
        <pt x="951" y="-261" on="0"/>
        <pt x="958" y="-265" on="1"/>
        <pt x="967" y="-270" on="0"/>
        <pt x="968" y="-270" on="1"/>
        <pt x="986" y="-270" on="0"/>
        <pt x="1029" y="-225" on="0"/>
        <pt x="1054" y="-176" on="1"/>
        <pt x="1073" y="-138" on="0"/>
        <pt x="1099" y="-13" on="1"/>
        <pt x="1125" y="118" on="0"/>
        <pt x="1125" y="190" on="1"/>
        <pt x="1125" y="215" on="0"/>
        <pt x="1124" y="221" on="1"/>
        <pt x="1098" y="139" on="0"/>
        <pt x="1093" y="139" on="1"/>
        <pt x="1078" y="139" on="0"/>
        <pt x="1067" y="193" on="1"/>
        <pt x="1056" y="243" on="0"/>
        <pt x="1056" y="297" on="1"/>
        <pt x="1056" y="361" on="0"/>
        <pt x="1066" y="452" on="1"/>
        <pt x="1078" y="569" on="0"/>
        <pt x="1097" y="569" on="1"/>
        <pt x="1098" y="569" on="0"/>
        <pt x="1115" y="534" on="1"/>
        <pt x="1119" y="523" on="0"/>
        <pt x="1124" y="487" on="1"/>
        <pt x="1133" y="427" on="0"/>
        <pt x="1134" y="424" on="1"/>
        <pt x="1146" y="353" on="0"/>
      </contour>
      <contour>
        <pt x="718" y="1102" on="1"/>
        <pt x="718" y="1050" on="0"/>
        <pt x="705" y="1050" on="1"/>
        <pt x="702" y="1050" on="0"/>
        <pt x="685" y="1091" on="0"/>
        <pt x="682" y="1091" on="1"/>
        <pt x="675" y="1091" on="0"/>
        <pt x="661" y="1031" on="1"/>
        <pt x="621" y="856" on="0"/>
        <pt x="587" y="856" on="1"/>
        <pt x="584" y="856" on="0"/>
        <pt x="582" y="858" on="1"/>
        <pt x="582" y="886" on="0"/>
        <pt x="596" y="934" on="1"/>
        <pt x="609" y="967" on="0"/>
        <pt x="620" y="1001" on="1"/>
        <pt x="632" y="1040" on="0"/>
        <pt x="656" y="1119" on="1"/>
        <pt x="655" y="1142" on="0"/>
        <pt x="636" y="1196" on="1"/>
        <pt x="636" y="1205" on="0"/>
        <pt x="633" y="1262" on="0"/>
        <pt x="633" y="1275" on="1"/>
        <pt x="633" y="1312" on="0"/>
        <pt x="645" y="1383" on="1"/>
        <pt x="659" y="1460" on="0"/>
        <pt x="670" y="1460" on="1"/>
        <pt x="683" y="1460" on="0"/>
        <pt x="688" y="1370" on="1"/>
        <pt x="692" y="1294" on="0"/>
        <pt x="688" y="1241" on="1"/>
        <pt x="693" y="1217" on="0"/>
        <pt x="708" y="1167" on="1"/>
        <pt x="718" y="1132" on="0"/>
      </contour>
      <contour>
        <pt x="983" y="338" on="1"/>
        <pt x="983" y="215" on="0"/>
        <pt x="965" y="70" on="1"/>
        <pt x="946" y="-84" on="0"/>
        <pt x="915" y="-185" on="1"/>
        <pt x="903" y="-223" on="0"/>
        <pt x="872" y="-249" on="0"/>
        <pt x="844" y="-249" on="1"/>
        <pt x="832" y="-249" on="0"/>
        <pt x="770" y="-216" on="1"/>
        <pt x="767" y="-208" on="0"/>
        <pt x="762" y="-171" on="1"/>
        <pt x="764" y="-167" on="0"/>
        <pt x="793" y="-167" on="1"/>
        <pt x="829" y="-167" on="0"/>
        <pt x="861" y="-135" on="1"/>
        <pt x="876" y="-118" on="0"/>
        <pt x="909" y="-22" on="1"/>
        <pt x="918" y="4" on="0"/>
        <pt x="940" y="115" on="1"/>
        <pt x="963" y="234" on="0"/>
        <pt x="963" y="272" on="1"/>
        <pt x="963" y="331" on="0"/>
        <pt x="925" y="447" on="1"/>
        <pt x="919" y="467" on="0"/>
        <pt x="919" y="513" on="1"/>
        <pt x="919" y="560" on="0"/>
        <pt x="928" y="609" on="1"/>
        <pt x="935" y="609" on="1"/>
        <pt x="944" y="610" on="0"/>
        <pt x="983" y="437" on="0"/>
      </contour>
      <contour>
        <pt x="429" y="1633" on="1"/>
        <pt x="429" y="1590" on="0"/>
        <pt x="379" y="1437" on="1"/>
        <pt x="341" y="1319" on="0"/>
        <pt x="319" y="1266" on="1"/>
        <pt x="316" y="1280" on="0"/>
        <pt x="316" y="1301" on="1"/>
        <pt x="316" y="1348" on="0"/>
        <pt x="366" y="1506" on="1"/>
        <pt x="393" y="1585" on="0"/>
        <pt x="419" y="1665" on="1"/>
        <pt x="429" y="1665" on="0"/>
      </contour>
      <contour>
        <pt x="821" y="338" on="1"/>
        <pt x="821" y="249" on="0"/>
        <pt x="807" y="143" on="1"/>
        <pt x="796" y="119" on="0"/>
        <pt x="785" y="119" on="1"/>
        <pt x="782" y="119" on="0"/>
        <pt x="748" y="149" on="0"/>
        <pt x="745" y="149" on="1"/>
        <pt x="743" y="149" on="0"/>
        <pt x="733" y="113" on="1"/>
        <pt x="722" y="75" on="0"/>
        <pt x="717" y="70" on="1"/>
        <pt x="701" y="57" on="0"/>
        <pt x="689" y="57" on="1"/>
        <pt x="686" y="57" on="0"/>
        <pt x="653" y="119" on="0"/>
        <pt x="649" y="119" on="1"/>
        <pt x="646" y="119" on="0"/>
        <pt x="641" y="93" on="1"/>
        <pt x="635" y="65" on="0"/>
        <pt x="632" y="60" on="1"/>
        <pt x="617" y="48" on="0"/>
        <pt x="591" y="13" on="1"/>
        <pt x="586" y="4" on="0"/>
        <pt x="584" y="-27" on="1"/>
        <pt x="582" y="-49" on="0"/>
        <pt x="580" y="-72" on="1"/>
        <pt x="572" y="-155" on="0"/>
        <pt x="550" y="-261" on="1"/>
        <pt x="524" y="-389" on="0"/>
        <pt x="500" y="-421" on="1"/>
        <pt x="490" y="-434" on="0"/>
        <pt x="464" y="-434" on="1"/>
        <pt x="430" y="-434" on="0"/>
        <pt x="385" y="-401" on="1"/>
        <pt x="385" y="-398" on="0"/>
        <pt x="383" y="-367" on="0"/>
        <pt x="383" y="-355" on="1"/>
        <pt x="386" y="-339" on="1"/>
        <pt x="393" y="-335" on="0"/>
        <pt x="411" y="-343" on="1"/>
        <pt x="431" y="-352" on="0"/>
        <pt x="431" y="-352" on="1"/>
        <pt x="484" y="-352" on="0"/>
        <pt x="538" y="-132" on="1"/>
        <pt x="546" y="-107" on="0"/>
        <pt x="553" y="-58" on="1"/>
        <pt x="553" y="-12" on="1"/>
        <pt x="534" y="2" on="0"/>
        <pt x="515" y="17" on="1"/>
        <pt x="488" y="51" on="0"/>
        <pt x="488" y="144" on="1"/>
        <pt x="488" y="216" on="0"/>
        <pt x="501" y="308" on="1"/>
        <pt x="516" y="415" on="0"/>
        <pt x="535" y="415" on="1"/>
        <pt x="550" y="415" on="0"/>
        <pt x="565" y="313" on="1"/>
        <pt x="577" y="240" on="0"/>
        <pt x="579" y="197" on="1"/>
        <pt x="581" y="186" on="0"/>
        <pt x="585" y="170" on="1"/>
        <pt x="614" y="181" on="0"/>
        <pt x="621" y="188" on="1"/>
        <pt x="642" y="210" on="0"/>
        <pt x="652" y="270" on="1"/>
        <pt x="656" y="298" on="0"/>
        <pt x="659" y="326" on="1"/>
        <pt x="664" y="363" on="0"/>
        <pt x="673" y="374" on="1"/>
        <pt x="674" y="369" on="0"/>
        <pt x="674" y="209" on="1"/>
        <pt x="674" y="209" on="0"/>
        <pt x="679" y="201" on="0"/>
        <pt x="683" y="201" on="1"/>
        <pt x="694" y="201" on="0"/>
        <pt x="712" y="222" on="1"/>
        <pt x="732" y="246" on="0"/>
        <pt x="735" y="270" on="1"/>
        <pt x="740" y="327" on="0"/>
        <pt x="745" y="385" on="1"/>
        <pt x="750" y="448" on="0"/>
        <pt x="758" y="456" on="1"/>
        <pt x="761" y="445" on="0"/>
        <pt x="764" y="445" on="1"/>
        <pt x="764" y="430" on="0"/>
        <pt x="762" y="351" on="0"/>
        <pt x="762" y="338" on="1"/>
        <pt x="762" y="292" on="0"/>
        <pt x="771" y="292" on="1"/>
        <pt x="791" y="292" on="1"/>
        <pt x="796" y="305" on="0"/>
        <pt x="796" y="330" on="1"/>
        <pt x="796" y="349" on="0"/>
        <pt x="790" y="411" on="0"/>
        <pt x="790" y="415" on="1"/>
        <pt x="790" y="461" on="0"/>
        <pt x="801" y="528" on="1"/>
        <pt x="810" y="517" on="0"/>
        <pt x="816" y="455" on="1"/>
        <pt x="821" y="399" on="0"/>
      </contour>
      <contour>
        <pt x="290" y="1209" on="1"/>
        <pt x="290" y="1194" on="0"/>
        <pt x="287" y="1168" on="0"/>
        <pt x="287" y="1165" on="1"/>
        <pt x="282" y="1158" on="0"/>
        <pt x="277" y="1158" on="1"/>
        <pt x="272" y="1158" on="0"/>
        <pt x="258" y="1173" on="0"/>
        <pt x="256" y="1173" on="1"/>
        <pt x="253" y="1173" on="0"/>
        <pt x="235" y="1102" on="1"/>
        <pt x="214" y="1018" on="0"/>
        <pt x="204" y="992" on="1"/>
        <pt x="195" y="976" on="0"/>
        <pt x="178" y="938" on="1"/>
        <pt x="166" y="938" on="1"/>
        <pt x="163" y="940" on="0"/>
        <pt x="163" y="963" on="1"/>
        <pt x="163" y="979" on="0"/>
        <pt x="198" y="1094" on="1"/>
        <pt x="224" y="1183" on="0"/>
        <pt x="233" y="1210" on="1"/>
        <pt x="229" y="1235" on="0"/>
        <pt x="212" y="1277" on="1"/>
        <pt x="212" y="1384" on="0"/>
        <pt x="216" y="1407" on="1"/>
        <pt x="239" y="1532" on="0"/>
        <pt x="249" y="1532" on="1"/>
        <pt x="268" y="1532" on="0"/>
        <pt x="268" y="1416" on="1"/>
        <pt x="268" y="1395" on="0"/>
        <pt x="266" y="1327" on="0"/>
        <pt x="266" y="1319" on="1"/>
        <pt x="266" y="1307" on="0"/>
        <pt x="267" y="1304" on="1"/>
        <pt x="268" y="1298" on="0"/>
        <pt x="280" y="1257" on="1"/>
        <pt x="290" y="1224" on="0"/>
      </contour>
      <contour>
        <pt x="421" y="267" on="1"/>
        <pt x="421" y="91" on="0"/>
        <pt x="395" y="-44" on="1"/>
        <pt x="388" y="-49" on="0"/>
        <pt x="381" y="-49" on="1"/>
        <pt x="356" y="-49" on="0"/>
        <pt x="336" y="0" on="1"/>
        <pt x="313" y="57" on="0"/>
        <pt x="306" y="160" on="1"/>
        <pt x="296" y="116" on="0"/>
        <pt x="274" y="43" on="1"/>
        <pt x="263" y="16" on="0"/>
        <pt x="244" y="16" on="1"/>
        <pt x="216" y="16" on="0"/>
        <pt x="202" y="70" on="1"/>
        <pt x="203" y="200" on="0"/>
        <pt x="257" y="380" on="1"/>
        <pt x="257" y="382" on="0"/>
        <pt x="273" y="419" on="1"/>
        <pt x="285" y="446" on="0"/>
        <pt x="289" y="474" on="1"/>
        <pt x="291" y="492" on="0"/>
        <pt x="293" y="551" on="1"/>
        <pt x="295" y="620" on="0"/>
        <pt x="298" y="650" on="1"/>
        <pt x="305" y="650" on="0"/>
        <pt x="309" y="627" on="1"/>
        <pt x="313" y="429" on="0"/>
        <pt x="331" y="238" on="1"/>
        <pt x="335" y="197" on="0"/>
        <pt x="350" y="154" on="1"/>
        <pt x="366" y="108" on="0"/>
        <pt x="379" y="108" on="1"/>
        <pt x="399" y="108" on="0"/>
        <pt x="398" y="184" on="1"/>
        <pt x="362" y="1055" on="1"/>
        <pt x="366" y="1191" on="0"/>
        <pt x="384" y="1275" on="1"/>
        <pt x="392" y="1256" on="0"/>
        <pt x="393" y="1199" on="1"/>
        <pt x="393" y="1154" on="0"/>
        <pt x="393" y="1109" on="1"/>
        <pt x="399" y="1094" on="0"/>
        <pt x="411" y="1058" on="1"/>
        <pt x="411" y="1022" on="0"/>
        <pt x="410" y="1013" on="1"/>
        <pt x="400" y="932" on="0"/>
        <pt x="400" y="830" on="1"/>
        <pt x="400" y="818" on="0"/>
        <pt x="421" y="280" on="0"/>
      </contour>
      <contour>
        <pt x="184" y="185" on="1"/>
        <pt x="184" y="70" on="0"/>
        <pt x="162" y="0" on="1"/>
        <pt x="148" y="-45" on="0"/>
        <pt x="138" y="-43" on="1"/>
        <pt x="122" y="-43" on="1"/>
        <pt x="136" y="10" on="0"/>
        <pt x="161" y="114" on="1"/>
        <pt x="160" y="116" on="0"/>
        <pt x="148" y="121" on="1"/>
        <pt x="137" y="160" on="0"/>
        <pt x="137" y="196" on="1"/>
        <pt x="137" y="215" on="0"/>
        <pt x="146" y="270" on="1"/>
        <pt x="156" y="333" on="0"/>
        <pt x="165" y="333" on="1"/>
        <pt x="181" y="333" on="0"/>
      </contour>
      <contour>
        <pt x="1107" y="350" on="1"/>
        <pt x="1103" y="372" on="0"/>
        <pt x="1096" y="415" on="1"/>
        <pt x="1087" y="415" on="1"/>
        <pt x="1087" y="411" on="0"/>
        <pt x="1081" y="379" on="0"/>
        <pt x="1081" y="365" on="1"/>
        <pt x="1081" y="346" on="0"/>
        <pt x="1092" y="313" on="0"/>
        <pt x="1097" y="313" on="1"/>
        <pt x="1101" y="313" on="0"/>
        <pt x="1104" y="328" on="1"/>
        <pt x="1107" y="342" on="0"/>
      </contour>
      <contour>
        <pt x="671" y="1245" on="1"/>
        <pt x="674" y="1287" on="0"/>
        <pt x="668" y="1337" on="1"/>
        <pt x="656" y="1313" on="0"/>
        <pt x="656" y="1291" on="1"/>
        <pt x="656" y="1270" on="0"/>
      </contour>
      <contour>
        <pt x="251" y="1407" on="1"/>
        <pt x="236" y="1389" on="0"/>
        <pt x="236" y="1348" on="1"/>
        <pt x="237" y="1348" on="0"/>
        <pt x="245" y="1327" on="0"/>
        <pt x="248" y="1327" on="1"/>
        <pt x="251" y="1327" on="0"/>
        <pt x="252" y="1344" on="1"/>
        <pt x="252" y="1357" on="0"/>
        <pt x="251" y="1407" on="0"/>
      </contour>
      <contour>
        <pt x="542" y="177" on="1"/>
        <pt x="535" y="251" on="0"/>
        <pt x="527" y="251" on="1"/>
        <pt x="522" y="251" on="0"/>
        <pt x="514" y="215" on="1"/>
        <pt x="517" y="206" on="0"/>
        <pt x="517" y="191" on="1"/>
        <pt x="514" y="191" on="0"/>
      </contour>
      <contour>
        <pt x="300" y="272" on="1"/>
        <pt x="300" y="287" on="0"/>
        <pt x="296" y="314" on="1"/>
        <pt x="291" y="343" on="0"/>
        <pt x="286" y="354" on="1"/>
        <pt x="285" y="351" on="0"/>
        <pt x="260" y="289" on="1"/>
        <pt x="241" y="245" on="0"/>
        <pt x="238" y="205" on="1"/>
        <pt x="244" y="180" on="1"/>
        <pt x="278" y="180" on="1"/>
        <pt x="283" y="180" on="0"/>
        <pt x="300" y="258" on="0"/>
      </contour>
    </TTGlyph>
    <TTGlyph name="equal" xMin="142" yMin="226" xMax="842" yMax="1588">
      <contour>
        <pt x="142" y="226" on="1"/>
        <pt x="142" y="1588" on="1"/>
        <pt x="842" y="1588" on="1"/>
        <pt x="842" y="226" on="1"/>
      </contour>
      <contour>
        <pt x="284" y="368" on="1"/>
        <pt x="700" y="368" on="1"/>
        <pt x="700" y="1447" on="1"/>
        <pt x="284" y="1447" on="1"/>
      </contour>
    </TTGlyph>
    <TTGlyph name="exclam" xMin="142" yMin="226" xMax="842" yMax="1588">
      <contour>
        <pt x="142" y="226" on="1"/>
        <pt x="142" y="1588" on="1"/>
        <pt x="842" y="1588" on="1"/>
        <pt x="842" y="226" on="1"/>
      </contour>
      <contour>
        <pt x="284" y="368" on="1"/>
        <pt x="700" y="368" on="1"/>
        <pt x="700" y="1447" on="1"/>
        <pt x="284" y="1447" on="1"/>
      </contour>
    </TTGlyph>
    <TTGlyph name="figuredash" xMin="122" yMin="-434" xMax="4186" yMax="1665">
      <contour>
        <pt x="4186" y="1485" on="1"/>
        <pt x="4186" y="1441" on="0"/>
        <pt x="4039" y="1347" on="1"/>
        <pt x="3958" y="1299" on="0"/>
        <pt x="3876" y="1252" on="1"/>
        <pt x="3769" y="1183" on="0"/>
        <pt x="3627" y="1112" on="1"/>
        <pt x="3613" y="1126" on="0"/>
        <pt x="3613" y="1148" on="1"/>
        <pt x="3613" y="1185" on="0"/>
        <pt x="3696" y="1235" on="1"/>
        <pt x="3754" y="1266" on="0"/>
        <pt x="3810" y="1298" on="1"/>
        <pt x="3918" y="1369" on="0"/>
        <pt x="4139" y="1511" on="1"/>
        <pt x="4174" y="1511" on="1"/>
        <pt x="4186" y="1509" on="0"/>
      </contour>
      <contour>
        <pt x="3520" y="1458" on="1"/>
        <pt x="3517" y="1426" on="0"/>
        <pt x="3495" y="1379" on="1"/>
        <pt x="3346" y="1266" on="0"/>
        <pt x="2981" y="1051" on="1"/>
        <pt x="2981" y="1054" on="0"/>
        <pt x="2968" y="1067" on="0"/>
        <pt x="2968" y="1081" on="1"/>
        <pt x="2968" y="1134" on="0"/>
        <pt x="3110" y="1226" on="1"/>
        <pt x="3189" y="1272" on="0"/>
        <pt x="3267" y="1318" on="1"/>
        <pt x="3337" y="1366" on="0"/>
        <pt x="3473" y="1458" on="1"/>
      </contour>
      <contour>
        <pt x="4186" y="251" on="1"/>
        <pt x="4186" y="98" on="0"/>
        <pt x="4099" y="-58" on="1"/>
        <pt x="4022" y="-196" on="0"/>
        <pt x="3908" y="-287" on="1"/>
        <pt x="3872" y="-315" on="0"/>
        <pt x="3834" y="-318" on="1"/>
        <pt x="3593" y="-342" on="0"/>
        <pt x="3603" y="-342" on="1"/>
        <pt x="3590" y="-342" on="0"/>
        <pt x="3451" y="-331" on="0"/>
        <pt x="3439" y="-331" on="1"/>
        <pt x="3387" y="-331" on="0"/>
        <pt x="3367" y="-285" on="1"/>
        <pt x="3374" y="-267" on="0"/>
        <pt x="3397" y="-264" on="1"/>
        <pt x="3412" y="-261" on="0"/>
        <pt x="3441" y="-265" on="1"/>
        <pt x="3474" y="-270" on="0"/>
        <pt x="3480" y="-270" on="1"/>
        <pt x="3552" y="-270" on="0"/>
        <pt x="3721" y="-225" on="0"/>
        <pt x="3821" y="-176" on="1"/>
        <pt x="3898" y="-138" on="0"/>
        <pt x="3998" y="-13" on="1"/>
        <pt x="4104" y="118" on="0"/>
        <pt x="4104" y="190" on="1"/>
        <pt x="4104" y="215" on="0"/>
        <pt x="4099" y="221" on="1"/>
        <pt x="3994" y="139" on="0"/>
        <pt x="3976" y="139" on="1"/>
        <pt x="3918" y="139" on="0"/>
        <pt x="3871" y="193" on="1"/>
        <pt x="3828" y="243" on="0"/>
        <pt x="3828" y="297" on="1"/>
        <pt x="3828" y="361" on="0"/>
        <pt x="3867" y="452" on="1"/>
        <pt x="3918" y="569" on="0"/>
        <pt x="3992" y="569" on="1"/>
        <pt x="3997" y="569" on="0"/>
        <pt x="4061" y="534" on="1"/>
        <pt x="4079" y="523" on="0"/>
        <pt x="4100" y="487" on="1"/>
        <pt x="4134" y="427" on="0"/>
        <pt x="4137" y="424" on="1"/>
        <pt x="4186" y="353" on="0"/>
      </contour>
      <contour>
        <pt x="2487" y="1102" on="1"/>
        <pt x="2487" y="1050" on="0"/>
        <pt x="2435" y="1050" on="1"/>
        <pt x="2422" y="1050" on="0"/>
        <pt x="2356" y="1091" on="0"/>
        <pt x="2344" y="1091" on="1"/>
        <pt x="2317" y="1091" on="0"/>
        <pt x="2263" y="1031" on="1"/>
        <pt x="2103" y="856" on="0"/>
        <pt x="1968" y="856" on="1"/>
        <pt x="1955" y="856" on="0"/>
        <pt x="1946" y="858" on="1"/>
        <pt x="1946" y="886" on="0"/>
        <pt x="2005" y="934" on="1"/>
        <pt x="2053" y="967" on="0"/>
        <pt x="2100" y="1001" on="1"/>
        <pt x="2145" y="1040" on="0"/>
        <pt x="2241" y="1119" on="1"/>
        <pt x="2236" y="1142" on="0"/>
        <pt x="2162" y="1196" on="1"/>
        <pt x="2162" y="1205" on="0"/>
        <pt x="2149" y="1262" on="0"/>
        <pt x="2149" y="1275" on="1"/>
        <pt x="2149" y="1312" on="0"/>
        <pt x="2199" y="1383" on="1"/>
        <pt x="2253" y="1460" on="0"/>
        <pt x="2297" y="1460" on="1"/>
        <pt x="2348" y="1460" on="0"/>
        <pt x="2367" y="1370" on="1"/>
        <pt x="2383" y="1294" on="0"/>
        <pt x="2370" y="1241" on="1"/>
        <pt x="2387" y="1217" on="0"/>
        <pt x="2447" y="1167" on="1"/>
        <pt x="2487" y="1132" on="0"/>
      </contour>
      <contour>
        <pt x="3541" y="338" on="1"/>
        <pt x="3541" y="215" on="0"/>
        <pt x="3469" y="70" on="1"/>
        <pt x="3392" y="-84" on="0"/>
        <pt x="3269" y="-185" on="1"/>
        <pt x="3221" y="-223" on="0"/>
        <pt x="3097" y="-249" on="0"/>
        <pt x="2988" y="-249" on="1"/>
        <pt x="2938" y="-249" on="0"/>
        <pt x="2694" y="-216" on="1"/>
        <pt x="2683" y="-208" on="0"/>
        <pt x="2662" y="-171" on="1"/>
        <pt x="2671" y="-167" on="0"/>
        <pt x="2784" y="-167" on="1"/>
        <pt x="2929" y="-167" on="0"/>
        <pt x="3054" y="-135" on="1"/>
        <pt x="3115" y="-118" on="0"/>
        <pt x="3246" y="-22" on="1"/>
        <pt x="3283" y="4" on="0"/>
        <pt x="3368" y="115" on="1"/>
        <pt x="3459" y="234" on="0"/>
        <pt x="3459" y="272" on="1"/>
        <pt x="3459" y="331" on="0"/>
        <pt x="3310" y="447" on="1"/>
        <pt x="3285" y="467" on="0"/>
        <pt x="3285" y="513" on="1"/>
        <pt x="3285" y="560" on="0"/>
        <pt x="3319" y="609" on="1"/>
        <pt x="3350" y="609" on="1"/>
        <pt x="3386" y="610" on="0"/>
        <pt x="3541" y="437" on="0"/>
      </contour>
      <contour>
        <pt x="1340" y="1633" on="1"/>
        <pt x="1340" y="1590" on="0"/>
        <pt x="1142" y="1437" on="1"/>
        <pt x="991" y="1319" on="0"/>
        <pt x="904" y="1266" on="1"/>
        <pt x="890" y="1280" on="0"/>
        <pt x="890" y="1301" on="1"/>
        <pt x="890" y="1348" on="0"/>
        <pt x="1089" y="1506" on="1"/>
        <pt x="1196" y="1585" on="0"/>
        <pt x="1302" y="1665" on="1"/>
        <pt x="1340" y="1665" on="0"/>
      </contour>
      <contour>
        <pt x="2896" y="338" on="1"/>
        <pt x="2896" y="249" on="0"/>
        <pt x="2840" y="143" on="1"/>
        <pt x="2797" y="119" on="0"/>
        <pt x="2752" y="119" on="1"/>
        <pt x="2740" y="119" on="0"/>
        <pt x="2607" y="149" on="0"/>
        <pt x="2594" y="149" on="1"/>
        <pt x="2586" y="149" on="0"/>
        <pt x="2546" y="113" on="1"/>
        <pt x="2503" y="75" on="0"/>
        <pt x="2483" y="70" on="1"/>
        <pt x="2421" y="57" on="0"/>
        <pt x="2374" y="57" on="1"/>
        <pt x="2361" y="57" on="0"/>
        <pt x="2228" y="119" on="0"/>
        <pt x="2215" y="119" on="1"/>
        <pt x="2203" y="119" on="0"/>
        <pt x="2181" y="93" on="1"/>
        <pt x="2156" y="65" on="0"/>
        <pt x="2145" y="60" on="1"/>
        <pt x="2087" y="48" on="0"/>
        <pt x="1982" y="13" on="1"/>
        <pt x="1964" y="4" on="0"/>
        <pt x="1954" y="-27" on="1"/>
        <pt x="1946" y="-49" on="0"/>
        <pt x="1940" y="-72" on="1"/>
        <pt x="1907" y="-155" on="0"/>
        <pt x="1821" y="-261" on="1"/>
        <pt x="1716" y="-389" on="0"/>
        <pt x="1623" y="-421" on="1"/>
        <pt x="1584" y="-434" on="0"/>
        <pt x="1478" y="-434" on="1"/>
        <pt x="1346" y="-434" on="0"/>
        <pt x="1167" y="-401" on="1"/>
        <pt x="1167" y="-398" on="0"/>
        <pt x="1156" y="-367" on="0"/>
        <pt x="1156" y="-355" on="1"/>
        <pt x="1169" y="-339" on="1"/>
        <pt x="1197" y="-335" on="0"/>
        <pt x="1267" y="-343" on="1"/>
        <pt x="1348" y="-352" on="0"/>
        <pt x="1350" y="-352" on="1"/>
        <pt x="1560" y="-352" on="0"/>
        <pt x="1774" y="-132" on="1"/>
        <pt x="1803" y="-107" on="0"/>
        <pt x="1832" y="-58" on="1"/>
        <pt x="1832" y="-12" on="1"/>
        <pt x="1757" y="2" on="0"/>
        <pt x="1683" y="17" on="1"/>
        <pt x="1575" y="51" on="0"/>
        <pt x="1575" y="144" on="1"/>
        <pt x="1575" y="216" on="0"/>
        <pt x="1625" y="308" on="1"/>
        <pt x="1684" y="415" on="0"/>
        <pt x="1760" y="415" on="1"/>
        <pt x="1820" y="415" on="0"/>
        <pt x="1882" y="313" on="1"/>
        <pt x="1926" y="240" on="0"/>
        <pt x="1936" y="197" on="1"/>
        <pt x="1944" y="186" on="0"/>
        <pt x="1961" y="170" on="1"/>
        <pt x="2075" y="181" on="0"/>
        <pt x="2104" y="188" on="1"/>
        <pt x="2186" y="210" on="0"/>
        <pt x="2227" y="270" on="1"/>
        <pt x="2240" y="298" on="0"/>
        <pt x="2254" y="326" on="1"/>
        <pt x="2273" y="363" on="0"/>
        <pt x="2310" y="374" on="1"/>
        <pt x="2311" y="369" on="0"/>
        <pt x="2311" y="209" on="1"/>
        <pt x="2314" y="209" on="0"/>
        <pt x="2334" y="201" on="0"/>
        <pt x="2349" y="201" on="1"/>
        <pt x="2391" y="201" on="0"/>
        <pt x="2464" y="222" on="1"/>
        <pt x="2544" y="246" on="0"/>
        <pt x="2555" y="270" on="1"/>
        <pt x="2575" y="327" on="0"/>
        <pt x="2594" y="385" on="1"/>
        <pt x="2616" y="448" on="0"/>
        <pt x="2646" y="456" on="1"/>
        <pt x="2660" y="445" on="0"/>
        <pt x="2670" y="445" on="1"/>
        <pt x="2670" y="430" on="0"/>
        <pt x="2661" y="351" on="0"/>
        <pt x="2661" y="338" on="1"/>
        <pt x="2661" y="292" on="0"/>
        <pt x="2698" y="292" on="1"/>
        <pt x="2777" y="292" on="1"/>
        <pt x="2798" y="305" on="0"/>
        <pt x="2798" y="330" on="1"/>
        <pt x="2798" y="349" on="0"/>
        <pt x="2773" y="411" on="0"/>
        <pt x="2773" y="415" on="1"/>
        <pt x="2773" y="461" on="0"/>
        <pt x="2818" y="528" on="1"/>
        <pt x="2852" y="517" on="0"/>
        <pt x="2875" y="455" on="1"/>
        <pt x="2896" y="399" on="0"/>
      </contour>
      <contour>
        <pt x="787" y="1209" on="1"/>
        <pt x="787" y="1194" on="0"/>
        <pt x="776" y="1168" on="0"/>
        <pt x="776" y="1165" on="1"/>
        <pt x="756" y="1158" on="0"/>
        <pt x="736" y="1158" on="1"/>
        <pt x="717" y="1158" on="0"/>
        <pt x="662" y="1173" on="0"/>
        <pt x="654" y="1173" on="1"/>
        <pt x="643" y="1173" on="0"/>
        <pt x="570" y="1102" on="1"/>
        <pt x="486" y="1018" on="0"/>
        <pt x="447" y="992" on="1"/>
        <pt x="410" y="976" on="0"/>
        <pt x="343" y="938" on="1"/>
        <pt x="298" y="938" on="1"/>
        <pt x="285" y="940" on="0"/>
        <pt x="285" y="963" on="1"/>
        <pt x="285" y="979" on="0"/>
        <pt x="422" y="1094" on="1"/>
        <pt x="526" y="1183" on="0"/>
        <pt x="562" y="1210" on="1"/>
        <pt x="547" y="1235" on="0"/>
        <pt x="481" y="1277" on="1"/>
        <pt x="478" y="1384" on="0"/>
        <pt x="494" y="1407" on="1"/>
        <pt x="586" y="1532" on="0"/>
        <pt x="628" y="1532" on="1"/>
        <pt x="700" y="1532" on="0"/>
        <pt x="700" y="1416" on="1"/>
        <pt x="700" y="1395" on="0"/>
        <pt x="694" y="1327" on="0"/>
        <pt x="694" y="1319" on="1"/>
        <pt x="694" y="1307" on="0"/>
        <pt x="696" y="1304" on="1"/>
        <pt x="701" y="1298" on="0"/>
        <pt x="750" y="1257" on="1"/>
        <pt x="787" y="1224" on="0"/>
      </contour>
      <contour>
        <pt x="1309" y="267" on="1"/>
        <pt x="1309" y="91" on="0"/>
        <pt x="1204" y="-44" on="1"/>
        <pt x="1177" y="-49" on="0"/>
        <pt x="1148" y="-49" on="1"/>
        <pt x="1051" y="-49" on="0"/>
        <pt x="972" y="0" on="1"/>
        <pt x="882" y="57" on="0"/>
        <pt x="852" y="160" on="1"/>
        <pt x="812" y="116" on="0"/>
        <pt x="727" y="43" on="1"/>
        <pt x="682" y="16" on="0"/>
        <pt x="608" y="16" on="1"/>
        <pt x="496" y="16" on="0"/>
        <pt x="439" y="70" on="1"/>
        <pt x="443" y="200" on="0"/>
        <pt x="656" y="380" on="1"/>
        <pt x="658" y="382" on="0"/>
        <pt x="721" y="419" on="1"/>
        <pt x="768" y="446" on="0"/>
        <pt x="784" y="474" on="1"/>
        <pt x="794" y="492" on="0"/>
        <pt x="801" y="551" on="1"/>
        <pt x="810" y="620" on="0"/>
        <pt x="820" y="650" on="1"/>
        <pt x="850" y="650" on="0"/>
        <pt x="865" y="627" on="1"/>
        <pt x="882" y="429" on="0"/>
        <pt x="953" y="238" on="1"/>
        <pt x="968" y="197" on="0"/>
        <pt x="1027" y="154" on="1"/>
        <pt x="1089" y="108" on="0"/>
        <pt x="1140" y="108" on="1"/>
        <pt x="1223" y="108" on="0"/>
        <pt x="1217" y="184" on="1"/>
        <pt x="1074" y="1055" on="1"/>
        <pt x="1091" y="1191" on="0"/>
        <pt x="1160" y="1275" on="1"/>
        <pt x="1193" y="1256" on="0"/>
        <pt x="1196" y="1199" on="1"/>
        <pt x="1198" y="1154" on="0"/>
        <pt x="1198" y="1109" on="1"/>
        <pt x="1223" y="1094" on="0"/>
        <pt x="1268" y="1058" on="1"/>
        <pt x="1268" y="1022" on="0"/>
        <pt x="1264" y="1013" on="1"/>
        <pt x="1227" y="932" on="0"/>
        <pt x="1227" y="830" on="1"/>
        <pt x="1227" y="818" on="0"/>
        <pt x="1309" y="280" on="0"/>
      </contour>
      <contour>
        <pt x="367" y="185" on="1"/>
        <pt x="367" y="70" on="0"/>
        <pt x="279" y="0" on="1"/>
        <pt x="224" y="-45" on="0"/>
        <pt x="187" y="-43" on="1"/>
        <pt x="122" y="-43" on="1"/>
        <pt x="178" y="10" on="0"/>
        <pt x="275" y="114" on="1"/>
        <pt x="274" y="116" on="0"/>
        <pt x="227" y="121" on="1"/>
        <pt x="183" y="160" on="0"/>
        <pt x="183" y="196" on="1"/>
        <pt x="183" y="215" on="0"/>
        <pt x="216" y="270" on="1"/>
        <pt x="255" y="333" on="0"/>
        <pt x="291" y="333" on="1"/>
        <pt x="355" y="333" on="0"/>
      </contour>
      <contour>
        <pt x="4033" y="350" on="1"/>
        <pt x="4016" y="372" on="0"/>
        <pt x="3989" y="415" on="1"/>
        <pt x="3953" y="415" on="1"/>
        <pt x="3953" y="411" on="0"/>
        <pt x="3930" y="379" on="0"/>
        <pt x="3930" y="365" on="1"/>
        <pt x="3930" y="346" on="0"/>
        <pt x="3971" y="313" on="0"/>
        <pt x="3992" y="313" on="1"/>
        <pt x="4007" y="313" on="0"/>
        <pt x="4021" y="328" on="1"/>
        <pt x="4033" y="342" on="0"/>
      </contour>
      <contour>
        <pt x="2299" y="1245" on="1"/>
        <pt x="2313" y="1287" on="0"/>
        <pt x="2289" y="1337" on="1"/>
        <pt x="2241" y="1313" on="0"/>
        <pt x="2241" y="1291" on="1"/>
        <pt x="2241" y="1270" on="0"/>
      </contour>
      <contour>
        <pt x="632" y="1407" on="1"/>
        <pt x="573" y="1389" on="0"/>
        <pt x="573" y="1348" on="1"/>
        <pt x="577" y="1348" on="0"/>
        <pt x="609" y="1327" on="0"/>
        <pt x="623" y="1327" on="1"/>
        <pt x="635" y="1327" on="0"/>
        <pt x="636" y="1344" on="1"/>
        <pt x="638" y="1357" on="0"/>
        <pt x="632" y="1407" on="0"/>
      </contour>
      <contour>
        <pt x="1789" y="177" on="1"/>
        <pt x="1760" y="251" on="0"/>
        <pt x="1729" y="251" on="1"/>
        <pt x="1710" y="251" on="0"/>
        <pt x="1678" y="215" on="1"/>
        <pt x="1688" y="206" on="0"/>
        <pt x="1691" y="191" on="1"/>
        <pt x="1676" y="191" on="0"/>
      </contour>
      <contour>
        <pt x="828" y="272" on="1"/>
        <pt x="828" y="287" on="0"/>
        <pt x="812" y="314" on="1"/>
        <pt x="793" y="343" on="0"/>
        <pt x="771" y="354" on="1"/>
        <pt x="767" y="351" on="0"/>
        <pt x="668" y="289" on="1"/>
        <pt x="596" y="245" on="0"/>
        <pt x="582" y="205" on="1"/>
        <pt x="606" y="180" on="1"/>
        <pt x="740" y="180" on="1"/>
        <pt x="759" y="180" on="0"/>
        <pt x="828" y="258" on="0"/>
      </contour>
    </TTGlyph>
    <TTGlyph name="gaffinalarabic" xMin="142" yMin="226" xMax="842" yMax="1588">
      <contour>
        <pt x="142" y="226" on="1"/>
        <pt x="142" y="1588" on="1"/>
        <pt x="842" y="1588" on="1"/>
        <pt x="842" y="226" on="1"/>
      </contour>
      <contour>
        <pt x="284" y="368" on="1"/>
        <pt x="700" y="368" on="1"/>
        <pt x="700" y="1447" on="1"/>
        <pt x="284" y="1447" on="1"/>
      </contour>
    </TTGlyph>
    <TTGlyph name="gafinitialarabic" xMin="142" yMin="226" xMax="842" yMax="1588">
      <contour>
        <pt x="142" y="226" on="1"/>
        <pt x="142" y="1588" on="1"/>
        <pt x="842" y="1588" on="1"/>
        <pt x="842" y="226" on="1"/>
      </contour>
      <contour>
        <pt x="284" y="368" on="1"/>
        <pt x="700" y="368" on="1"/>
        <pt x="700" y="1447" on="1"/>
        <pt x="284" y="1447" on="1"/>
      </contour>
    </TTGlyph>
    <TTGlyph name="gafmedialarabic" xMin="142" yMin="226" xMax="842" yMax="1588">
      <contour>
        <pt x="142" y="226" on="1"/>
        <pt x="142" y="1588" on="1"/>
        <pt x="842" y="1588" on="1"/>
        <pt x="842" y="226" on="1"/>
      </contour>
      <contour>
        <pt x="284" y="368" on="1"/>
        <pt x="700" y="368" on="1"/>
        <pt x="700" y="1447" on="1"/>
        <pt x="284" y="1447" on="1"/>
      </contour>
    </TTGlyph>
    <TTGlyph name="glyph41" xMin="142" yMin="226" xMax="842" yMax="1588">
      <contour>
        <pt x="142" y="226" on="1"/>
        <pt x="142" y="1588" on="1"/>
        <pt x="842" y="1588" on="1"/>
        <pt x="842" y="226" on="1"/>
      </contour>
      <contour>
        <pt x="284" y="368" on="1"/>
        <pt x="700" y="368" on="1"/>
        <pt x="700" y="1447" on="1"/>
        <pt x="284" y="1447" on="1"/>
      </contour>
    </TTGlyph>
    <TTGlyph name="glyph42" xMin="142" yMin="226" xMax="842" yMax="1588">
      <contour>
        <pt x="142" y="226" on="1"/>
        <pt x="142" y="1588" on="1"/>
        <pt x="842" y="1588" on="1"/>
        <pt x="842" y="226" on="1"/>
      </contour>
      <contour>
        <pt x="284" y="368" on="1"/>
        <pt x="700" y="368" on="1"/>
        <pt x="700" y="1447" on="1"/>
        <pt x="284" y="1447" on="1"/>
      </contour>
    </TTGlyph>
    <TTGlyph name="glyph43" xMin="142" yMin="226" xMax="842" yMax="1588">
      <contour>
        <pt x="142" y="226" on="1"/>
        <pt x="142" y="1588" on="1"/>
        <pt x="842" y="1588" on="1"/>
        <pt x="842" y="226" on="1"/>
      </contour>
      <contour>
        <pt x="284" y="368" on="1"/>
        <pt x="700" y="368" on="1"/>
        <pt x="700" y="1447" on="1"/>
        <pt x="284" y="1447" on="1"/>
      </contour>
    </TTGlyph>
    <TTGlyph name="glyph44" xMin="142" yMin="226" xMax="842" yMax="1588">
      <contour>
        <pt x="142" y="226" on="1"/>
        <pt x="142" y="1588" on="1"/>
        <pt x="842" y="1588" on="1"/>
        <pt x="842" y="226" on="1"/>
      </contour>
      <contour>
        <pt x="284" y="368" on="1"/>
        <pt x="700" y="368" on="1"/>
        <pt x="700" y="1447" on="1"/>
        <pt x="284" y="1447" on="1"/>
      </contour>
    </TTGlyph>
    <TTGlyph name="glyph45" xMin="142" yMin="226" xMax="842" yMax="1588">
      <contour>
        <pt x="142" y="226" on="1"/>
        <pt x="142" y="1588" on="1"/>
        <pt x="842" y="1588" on="1"/>
        <pt x="842" y="226" on="1"/>
      </contour>
      <contour>
        <pt x="284" y="368" on="1"/>
        <pt x="700" y="368" on="1"/>
        <pt x="700" y="1447" on="1"/>
        <pt x="284" y="1447" on="1"/>
      </contour>
    </TTGlyph>
    <TTGlyph name="glyph46" xMin="142" yMin="226" xMax="842" yMax="1588">
      <contour>
        <pt x="142" y="226" on="1"/>
        <pt x="142" y="1588" on="1"/>
        <pt x="842" y="1588" on="1"/>
        <pt x="842" y="226" on="1"/>
      </contour>
      <contour>
        <pt x="284" y="368" on="1"/>
        <pt x="700" y="368" on="1"/>
        <pt x="700" y="1447" on="1"/>
        <pt x="284" y="1447" on="1"/>
      </contour>
    </TTGlyph>
    <TTGlyph name="glyph47" xMin="142" yMin="226" xMax="842" yMax="1588">
      <contour>
        <pt x="142" y="226" on="1"/>
        <pt x="142" y="1588" on="1"/>
        <pt x="842" y="1588" on="1"/>
        <pt x="842" y="226" on="1"/>
      </contour>
      <contour>
        <pt x="284" y="368" on="1"/>
        <pt x="700" y="368" on="1"/>
        <pt x="700" y="1447" on="1"/>
        <pt x="284" y="1447" on="1"/>
      </contour>
    </TTGlyph>
    <TTGlyph name="glyph48" xMin="142" yMin="226" xMax="842" yMax="1588">
      <contour>
        <pt x="142" y="226" on="1"/>
        <pt x="142" y="1588" on="1"/>
        <pt x="842" y="1588" on="1"/>
        <pt x="842" y="226" on="1"/>
      </contour>
      <contour>
        <pt x="284" y="368" on="1"/>
        <pt x="700" y="368" on="1"/>
        <pt x="700" y="1447" on="1"/>
        <pt x="284" y="1447" on="1"/>
      </contour>
    </TTGlyph>
    <TTGlyph name="glyph50" xMin="142" yMin="226" xMax="842" yMax="1588">
      <contour>
        <pt x="142" y="226" on="1"/>
        <pt x="142" y="1588" on="1"/>
        <pt x="842" y="1588" on="1"/>
        <pt x="842" y="226" on="1"/>
      </contour>
      <contour>
        <pt x="284" y="368" on="1"/>
        <pt x="700" y="368" on="1"/>
        <pt x="700" y="1447" on="1"/>
        <pt x="284" y="1447" on="1"/>
      </contour>
    </TTGlyph>
    <TTGlyph name="glyph51" xMin="142" yMin="226" xMax="842" yMax="1588">
      <contour>
        <pt x="142" y="226" on="1"/>
        <pt x="142" y="1588" on="1"/>
        <pt x="842" y="1588" on="1"/>
        <pt x="842" y="226" on="1"/>
      </contour>
      <contour>
        <pt x="284" y="368" on="1"/>
        <pt x="700" y="368" on="1"/>
        <pt x="700" y="1447" on="1"/>
        <pt x="284" y="1447" on="1"/>
      </contour>
    </TTGlyph>
    <TTGlyph name="greater" xMin="142" yMin="226" xMax="842" yMax="1588">
      <contour>
        <pt x="142" y="226" on="1"/>
        <pt x="142" y="1588" on="1"/>
        <pt x="842" y="1588" on="1"/>
        <pt x="842" y="226" on="1"/>
      </contour>
      <contour>
        <pt x="284" y="368" on="1"/>
        <pt x="700" y="368" on="1"/>
        <pt x="700" y="1447" on="1"/>
        <pt x="284" y="1447" on="1"/>
      </contour>
    </TTGlyph>
    <TTGlyph name="hahhamzabovefinal" xMin="142" yMin="226" xMax="842" yMax="1588">
      <contour>
        <pt x="142" y="226" on="1"/>
        <pt x="142" y="1588" on="1"/>
        <pt x="842" y="1588" on="1"/>
        <pt x="842" y="226" on="1"/>
      </contour>
      <contour>
        <pt x="284" y="368" on="1"/>
        <pt x="700" y="368" on="1"/>
        <pt x="700" y="1447" on="1"/>
        <pt x="284" y="1447" on="1"/>
      </contour>
    </TTGlyph>
    <TTGlyph name="hahhamzaboveinitial" xMin="142" yMin="226" xMax="842" yMax="1588">
      <contour>
        <pt x="142" y="226" on="1"/>
        <pt x="142" y="1588" on="1"/>
        <pt x="842" y="1588" on="1"/>
        <pt x="842" y="226" on="1"/>
      </contour>
      <contour>
        <pt x="284" y="368" on="1"/>
        <pt x="700" y="368" on="1"/>
        <pt x="700" y="1447" on="1"/>
        <pt x="284" y="1447" on="1"/>
      </contour>
    </TTGlyph>
    <TTGlyph name="hahhamzabovemedial" xMin="142" yMin="226" xMax="842" yMax="1588">
      <contour>
        <pt x="142" y="226" on="1"/>
        <pt x="142" y="1588" on="1"/>
        <pt x="842" y="1588" on="1"/>
        <pt x="842" y="226" on="1"/>
      </contour>
      <contour>
        <pt x="284" y="368" on="1"/>
        <pt x="700" y="368" on="1"/>
        <pt x="700" y="1447" on="1"/>
        <pt x="284" y="1447" on="1"/>
      </contour>
    </TTGlyph>
    <TTGlyph name="hahthreedotsabovefinal" xMin="142" yMin="226" xMax="842" yMax="1588">
      <contour>
        <pt x="142" y="226" on="1"/>
        <pt x="142" y="1588" on="1"/>
        <pt x="842" y="1588" on="1"/>
        <pt x="842" y="226" on="1"/>
      </contour>
      <contour>
        <pt x="284" y="368" on="1"/>
        <pt x="700" y="368" on="1"/>
        <pt x="700" y="1447" on="1"/>
        <pt x="284" y="1447" on="1"/>
      </contour>
    </TTGlyph>
    <TTGlyph name="hahthreedotsaboveinitial" xMin="142" yMin="226" xMax="842" yMax="1588">
      <contour>
        <pt x="142" y="226" on="1"/>
        <pt x="142" y="1588" on="1"/>
        <pt x="842" y="1588" on="1"/>
        <pt x="842" y="226" on="1"/>
      </contour>
      <contour>
        <pt x="284" y="368" on="1"/>
        <pt x="700" y="368" on="1"/>
        <pt x="700" y="1447" on="1"/>
        <pt x="284" y="1447" on="1"/>
      </contour>
    </TTGlyph>
    <TTGlyph name="hahthreedotsabovemedial" xMin="142" yMin="226" xMax="842" yMax="1588">
      <contour>
        <pt x="142" y="226" on="1"/>
        <pt x="142" y="1588" on="1"/>
        <pt x="842" y="1588" on="1"/>
        <pt x="842" y="226" on="1"/>
      </contour>
      <contour>
        <pt x="284" y="368" on="1"/>
        <pt x="700" y="368" on="1"/>
        <pt x="700" y="1447" on="1"/>
        <pt x="284" y="1447" on="1"/>
      </contour>
    </TTGlyph>
    <TTGlyph name="hehdoachashmeefinalarabic" xMin="142" yMin="226" xMax="842" yMax="1588">
      <contour>
        <pt x="142" y="226" on="1"/>
        <pt x="142" y="1588" on="1"/>
        <pt x="842" y="1588" on="1"/>
        <pt x="842" y="226" on="1"/>
      </contour>
      <contour>
        <pt x="284" y="368" on="1"/>
        <pt x="700" y="368" on="1"/>
        <pt x="700" y="1447" on="1"/>
        <pt x="284" y="1447" on="1"/>
      </contour>
    </TTGlyph>
    <TTGlyph name="hehdoachashmeeinitialarabic" xMin="142" yMin="226" xMax="842" yMax="1588">
      <contour>
        <pt x="142" y="226" on="1"/>
        <pt x="142" y="1588" on="1"/>
        <pt x="842" y="1588" on="1"/>
        <pt x="842" y="226" on="1"/>
      </contour>
      <contour>
        <pt x="284" y="368" on="1"/>
        <pt x="700" y="368" on="1"/>
        <pt x="700" y="1447" on="1"/>
        <pt x="284" y="1447" on="1"/>
      </contour>
    </TTGlyph>
    <TTGlyph name="hehdoachashmeemedialarabic" xMin="142" yMin="226" xMax="842" yMax="1588">
      <contour>
        <pt x="142" y="226" on="1"/>
        <pt x="142" y="1588" on="1"/>
        <pt x="842" y="1588" on="1"/>
        <pt x="842" y="226" on="1"/>
      </contour>
      <contour>
        <pt x="284" y="368" on="1"/>
        <pt x="700" y="368" on="1"/>
        <pt x="700" y="1447" on="1"/>
        <pt x="284" y="1447" on="1"/>
      </contour>
    </TTGlyph>
    <TTGlyph name="hehfinalaltonearabic" xMin="142" yMin="226" xMax="842" yMax="1588">
      <contour>
        <pt x="142" y="226" on="1"/>
        <pt x="142" y="1588" on="1"/>
        <pt x="842" y="1588" on="1"/>
        <pt x="842" y="226" on="1"/>
      </contour>
      <contour>
        <pt x="284" y="368" on="1"/>
        <pt x="700" y="368" on="1"/>
        <pt x="700" y="1447" on="1"/>
        <pt x="284" y="1447" on="1"/>
      </contour>
    </TTGlyph>
    <TTGlyph name="hehhamzaabovefinalarabic" xMin="142" yMin="226" xMax="842" yMax="1588">
      <contour>
        <pt x="142" y="226" on="1"/>
        <pt x="142" y="1588" on="1"/>
        <pt x="842" y="1588" on="1"/>
        <pt x="842" y="226" on="1"/>
      </contour>
      <contour>
        <pt x="284" y="368" on="1"/>
        <pt x="700" y="368" on="1"/>
        <pt x="700" y="1447" on="1"/>
        <pt x="284" y="1447" on="1"/>
      </contour>
    </TTGlyph>
    <TTGlyph name="hehinitialaltonearabic" xMin="142" yMin="226" xMax="842" yMax="1588">
      <contour>
        <pt x="142" y="226" on="1"/>
        <pt x="142" y="1588" on="1"/>
        <pt x="842" y="1588" on="1"/>
        <pt x="842" y="226" on="1"/>
      </contour>
      <contour>
        <pt x="284" y="368" on="1"/>
        <pt x="700" y="368" on="1"/>
        <pt x="700" y="1447" on="1"/>
        <pt x="284" y="1447" on="1"/>
      </contour>
    </TTGlyph>
    <TTGlyph name="hehmedialaltonearabic" xMin="142" yMin="226" xMax="842" yMax="1588">
      <contour>
        <pt x="142" y="226" on="1"/>
        <pt x="142" y="1588" on="1"/>
        <pt x="842" y="1588" on="1"/>
        <pt x="842" y="226" on="1"/>
      </contour>
      <contour>
        <pt x="284" y="368" on="1"/>
        <pt x="700" y="368" on="1"/>
        <pt x="700" y="1447" on="1"/>
        <pt x="284" y="1447" on="1"/>
      </contour>
    </TTGlyph>
    <TTGlyph name="hyphen" xMin="122" yMin="-434" xMax="4186" yMax="1665">
      <contour>
        <pt x="4186" y="1485" on="1"/>
        <pt x="4186" y="1441" on="0"/>
        <pt x="4039" y="1347" on="1"/>
        <pt x="3958" y="1299" on="0"/>
        <pt x="3876" y="1252" on="1"/>
        <pt x="3769" y="1183" on="0"/>
        <pt x="3627" y="1112" on="1"/>
        <pt x="3613" y="1126" on="0"/>
        <pt x="3613" y="1148" on="1"/>
        <pt x="3613" y="1185" on="0"/>
        <pt x="3696" y="1235" on="1"/>
        <pt x="3754" y="1266" on="0"/>
        <pt x="3810" y="1298" on="1"/>
        <pt x="3918" y="1369" on="0"/>
        <pt x="4139" y="1511" on="1"/>
        <pt x="4174" y="1511" on="1"/>
        <pt x="4186" y="1509" on="0"/>
      </contour>
      <contour>
        <pt x="3520" y="1458" on="1"/>
        <pt x="3517" y="1426" on="0"/>
        <pt x="3495" y="1379" on="1"/>
        <pt x="3346" y="1266" on="0"/>
        <pt x="2981" y="1051" on="1"/>
        <pt x="2981" y="1054" on="0"/>
        <pt x="2968" y="1067" on="0"/>
        <pt x="2968" y="1081" on="1"/>
        <pt x="2968" y="1134" on="0"/>
        <pt x="3110" y="1226" on="1"/>
        <pt x="3189" y="1272" on="0"/>
        <pt x="3267" y="1318" on="1"/>
        <pt x="3337" y="1366" on="0"/>
        <pt x="3473" y="1458" on="1"/>
      </contour>
      <contour>
        <pt x="4186" y="251" on="1"/>
        <pt x="4186" y="98" on="0"/>
        <pt x="4099" y="-58" on="1"/>
        <pt x="4022" y="-196" on="0"/>
        <pt x="3908" y="-287" on="1"/>
        <pt x="3872" y="-315" on="0"/>
        <pt x="3834" y="-318" on="1"/>
        <pt x="3593" y="-342" on="0"/>
        <pt x="3603" y="-342" on="1"/>
        <pt x="3590" y="-342" on="0"/>
        <pt x="3451" y="-331" on="0"/>
        <pt x="3439" y="-331" on="1"/>
        <pt x="3387" y="-331" on="0"/>
        <pt x="3367" y="-285" on="1"/>
        <pt x="3374" y="-267" on="0"/>
        <pt x="3397" y="-264" on="1"/>
        <pt x="3412" y="-261" on="0"/>
        <pt x="3441" y="-265" on="1"/>
        <pt x="3474" y="-270" on="0"/>
        <pt x="3480" y="-270" on="1"/>
        <pt x="3552" y="-270" on="0"/>
        <pt x="3721" y="-225" on="0"/>
        <pt x="3821" y="-176" on="1"/>
        <pt x="3898" y="-138" on="0"/>
        <pt x="3998" y="-13" on="1"/>
        <pt x="4104" y="118" on="0"/>
        <pt x="4104" y="190" on="1"/>
        <pt x="4104" y="215" on="0"/>
        <pt x="4099" y="221" on="1"/>
        <pt x="3994" y="139" on="0"/>
        <pt x="3976" y="139" on="1"/>
        <pt x="3918" y="139" on="0"/>
        <pt x="3871" y="193" on="1"/>
        <pt x="3828" y="243" on="0"/>
        <pt x="3828" y="297" on="1"/>
        <pt x="3828" y="361" on="0"/>
        <pt x="3867" y="452" on="1"/>
        <pt x="3918" y="569" on="0"/>
        <pt x="3992" y="569" on="1"/>
        <pt x="3997" y="569" on="0"/>
        <pt x="4061" y="534" on="1"/>
        <pt x="4079" y="523" on="0"/>
        <pt x="4100" y="487" on="1"/>
        <pt x="4134" y="427" on="0"/>
        <pt x="4137" y="424" on="1"/>
        <pt x="4186" y="353" on="0"/>
      </contour>
      <contour>
        <pt x="2487" y="1102" on="1"/>
        <pt x="2487" y="1050" on="0"/>
        <pt x="2435" y="1050" on="1"/>
        <pt x="2422" y="1050" on="0"/>
        <pt x="2356" y="1091" on="0"/>
        <pt x="2344" y="1091" on="1"/>
        <pt x="2317" y="1091" on="0"/>
        <pt x="2263" y="1031" on="1"/>
        <pt x="2103" y="856" on="0"/>
        <pt x="1968" y="856" on="1"/>
        <pt x="1955" y="856" on="0"/>
        <pt x="1946" y="858" on="1"/>
        <pt x="1946" y="886" on="0"/>
        <pt x="2005" y="934" on="1"/>
        <pt x="2053" y="967" on="0"/>
        <pt x="2100" y="1001" on="1"/>
        <pt x="2145" y="1040" on="0"/>
        <pt x="2241" y="1119" on="1"/>
        <pt x="2236" y="1142" on="0"/>
        <pt x="2162" y="1196" on="1"/>
        <pt x="2162" y="1205" on="0"/>
        <pt x="2149" y="1262" on="0"/>
        <pt x="2149" y="1275" on="1"/>
        <pt x="2149" y="1312" on="0"/>
        <pt x="2199" y="1383" on="1"/>
        <pt x="2253" y="1460" on="0"/>
        <pt x="2297" y="1460" on="1"/>
        <pt x="2348" y="1460" on="0"/>
        <pt x="2367" y="1370" on="1"/>
        <pt x="2383" y="1294" on="0"/>
        <pt x="2370" y="1241" on="1"/>
        <pt x="2387" y="1217" on="0"/>
        <pt x="2447" y="1167" on="1"/>
        <pt x="2487" y="1132" on="0"/>
      </contour>
      <contour>
        <pt x="3541" y="338" on="1"/>
        <pt x="3541" y="215" on="0"/>
        <pt x="3469" y="70" on="1"/>
        <pt x="3392" y="-84" on="0"/>
        <pt x="3269" y="-185" on="1"/>
        <pt x="3221" y="-223" on="0"/>
        <pt x="3097" y="-249" on="0"/>
        <pt x="2988" y="-249" on="1"/>
        <pt x="2938" y="-249" on="0"/>
        <pt x="2694" y="-216" on="1"/>
        <pt x="2683" y="-208" on="0"/>
        <pt x="2662" y="-171" on="1"/>
        <pt x="2671" y="-167" on="0"/>
        <pt x="2784" y="-167" on="1"/>
        <pt x="2929" y="-167" on="0"/>
        <pt x="3054" y="-135" on="1"/>
        <pt x="3115" y="-118" on="0"/>
        <pt x="3246" y="-22" on="1"/>
        <pt x="3283" y="4" on="0"/>
        <pt x="3368" y="115" on="1"/>
        <pt x="3459" y="234" on="0"/>
        <pt x="3459" y="272" on="1"/>
        <pt x="3459" y="331" on="0"/>
        <pt x="3310" y="447" on="1"/>
        <pt x="3285" y="467" on="0"/>
        <pt x="3285" y="513" on="1"/>
        <pt x="3285" y="560" on="0"/>
        <pt x="3319" y="609" on="1"/>
        <pt x="3350" y="609" on="1"/>
        <pt x="3386" y="610" on="0"/>
        <pt x="3541" y="437" on="0"/>
      </contour>
      <contour>
        <pt x="1340" y="1633" on="1"/>
        <pt x="1340" y="1590" on="0"/>
        <pt x="1142" y="1437" on="1"/>
        <pt x="991" y="1319" on="0"/>
        <pt x="904" y="1266" on="1"/>
        <pt x="890" y="1280" on="0"/>
        <pt x="890" y="1301" on="1"/>
        <pt x="890" y="1348" on="0"/>
        <pt x="1089" y="1506" on="1"/>
        <pt x="1196" y="1585" on="0"/>
        <pt x="1302" y="1665" on="1"/>
        <pt x="1340" y="1665" on="0"/>
      </contour>
      <contour>
        <pt x="2896" y="338" on="1"/>
        <pt x="2896" y="249" on="0"/>
        <pt x="2840" y="143" on="1"/>
        <pt x="2797" y="119" on="0"/>
        <pt x="2752" y="119" on="1"/>
        <pt x="2740" y="119" on="0"/>
        <pt x="2607" y="149" on="0"/>
        <pt x="2594" y="149" on="1"/>
        <pt x="2586" y="149" on="0"/>
        <pt x="2546" y="113" on="1"/>
        <pt x="2503" y="75" on="0"/>
        <pt x="2483" y="70" on="1"/>
        <pt x="2421" y="57" on="0"/>
        <pt x="2374" y="57" on="1"/>
        <pt x="2361" y="57" on="0"/>
        <pt x="2228" y="119" on="0"/>
        <pt x="2215" y="119" on="1"/>
        <pt x="2203" y="119" on="0"/>
        <pt x="2181" y="93" on="1"/>
        <pt x="2156" y="65" on="0"/>
        <pt x="2145" y="60" on="1"/>
        <pt x="2087" y="48" on="0"/>
        <pt x="1982" y="13" on="1"/>
        <pt x="1964" y="4" on="0"/>
        <pt x="1954" y="-27" on="1"/>
        <pt x="1946" y="-49" on="0"/>
        <pt x="1940" y="-72" on="1"/>
        <pt x="1907" y="-155" on="0"/>
        <pt x="1821" y="-261" on="1"/>
        <pt x="1716" y="-389" on="0"/>
        <pt x="1623" y="-421" on="1"/>
        <pt x="1584" y="-434" on="0"/>
        <pt x="1478" y="-434" on="1"/>
        <pt x="1346" y="-434" on="0"/>
        <pt x="1167" y="-401" on="1"/>
        <pt x="1167" y="-398" on="0"/>
        <pt x="1156" y="-367" on="0"/>
        <pt x="1156" y="-355" on="1"/>
        <pt x="1169" y="-339" on="1"/>
        <pt x="1197" y="-335" on="0"/>
        <pt x="1267" y="-343" on="1"/>
        <pt x="1348" y="-352" on="0"/>
        <pt x="1350" y="-352" on="1"/>
        <pt x="1560" y="-352" on="0"/>
        <pt x="1774" y="-132" on="1"/>
        <pt x="1803" y="-107" on="0"/>
        <pt x="1832" y="-58" on="1"/>
        <pt x="1832" y="-12" on="1"/>
        <pt x="1757" y="2" on="0"/>
        <pt x="1683" y="17" on="1"/>
        <pt x="1575" y="51" on="0"/>
        <pt x="1575" y="144" on="1"/>
        <pt x="1575" y="216" on="0"/>
        <pt x="1625" y="308" on="1"/>
        <pt x="1684" y="415" on="0"/>
        <pt x="1760" y="415" on="1"/>
        <pt x="1820" y="415" on="0"/>
        <pt x="1882" y="313" on="1"/>
        <pt x="1926" y="240" on="0"/>
        <pt x="1936" y="197" on="1"/>
        <pt x="1944" y="186" on="0"/>
        <pt x="1961" y="170" on="1"/>
        <pt x="2075" y="181" on="0"/>
        <pt x="2104" y="188" on="1"/>
        <pt x="2186" y="210" on="0"/>
        <pt x="2227" y="270" on="1"/>
        <pt x="2240" y="298" on="0"/>
        <pt x="2254" y="326" on="1"/>
        <pt x="2273" y="363" on="0"/>
        <pt x="2310" y="374" on="1"/>
        <pt x="2311" y="369" on="0"/>
        <pt x="2311" y="209" on="1"/>
        <pt x="2314" y="209" on="0"/>
        <pt x="2334" y="201" on="0"/>
        <pt x="2349" y="201" on="1"/>
        <pt x="2391" y="201" on="0"/>
        <pt x="2464" y="222" on="1"/>
        <pt x="2544" y="246" on="0"/>
        <pt x="2555" y="270" on="1"/>
        <pt x="2575" y="327" on="0"/>
        <pt x="2594" y="385" on="1"/>
        <pt x="2616" y="448" on="0"/>
        <pt x="2646" y="456" on="1"/>
        <pt x="2660" y="445" on="0"/>
        <pt x="2670" y="445" on="1"/>
        <pt x="2670" y="430" on="0"/>
        <pt x="2661" y="351" on="0"/>
        <pt x="2661" y="338" on="1"/>
        <pt x="2661" y="292" on="0"/>
        <pt x="2698" y="292" on="1"/>
        <pt x="2777" y="292" on="1"/>
        <pt x="2798" y="305" on="0"/>
        <pt x="2798" y="330" on="1"/>
        <pt x="2798" y="349" on="0"/>
        <pt x="2773" y="411" on="0"/>
        <pt x="2773" y="415" on="1"/>
        <pt x="2773" y="461" on="0"/>
        <pt x="2818" y="528" on="1"/>
        <pt x="2852" y="517" on="0"/>
        <pt x="2875" y="455" on="1"/>
        <pt x="2896" y="399" on="0"/>
      </contour>
      <contour>
        <pt x="787" y="1209" on="1"/>
        <pt x="787" y="1194" on="0"/>
        <pt x="776" y="1168" on="0"/>
        <pt x="776" y="1165" on="1"/>
        <pt x="756" y="1158" on="0"/>
        <pt x="736" y="1158" on="1"/>
        <pt x="717" y="1158" on="0"/>
        <pt x="662" y="1173" on="0"/>
        <pt x="654" y="1173" on="1"/>
        <pt x="643" y="1173" on="0"/>
        <pt x="570" y="1102" on="1"/>
        <pt x="486" y="1018" on="0"/>
        <pt x="447" y="992" on="1"/>
        <pt x="410" y="976" on="0"/>
        <pt x="343" y="938" on="1"/>
        <pt x="298" y="938" on="1"/>
        <pt x="285" y="940" on="0"/>
        <pt x="285" y="963" on="1"/>
        <pt x="285" y="979" on="0"/>
        <pt x="422" y="1094" on="1"/>
        <pt x="526" y="1183" on="0"/>
        <pt x="562" y="1210" on="1"/>
        <pt x="547" y="1235" on="0"/>
        <pt x="481" y="1277" on="1"/>
        <pt x="478" y="1384" on="0"/>
        <pt x="494" y="1407" on="1"/>
        <pt x="586" y="1532" on="0"/>
        <pt x="628" y="1532" on="1"/>
        <pt x="700" y="1532" on="0"/>
        <pt x="700" y="1416" on="1"/>
        <pt x="700" y="1395" on="0"/>
        <pt x="694" y="1327" on="0"/>
        <pt x="694" y="1319" on="1"/>
        <pt x="694" y="1307" on="0"/>
        <pt x="696" y="1304" on="1"/>
        <pt x="701" y="1298" on="0"/>
        <pt x="750" y="1257" on="1"/>
        <pt x="787" y="1224" on="0"/>
      </contour>
      <contour>
        <pt x="1309" y="267" on="1"/>
        <pt x="1309" y="91" on="0"/>
        <pt x="1204" y="-44" on="1"/>
        <pt x="1177" y="-49" on="0"/>
        <pt x="1148" y="-49" on="1"/>
        <pt x="1051" y="-49" on="0"/>
        <pt x="972" y="0" on="1"/>
        <pt x="882" y="57" on="0"/>
        <pt x="852" y="160" on="1"/>
        <pt x="812" y="116" on="0"/>
        <pt x="727" y="43" on="1"/>
        <pt x="682" y="16" on="0"/>
        <pt x="608" y="16" on="1"/>
        <pt x="496" y="16" on="0"/>
        <pt x="439" y="70" on="1"/>
        <pt x="443" y="200" on="0"/>
        <pt x="656" y="380" on="1"/>
        <pt x="658" y="382" on="0"/>
        <pt x="721" y="419" on="1"/>
        <pt x="768" y="446" on="0"/>
        <pt x="784" y="474" on="1"/>
        <pt x="794" y="492" on="0"/>
        <pt x="801" y="551" on="1"/>
        <pt x="810" y="620" on="0"/>
        <pt x="820" y="650" on="1"/>
        <pt x="850" y="650" on="0"/>
        <pt x="865" y="627" on="1"/>
        <pt x="882" y="429" on="0"/>
        <pt x="953" y="238" on="1"/>
        <pt x="968" y="197" on="0"/>
        <pt x="1027" y="154" on="1"/>
        <pt x="1089" y="108" on="0"/>
        <pt x="1140" y="108" on="1"/>
        <pt x="1223" y="108" on="0"/>
        <pt x="1217" y="184" on="1"/>
        <pt x="1074" y="1055" on="1"/>
        <pt x="1091" y="1191" on="0"/>
        <pt x="1160" y="1275" on="1"/>
        <pt x="1193" y="1256" on="0"/>
        <pt x="1196" y="1199" on="1"/>
        <pt x="1198" y="1154" on="0"/>
        <pt x="1198" y="1109" on="1"/>
        <pt x="1223" y="1094" on="0"/>
        <pt x="1268" y="1058" on="1"/>
        <pt x="1268" y="1022" on="0"/>
        <pt x="1264" y="1013" on="1"/>
        <pt x="1227" y="932" on="0"/>
        <pt x="1227" y="830" on="1"/>
        <pt x="1227" y="818" on="0"/>
        <pt x="1309" y="280" on="0"/>
      </contour>
      <contour>
        <pt x="367" y="185" on="1"/>
        <pt x="367" y="70" on="0"/>
        <pt x="279" y="0" on="1"/>
        <pt x="224" y="-45" on="0"/>
        <pt x="187" y="-43" on="1"/>
        <pt x="122" y="-43" on="1"/>
        <pt x="178" y="10" on="0"/>
        <pt x="275" y="114" on="1"/>
        <pt x="274" y="116" on="0"/>
        <pt x="227" y="121" on="1"/>
        <pt x="183" y="160" on="0"/>
        <pt x="183" y="196" on="1"/>
        <pt x="183" y="215" on="0"/>
        <pt x="216" y="270" on="1"/>
        <pt x="255" y="333" on="0"/>
        <pt x="291" y="333" on="1"/>
        <pt x="355" y="333" on="0"/>
      </contour>
      <contour>
        <pt x="4033" y="350" on="1"/>
        <pt x="4016" y="372" on="0"/>
        <pt x="3989" y="415" on="1"/>
        <pt x="3953" y="415" on="1"/>
        <pt x="3953" y="411" on="0"/>
        <pt x="3930" y="379" on="0"/>
        <pt x="3930" y="365" on="1"/>
        <pt x="3930" y="346" on="0"/>
        <pt x="3971" y="313" on="0"/>
        <pt x="3992" y="313" on="1"/>
        <pt x="4007" y="313" on="0"/>
        <pt x="4021" y="328" on="1"/>
        <pt x="4033" y="342" on="0"/>
      </contour>
      <contour>
        <pt x="2299" y="1245" on="1"/>
        <pt x="2313" y="1287" on="0"/>
        <pt x="2289" y="1337" on="1"/>
        <pt x="2241" y="1313" on="0"/>
        <pt x="2241" y="1291" on="1"/>
        <pt x="2241" y="1270" on="0"/>
      </contour>
      <contour>
        <pt x="632" y="1407" on="1"/>
        <pt x="573" y="1389" on="0"/>
        <pt x="573" y="1348" on="1"/>
        <pt x="577" y="1348" on="0"/>
        <pt x="609" y="1327" on="0"/>
        <pt x="623" y="1327" on="1"/>
        <pt x="635" y="1327" on="0"/>
        <pt x="636" y="1344" on="1"/>
        <pt x="638" y="1357" on="0"/>
        <pt x="632" y="1407" on="0"/>
      </contour>
      <contour>
        <pt x="1789" y="177" on="1"/>
        <pt x="1760" y="251" on="0"/>
        <pt x="1729" y="251" on="1"/>
        <pt x="1710" y="251" on="0"/>
        <pt x="1678" y="215" on="1"/>
        <pt x="1688" y="206" on="0"/>
        <pt x="1691" y="191" on="1"/>
        <pt x="1676" y="191" on="0"/>
      </contour>
      <contour>
        <pt x="828" y="272" on="1"/>
        <pt x="828" y="287" on="0"/>
        <pt x="812" y="314" on="1"/>
        <pt x="793" y="343" on="0"/>
        <pt x="771" y="354" on="1"/>
        <pt x="767" y="351" on="0"/>
        <pt x="668" y="289" on="1"/>
        <pt x="596" y="245" on="0"/>
        <pt x="582" y="205" on="1"/>
        <pt x="606" y="180" on="1"/>
        <pt x="740" y="180" on="1"/>
        <pt x="759" y="180" on="0"/>
        <pt x="828" y="258" on="0"/>
      </contour>
    </TTGlyph>
    <TTGlyph name="irghizufinal" xMin="142" yMin="226" xMax="842" yMax="1588">
      <contour>
        <pt x="142" y="226" on="1"/>
        <pt x="142" y="1588" on="1"/>
        <pt x="842" y="1588" on="1"/>
        <pt x="842" y="226" on="1"/>
      </contour>
      <contour>
        <pt x="284" y="368" on="1"/>
        <pt x="700" y="368" on="1"/>
        <pt x="700" y="1447" on="1"/>
        <pt x="284" y="1447" on="1"/>
      </contour>
    </TTGlyph>
    <TTGlyph name="jehfinalarabic" xMin="142" yMin="226" xMax="842" yMax="1588">
      <contour>
        <pt x="142" y="226" on="1"/>
        <pt x="142" y="1588" on="1"/>
        <pt x="842" y="1588" on="1"/>
        <pt x="842" y="226" on="1"/>
      </contour>
      <contour>
        <pt x="284" y="368" on="1"/>
        <pt x="700" y="368" on="1"/>
        <pt x="700" y="1447" on="1"/>
        <pt x="284" y="1447" on="1"/>
      </contour>
    </TTGlyph>
    <TTGlyph name="kafringfinal" xMin="142" yMin="226" xMax="842" yMax="1588">
      <contour>
        <pt x="142" y="226" on="1"/>
        <pt x="142" y="1588" on="1"/>
        <pt x="842" y="1588" on="1"/>
        <pt x="842" y="226" on="1"/>
      </contour>
      <contour>
        <pt x="284" y="368" on="1"/>
        <pt x="700" y="368" on="1"/>
        <pt x="700" y="1447" on="1"/>
        <pt x="284" y="1447" on="1"/>
      </contour>
    </TTGlyph>
    <TTGlyph name="kafringinitial" xMin="142" yMin="226" xMax="842" yMax="1588">
      <contour>
        <pt x="142" y="226" on="1"/>
        <pt x="142" y="1588" on="1"/>
        <pt x="842" y="1588" on="1"/>
        <pt x="842" y="226" on="1"/>
      </contour>
      <contour>
        <pt x="284" y="368" on="1"/>
        <pt x="700" y="368" on="1"/>
        <pt x="700" y="1447" on="1"/>
        <pt x="284" y="1447" on="1"/>
      </contour>
    </TTGlyph>
    <TTGlyph name="kafringmedial" xMin="142" yMin="226" xMax="842" yMax="1588">
      <contour>
        <pt x="142" y="226" on="1"/>
        <pt x="142" y="1588" on="1"/>
        <pt x="842" y="1588" on="1"/>
        <pt x="842" y="226" on="1"/>
      </contour>
      <contour>
        <pt x="284" y="368" on="1"/>
        <pt x="700" y="368" on="1"/>
        <pt x="700" y="1447" on="1"/>
        <pt x="284" y="1447" on="1"/>
      </contour>
    </TTGlyph>
    <TTGlyph name="kashidaautoarabic" xMin="142" yMin="226" xMax="842" yMax="1588">
      <contour>
        <pt x="142" y="226" on="1"/>
        <pt x="142" y="1588" on="1"/>
        <pt x="842" y="1588" on="1"/>
        <pt x="842" y="226" on="1"/>
      </contour>
      <contour>
        <pt x="284" y="368" on="1"/>
        <pt x="700" y="368" on="1"/>
        <pt x="700" y="1447" on="1"/>
        <pt x="284" y="1447" on="1"/>
      </contour>
    </TTGlyph>
    <TTGlyph name="kashidaautonosidebearingarabic" xMin="142" yMin="226" xMax="842" yMax="1588">
      <contour>
        <pt x="142" y="226" on="1"/>
        <pt x="142" y="1588" on="1"/>
        <pt x="842" y="1588" on="1"/>
        <pt x="842" y="226" on="1"/>
      </contour>
      <contour>
        <pt x="284" y="368" on="1"/>
        <pt x="700" y="368" on="1"/>
        <pt x="700" y="1447" on="1"/>
        <pt x="284" y="1447" on="1"/>
      </contour>
    </TTGlyph>
    <TTGlyph name="kehehfinalarabic" xMin="142" yMin="226" xMax="842" yMax="1588">
      <contour>
        <pt x="142" y="226" on="1"/>
        <pt x="142" y="1588" on="1"/>
        <pt x="842" y="1588" on="1"/>
        <pt x="842" y="226" on="1"/>
      </contour>
      <contour>
        <pt x="284" y="368" on="1"/>
        <pt x="700" y="368" on="1"/>
        <pt x="700" y="1447" on="1"/>
        <pt x="284" y="1447" on="1"/>
      </contour>
    </TTGlyph>
    <TTGlyph name="kehehinitialarabic" xMin="142" yMin="226" xMax="842" yMax="1588">
      <contour>
        <pt x="142" y="226" on="1"/>
        <pt x="142" y="1588" on="1"/>
        <pt x="842" y="1588" on="1"/>
        <pt x="842" y="226" on="1"/>
      </contour>
      <contour>
        <pt x="284" y="368" on="1"/>
        <pt x="700" y="368" on="1"/>
        <pt x="700" y="1447" on="1"/>
        <pt x="284" y="1447" on="1"/>
      </contour>
    </TTGlyph>
    <TTGlyph name="kehehmedialarabic" xMin="142" yMin="226" xMax="842" yMax="1588">
      <contour>
        <pt x="142" y="226" on="1"/>
        <pt x="142" y="1588" on="1"/>
        <pt x="842" y="1588" on="1"/>
        <pt x="842" y="226" on="1"/>
      </contour>
      <contour>
        <pt x="284" y="368" on="1"/>
        <pt x="700" y="368" on="1"/>
        <pt x="700" y="1447" on="1"/>
        <pt x="284" y="1447" on="1"/>
      </contour>
    </TTGlyph>
    <TTGlyph name="kirghizyifinal" xMin="142" yMin="226" xMax="842" yMax="1588">
      <contour>
        <pt x="142" y="226" on="1"/>
        <pt x="142" y="1588" on="1"/>
        <pt x="842" y="1588" on="1"/>
        <pt x="842" y="226" on="1"/>
      </contour>
      <contour>
        <pt x="284" y="368" on="1"/>
        <pt x="700" y="368" on="1"/>
        <pt x="700" y="1447" on="1"/>
        <pt x="284" y="1447" on="1"/>
      </contour>
    </TTGlyph>
    <TTGlyph name="lammeemjeeminitialarabic" xMin="142" yMin="226" xMax="842" yMax="1588">
      <contour>
        <pt x="142" y="226" on="1"/>
        <pt x="142" y="1588" on="1"/>
        <pt x="842" y="1588" on="1"/>
        <pt x="842" y="226" on="1"/>
      </contour>
      <contour>
        <pt x="284" y="368" on="1"/>
        <pt x="700" y="368" on="1"/>
        <pt x="700" y="1447" on="1"/>
        <pt x="284" y="1447" on="1"/>
      </contour>
    </TTGlyph>
    <TTGlyph name="lammeemkhahinitialarabic" xMin="142" yMin="226" xMax="842" yMax="1588">
      <contour>
        <pt x="142" y="226" on="1"/>
        <pt x="142" y="1588" on="1"/>
        <pt x="842" y="1588" on="1"/>
        <pt x="842" y="226" on="1"/>
      </contour>
      <contour>
        <pt x="284" y="368" on="1"/>
        <pt x="700" y="368" on="1"/>
        <pt x="700" y="1447" on="1"/>
        <pt x="284" y="1447" on="1"/>
      </contour>
    </TTGlyph>
    <TTGlyph name="lamthreedotsabovefinal" xMin="142" yMin="226" xMax="842" yMax="1588">
      <contour>
        <pt x="142" y="226" on="1"/>
        <pt x="142" y="1588" on="1"/>
        <pt x="842" y="1588" on="1"/>
        <pt x="842" y="226" on="1"/>
      </contour>
      <contour>
        <pt x="284" y="368" on="1"/>
        <pt x="700" y="368" on="1"/>
        <pt x="700" y="1447" on="1"/>
        <pt x="284" y="1447" on="1"/>
      </contour>
    </TTGlyph>
    <TTGlyph name="lamthreedotsaboveinitial" xMin="142" yMin="226" xMax="842" yMax="1588">
      <contour>
        <pt x="142" y="226" on="1"/>
        <pt x="142" y="1588" on="1"/>
        <pt x="842" y="1588" on="1"/>
        <pt x="842" y="226" on="1"/>
      </contour>
      <contour>
        <pt x="284" y="368" on="1"/>
        <pt x="700" y="368" on="1"/>
        <pt x="700" y="1447" on="1"/>
        <pt x="284" y="1447" on="1"/>
      </contour>
    </TTGlyph>
    <TTGlyph name="lamthreedotsabovemedial" xMin="142" yMin="226" xMax="842" yMax="1588">
      <contour>
        <pt x="142" y="226" on="1"/>
        <pt x="142" y="1588" on="1"/>
        <pt x="842" y="1588" on="1"/>
        <pt x="842" y="226" on="1"/>
      </contour>
      <contour>
        <pt x="284" y="368" on="1"/>
        <pt x="700" y="368" on="1"/>
        <pt x="700" y="1447" on="1"/>
        <pt x="284" y="1447" on="1"/>
      </contour>
    </TTGlyph>
    <TTGlyph name="less" xMin="142" yMin="226" xMax="842" yMax="1588">
      <contour>
        <pt x="142" y="226" on="1"/>
        <pt x="142" y="1588" on="1"/>
        <pt x="842" y="1588" on="1"/>
        <pt x="842" y="226" on="1"/>
      </contour>
      <contour>
        <pt x="284" y="368" on="1"/>
        <pt x="700" y="368" on="1"/>
        <pt x="700" y="1447" on="1"/>
        <pt x="284" y="1447" on="1"/>
      </contour>
    </TTGlyph>
    <TTGlyph name="meemmeemisolatedarabic" xMin="142" yMin="226" xMax="842" yMax="1588">
      <contour>
        <pt x="142" y="226" on="1"/>
        <pt x="142" y="1588" on="1"/>
        <pt x="842" y="1588" on="1"/>
        <pt x="842" y="226" on="1"/>
      </contour>
      <contour>
        <pt x="284" y="368" on="1"/>
        <pt x="700" y="368" on="1"/>
        <pt x="700" y="1447" on="1"/>
        <pt x="284" y="1447" on="1"/>
      </contour>
    </TTGlyph>
    <TTGlyph name="multiply" xMin="142" yMin="226" xMax="842" yMax="1588">
      <contour>
        <pt x="142" y="226" on="1"/>
        <pt x="142" y="1588" on="1"/>
        <pt x="842" y="1588" on="1"/>
        <pt x="842" y="226" on="1"/>
      </contour>
      <contour>
        <pt x="284" y="368" on="1"/>
        <pt x="700" y="368" on="1"/>
        <pt x="700" y="1447" on="1"/>
        <pt x="284" y="1447" on="1"/>
      </contour>
    </TTGlyph>
    <TTGlyph name="noonghunnafinalarabic" xMin="142" yMin="226" xMax="842" yMax="1588">
      <contour>
        <pt x="142" y="226" on="1"/>
        <pt x="142" y="1588" on="1"/>
        <pt x="842" y="1588" on="1"/>
        <pt x="842" y="226" on="1"/>
      </contour>
      <contour>
        <pt x="284" y="368" on="1"/>
        <pt x="700" y="368" on="1"/>
        <pt x="700" y="1447" on="1"/>
        <pt x="284" y="1447" on="1"/>
      </contour>
    </TTGlyph>
    <TTGlyph name="noonjeemisolatedarabic" xMin="142" yMin="226" xMax="842" yMax="1588">
      <contour>
        <pt x="142" y="226" on="1"/>
        <pt x="142" y="1588" on="1"/>
        <pt x="842" y="1588" on="1"/>
        <pt x="842" y="226" on="1"/>
      </contour>
      <contour>
        <pt x="284" y="368" on="1"/>
        <pt x="700" y="368" on="1"/>
        <pt x="700" y="1447" on="1"/>
        <pt x="284" y="1447" on="1"/>
      </contour>
    </TTGlyph>
    <TTGlyph name="noonmeemisolatedarabic" xMin="142" yMin="226" xMax="842" yMax="1588">
      <contour>
        <pt x="142" y="226" on="1"/>
        <pt x="142" y="1588" on="1"/>
        <pt x="842" y="1588" on="1"/>
        <pt x="842" y="226" on="1"/>
      </contour>
      <contour>
        <pt x="284" y="368" on="1"/>
        <pt x="700" y="368" on="1"/>
        <pt x="700" y="1447" on="1"/>
        <pt x="284" y="1447" on="1"/>
      </contour>
    </TTGlyph>
    <TTGlyph name="noonringfinal" xMin="142" yMin="226" xMax="842" yMax="1588">
      <contour>
        <pt x="142" y="226" on="1"/>
        <pt x="142" y="1588" on="1"/>
        <pt x="842" y="1588" on="1"/>
        <pt x="842" y="226" on="1"/>
      </contour>
      <contour>
        <pt x="284" y="368" on="1"/>
        <pt x="700" y="368" on="1"/>
        <pt x="700" y="1447" on="1"/>
        <pt x="284" y="1447" on="1"/>
      </contour>
    </TTGlyph>
    <TTGlyph name="noonringinitial" xMin="142" yMin="226" xMax="842" yMax="1588">
      <contour>
        <pt x="142" y="226" on="1"/>
        <pt x="142" y="1588" on="1"/>
        <pt x="842" y="1588" on="1"/>
        <pt x="842" y="226" on="1"/>
      </contour>
      <contour>
        <pt x="284" y="368" on="1"/>
        <pt x="700" y="368" on="1"/>
        <pt x="700" y="1447" on="1"/>
        <pt x="284" y="1447" on="1"/>
      </contour>
    </TTGlyph>
    <TTGlyph name="noonringmedial" xMin="142" yMin="226" xMax="842" yMax="1588">
      <contour>
        <pt x="142" y="226" on="1"/>
        <pt x="142" y="1588" on="1"/>
        <pt x="842" y="1588" on="1"/>
        <pt x="842" y="226" on="1"/>
      </contour>
      <contour>
        <pt x="284" y="368" on="1"/>
        <pt x="700" y="368" on="1"/>
        <pt x="700" y="1447" on="1"/>
        <pt x="284" y="1447" on="1"/>
      </contour>
    </TTGlyph>
    <TTGlyph name="numbersign" xMin="142" yMin="226" xMax="842" yMax="1588">
      <contour>
        <pt x="142" y="226" on="1"/>
        <pt x="142" y="1588" on="1"/>
        <pt x="842" y="1588" on="1"/>
        <pt x="842" y="226" on="1"/>
      </contour>
      <contour>
        <pt x="284" y="368" on="1"/>
        <pt x="700" y="368" on="1"/>
        <pt x="700" y="1447" on="1"/>
        <pt x="284" y="1447" on="1"/>
      </contour>
    </TTGlyph>
    <TTGlyph name="parenleft" xMin="142" yMin="226" xMax="842" yMax="1588">
      <contour>
        <pt x="142" y="226" on="1"/>
        <pt x="142" y="1588" on="1"/>
        <pt x="842" y="1588" on="1"/>
        <pt x="842" y="226" on="1"/>
      </contour>
      <contour>
        <pt x="284" y="368" on="1"/>
        <pt x="700" y="368" on="1"/>
        <pt x="700" y="1447" on="1"/>
        <pt x="284" y="1447" on="1"/>
      </contour>
    </TTGlyph>
    <TTGlyph name="parenright" xMin="142" yMin="226" xMax="842" yMax="1588">
      <contour>
        <pt x="142" y="226" on="1"/>
        <pt x="142" y="1588" on="1"/>
        <pt x="842" y="1588" on="1"/>
        <pt x="842" y="226" on="1"/>
      </contour>
      <contour>
        <pt x="284" y="368" on="1"/>
        <pt x="700" y="368" on="1"/>
        <pt x="700" y="1447" on="1"/>
        <pt x="284" y="1447" on="1"/>
      </contour>
    </TTGlyph>
    <TTGlyph name="pashtoefinal" xMin="142" yMin="226" xMax="842" yMax="1588">
      <contour>
        <pt x="142" y="226" on="1"/>
        <pt x="142" y="1588" on="1"/>
        <pt x="842" y="1588" on="1"/>
        <pt x="842" y="226" on="1"/>
      </contour>
      <contour>
        <pt x="284" y="368" on="1"/>
        <pt x="700" y="368" on="1"/>
        <pt x="700" y="1447" on="1"/>
        <pt x="284" y="1447" on="1"/>
      </contour>
    </TTGlyph>
    <TTGlyph name="pashtoeinitial" xMin="142" yMin="226" xMax="842" yMax="1588">
      <contour>
        <pt x="142" y="226" on="1"/>
        <pt x="142" y="1588" on="1"/>
        <pt x="842" y="1588" on="1"/>
        <pt x="842" y="226" on="1"/>
      </contour>
      <contour>
        <pt x="284" y="368" on="1"/>
        <pt x="700" y="368" on="1"/>
        <pt x="700" y="1447" on="1"/>
        <pt x="284" y="1447" on="1"/>
      </contour>
    </TTGlyph>
    <TTGlyph name="pashtoemedial" xMin="142" yMin="226" xMax="842" yMax="1588">
      <contour>
        <pt x="142" y="226" on="1"/>
        <pt x="142" y="1588" on="1"/>
        <pt x="842" y="1588" on="1"/>
        <pt x="842" y="226" on="1"/>
      </contour>
      <contour>
        <pt x="284" y="368" on="1"/>
        <pt x="700" y="368" on="1"/>
        <pt x="700" y="1447" on="1"/>
        <pt x="284" y="1447" on="1"/>
      </contour>
    </TTGlyph>
    <TTGlyph name="pehfinalarabic" xMin="142" yMin="226" xMax="842" yMax="1588">
      <contour>
        <pt x="142" y="226" on="1"/>
        <pt x="142" y="1588" on="1"/>
        <pt x="842" y="1588" on="1"/>
        <pt x="842" y="226" on="1"/>
      </contour>
      <contour>
        <pt x="284" y="368" on="1"/>
        <pt x="700" y="368" on="1"/>
        <pt x="700" y="1447" on="1"/>
        <pt x="284" y="1447" on="1"/>
      </contour>
    </TTGlyph>
    <TTGlyph name="pehinitialarabic" xMin="142" yMin="226" xMax="842" yMax="1588">
      <contour>
        <pt x="142" y="226" on="1"/>
        <pt x="142" y="1588" on="1"/>
        <pt x="842" y="1588" on="1"/>
        <pt x="842" y="226" on="1"/>
      </contour>
      <contour>
        <pt x="284" y="368" on="1"/>
        <pt x="700" y="368" on="1"/>
        <pt x="700" y="1447" on="1"/>
        <pt x="284" y="1447" on="1"/>
      </contour>
    </TTGlyph>
    <TTGlyph name="pehmedialarabic" xMin="142" yMin="226" xMax="842" yMax="1588">
      <contour>
        <pt x="142" y="226" on="1"/>
        <pt x="142" y="1588" on="1"/>
        <pt x="842" y="1588" on="1"/>
        <pt x="842" y="226" on="1"/>
      </contour>
      <contour>
        <pt x="284" y="368" on="1"/>
        <pt x="700" y="368" on="1"/>
        <pt x="700" y="1447" on="1"/>
        <pt x="284" y="1447" on="1"/>
      </contour>
    </TTGlyph>
    <TTGlyph name="percent" xMin="142" yMin="226" xMax="842" yMax="1588">
      <contour>
        <pt x="142" y="226" on="1"/>
        <pt x="142" y="1588" on="1"/>
        <pt x="842" y="1588" on="1"/>
        <pt x="842" y="226" on="1"/>
      </contour>
      <contour>
        <pt x="284" y="368" on="1"/>
        <pt x="700" y="368" on="1"/>
        <pt x="700" y="1447" on="1"/>
        <pt x="284" y="1447" on="1"/>
      </contour>
    </TTGlyph>
    <TTGlyph name="period" xMin="142" yMin="226" xMax="842" yMax="1588">
      <contour>
        <pt x="142" y="226" on="1"/>
        <pt x="142" y="1588" on="1"/>
        <pt x="842" y="1588" on="1"/>
        <pt x="842" y="226" on="1"/>
      </contour>
      <contour>
        <pt x="284" y="368" on="1"/>
        <pt x="700" y="368" on="1"/>
        <pt x="700" y="1447" on="1"/>
        <pt x="284" y="1447" on="1"/>
      </contour>
    </TTGlyph>
    <TTGlyph name="plus" xMin="142" yMin="226" xMax="842" yMax="1588">
      <contour>
        <pt x="142" y="226" on="1"/>
        <pt x="142" y="1588" on="1"/>
        <pt x="842" y="1588" on="1"/>
        <pt x="842" y="226" on="1"/>
      </contour>
      <contour>
        <pt x="284" y="368" on="1"/>
        <pt x="700" y="368" on="1"/>
        <pt x="700" y="1447" on="1"/>
        <pt x="284" y="1447" on="1"/>
      </contour>
    </TTGlyph>
    <TTGlyph name="quotedbl" xMin="142" yMin="226" xMax="842" yMax="1588">
      <contour>
        <pt x="142" y="226" on="1"/>
        <pt x="142" y="1588" on="1"/>
        <pt x="842" y="1588" on="1"/>
        <pt x="842" y="226" on="1"/>
      </contour>
      <contour>
        <pt x="284" y="368" on="1"/>
        <pt x="700" y="368" on="1"/>
        <pt x="700" y="1447" on="1"/>
        <pt x="284" y="1447" on="1"/>
      </contour>
    </TTGlyph>
    <TTGlyph name="quotesingle" xMin="142" yMin="226" xMax="842" yMax="1588">
      <contour>
        <pt x="142" y="226" on="1"/>
        <pt x="142" y="1588" on="1"/>
        <pt x="842" y="1588" on="1"/>
        <pt x="842" y="226" on="1"/>
      </contour>
      <contour>
        <pt x="284" y="368" on="1"/>
        <pt x="700" y="368" on="1"/>
        <pt x="700" y="1447" on="1"/>
        <pt x="284" y="1447" on="1"/>
      </contour>
    </TTGlyph>
    <TTGlyph name="rehdotbelowdotabovefinal" xMin="142" yMin="226" xMax="842" yMax="1588">
      <contour>
        <pt x="142" y="226" on="1"/>
        <pt x="142" y="1588" on="1"/>
        <pt x="842" y="1588" on="1"/>
        <pt x="842" y="226" on="1"/>
      </contour>
      <contour>
        <pt x="284" y="368" on="1"/>
        <pt x="700" y="368" on="1"/>
        <pt x="700" y="1447" on="1"/>
        <pt x="284" y="1447" on="1"/>
      </contour>
    </TTGlyph>
    <TTGlyph name="rehringfinal" xMin="142" yMin="226" xMax="842" yMax="1588">
      <contour>
        <pt x="142" y="226" on="1"/>
        <pt x="142" y="1588" on="1"/>
        <pt x="842" y="1588" on="1"/>
        <pt x="842" y="226" on="1"/>
      </contour>
      <contour>
        <pt x="284" y="368" on="1"/>
        <pt x="700" y="368" on="1"/>
        <pt x="700" y="1447" on="1"/>
        <pt x="284" y="1447" on="1"/>
      </contour>
    </TTGlyph>
    <TTGlyph name="rrehfinalarabic" xMin="142" yMin="226" xMax="842" yMax="1588">
      <contour>
        <pt x="142" y="226" on="1"/>
        <pt x="142" y="1588" on="1"/>
        <pt x="842" y="1588" on="1"/>
        <pt x="842" y="226" on="1"/>
      </contour>
      <contour>
        <pt x="284" y="368" on="1"/>
        <pt x="700" y="368" on="1"/>
        <pt x="700" y="1447" on="1"/>
        <pt x="284" y="1447" on="1"/>
      </contour>
    </TTGlyph>
    <TTGlyph name="seendotbelowdotabovefinal" xMin="142" yMin="226" xMax="842" yMax="1588">
      <contour>
        <pt x="142" y="226" on="1"/>
        <pt x="142" y="1588" on="1"/>
        <pt x="842" y="1588" on="1"/>
        <pt x="842" y="226" on="1"/>
      </contour>
      <contour>
        <pt x="284" y="368" on="1"/>
        <pt x="700" y="368" on="1"/>
        <pt x="700" y="1447" on="1"/>
        <pt x="284" y="1447" on="1"/>
      </contour>
    </TTGlyph>
    <TTGlyph name="seendotbelowdotaboveinitial" xMin="142" yMin="226" xMax="842" yMax="1588">
      <contour>
        <pt x="142" y="226" on="1"/>
        <pt x="142" y="1588" on="1"/>
        <pt x="842" y="1588" on="1"/>
        <pt x="842" y="226" on="1"/>
      </contour>
      <contour>
        <pt x="284" y="368" on="1"/>
        <pt x="700" y="368" on="1"/>
        <pt x="700" y="1447" on="1"/>
        <pt x="284" y="1447" on="1"/>
      </contour>
    </TTGlyph>
    <TTGlyph name="seendotbelowdotabovemedial" xMin="142" yMin="226" xMax="842" yMax="1588">
      <contour>
        <pt x="142" y="226" on="1"/>
        <pt x="142" y="1588" on="1"/>
        <pt x="842" y="1588" on="1"/>
        <pt x="842" y="226" on="1"/>
      </contour>
      <contour>
        <pt x="284" y="368" on="1"/>
        <pt x="700" y="368" on="1"/>
        <pt x="700" y="1447" on="1"/>
        <pt x="284" y="1447" on="1"/>
      </contour>
    </TTGlyph>
    <TTGlyph name="shaddadammaarabic" xMin="142" yMin="226" xMax="842" yMax="1588">
      <contour>
        <pt x="142" y="226" on="1"/>
        <pt x="142" y="1588" on="1"/>
        <pt x="842" y="1588" on="1"/>
        <pt x="842" y="226" on="1"/>
      </contour>
      <contour>
        <pt x="284" y="368" on="1"/>
        <pt x="700" y="368" on="1"/>
        <pt x="700" y="1447" on="1"/>
        <pt x="284" y="1447" on="1"/>
      </contour>
    </TTGlyph>
    <TTGlyph name="shaddadammatanarabic" xMin="142" yMin="226" xMax="842" yMax="1588">
      <contour>
        <pt x="142" y="226" on="1"/>
        <pt x="142" y="1588" on="1"/>
        <pt x="842" y="1588" on="1"/>
        <pt x="842" y="226" on="1"/>
      </contour>
      <contour>
        <pt x="284" y="368" on="1"/>
        <pt x="700" y="368" on="1"/>
        <pt x="700" y="1447" on="1"/>
        <pt x="284" y="1447" on="1"/>
      </contour>
    </TTGlyph>
    <TTGlyph name="shaddafathaarabic" xMin="142" yMin="226" xMax="842" yMax="1588">
      <contour>
        <pt x="142" y="226" on="1"/>
        <pt x="142" y="1588" on="1"/>
        <pt x="842" y="1588" on="1"/>
        <pt x="842" y="226" on="1"/>
      </contour>
      <contour>
        <pt x="284" y="368" on="1"/>
        <pt x="700" y="368" on="1"/>
        <pt x="700" y="1447" on="1"/>
        <pt x="284" y="1447" on="1"/>
      </contour>
    </TTGlyph>
    <TTGlyph name="shaddakasraarabic" xMin="142" yMin="226" xMax="842" yMax="1588">
      <contour>
        <pt x="142" y="226" on="1"/>
        <pt x="142" y="1588" on="1"/>
        <pt x="842" y="1588" on="1"/>
        <pt x="842" y="226" on="1"/>
      </contour>
      <contour>
        <pt x="284" y="368" on="1"/>
        <pt x="700" y="368" on="1"/>
        <pt x="700" y="1447" on="1"/>
        <pt x="284" y="1447" on="1"/>
      </contour>
    </TTGlyph>
    <TTGlyph name="shaddakasratanarabic" xMin="142" yMin="226" xMax="842" yMax="1588">
      <contour>
        <pt x="142" y="226" on="1"/>
        <pt x="142" y="1588" on="1"/>
        <pt x="842" y="1588" on="1"/>
        <pt x="842" y="226" on="1"/>
      </contour>
      <contour>
        <pt x="284" y="368" on="1"/>
        <pt x="700" y="368" on="1"/>
        <pt x="700" y="1447" on="1"/>
        <pt x="284" y="1447" on="1"/>
      </contour>
    </TTGlyph>
    <TTGlyph name="slash" xMin="142" yMin="226" xMax="842" yMax="1588">
      <contour>
        <pt x="142" y="226" on="1"/>
        <pt x="142" y="1588" on="1"/>
        <pt x="842" y="1588" on="1"/>
        <pt x="842" y="226" on="1"/>
      </contour>
      <contour>
        <pt x="284" y="368" on="1"/>
        <pt x="700" y="368" on="1"/>
        <pt x="700" y="1447" on="1"/>
        <pt x="284" y="1447" on="1"/>
      </contour>
    </TTGlyph>
    <TTGlyph name="space" xMin="142" yMin="226" xMax="842" yMax="1588">
      <contour>
        <pt x="142" y="226" on="1"/>
        <pt x="142" y="1588" on="1"/>
        <pt x="842" y="1588" on="1"/>
        <pt x="842" y="226" on="1"/>
      </contour>
      <contour>
        <pt x="284" y="368" on="1"/>
        <pt x="700" y="368" on="1"/>
        <pt x="700" y="1447" on="1"/>
        <pt x="284" y="1447" on="1"/>
      </contour>
    </TTGlyph>
    <TTGlyph name="tchehfinalarabic" xMin="142" yMin="226" xMax="842" yMax="1588">
      <contour>
        <pt x="142" y="226" on="1"/>
        <pt x="142" y="1588" on="1"/>
        <pt x="842" y="1588" on="1"/>
        <pt x="842" y="226" on="1"/>
      </contour>
      <contour>
        <pt x="284" y="368" on="1"/>
        <pt x="700" y="368" on="1"/>
        <pt x="700" y="1447" on="1"/>
        <pt x="284" y="1447" on="1"/>
      </contour>
    </TTGlyph>
    <TTGlyph name="tchehinitialarabic" xMin="142" yMin="226" xMax="842" yMax="1588">
      <contour>
        <pt x="142" y="226" on="1"/>
        <pt x="142" y="1588" on="1"/>
        <pt x="842" y="1588" on="1"/>
        <pt x="842" y="226" on="1"/>
      </contour>
      <contour>
        <pt x="284" y="368" on="1"/>
        <pt x="700" y="368" on="1"/>
        <pt x="700" y="1447" on="1"/>
        <pt x="284" y="1447" on="1"/>
      </contour>
    </TTGlyph>
    <TTGlyph name="tchehmedialarabic" xMin="142" yMin="226" xMax="842" yMax="1588">
      <contour>
        <pt x="142" y="226" on="1"/>
        <pt x="142" y="1588" on="1"/>
        <pt x="842" y="1588" on="1"/>
        <pt x="842" y="226" on="1"/>
      </contour>
      <contour>
        <pt x="284" y="368" on="1"/>
        <pt x="700" y="368" on="1"/>
        <pt x="700" y="1447" on="1"/>
        <pt x="284" y="1447" on="1"/>
      </contour>
    </TTGlyph>
    <TTGlyph name="tehhahisolatedarabic" xMin="142" yMin="226" xMax="842" yMax="1588">
      <contour>
        <pt x="142" y="226" on="1"/>
        <pt x="142" y="1588" on="1"/>
        <pt x="842" y="1588" on="1"/>
        <pt x="842" y="226" on="1"/>
      </contour>
      <contour>
        <pt x="284" y="368" on="1"/>
        <pt x="700" y="368" on="1"/>
        <pt x="700" y="1447" on="1"/>
        <pt x="284" y="1447" on="1"/>
      </contour>
    </TTGlyph>
    <TTGlyph name="tehjeemisolatedarabic" xMin="142" yMin="226" xMax="842" yMax="1588">
      <contour>
        <pt x="142" y="226" on="1"/>
        <pt x="142" y="1588" on="1"/>
        <pt x="842" y="1588" on="1"/>
        <pt x="842" y="226" on="1"/>
      </contour>
      <contour>
        <pt x="284" y="368" on="1"/>
        <pt x="700" y="368" on="1"/>
        <pt x="700" y="1447" on="1"/>
        <pt x="284" y="1447" on="1"/>
      </contour>
    </TTGlyph>
    <TTGlyph name="tehmeemisolatedarabic" xMin="142" yMin="226" xMax="842" yMax="1588">
      <contour>
        <pt x="142" y="226" on="1"/>
        <pt x="142" y="1588" on="1"/>
        <pt x="842" y="1588" on="1"/>
        <pt x="842" y="226" on="1"/>
      </contour>
      <contour>
        <pt x="284" y="368" on="1"/>
        <pt x="700" y="368" on="1"/>
        <pt x="700" y="1447" on="1"/>
        <pt x="284" y="1447" on="1"/>
      </contour>
    </TTGlyph>
    <TTGlyph name="tehnoonfinalarabic" xMin="142" yMin="226" xMax="842" yMax="1588">
      <contour>
        <pt x="142" y="226" on="1"/>
        <pt x="142" y="1588" on="1"/>
        <pt x="842" y="1588" on="1"/>
        <pt x="842" y="226" on="1"/>
      </contour>
      <contour>
        <pt x="284" y="368" on="1"/>
        <pt x="700" y="368" on="1"/>
        <pt x="700" y="1447" on="1"/>
        <pt x="284" y="1447" on="1"/>
      </contour>
    </TTGlyph>
    <TTGlyph name="tehringfinal" xMin="142" yMin="226" xMax="842" yMax="1588">
      <contour>
        <pt x="142" y="226" on="1"/>
        <pt x="142" y="1588" on="1"/>
        <pt x="842" y="1588" on="1"/>
        <pt x="842" y="226" on="1"/>
      </contour>
      <contour>
        <pt x="284" y="368" on="1"/>
        <pt x="700" y="368" on="1"/>
        <pt x="700" y="1447" on="1"/>
        <pt x="284" y="1447" on="1"/>
      </contour>
    </TTGlyph>
    <TTGlyph name="tehringinitial" xMin="142" yMin="226" xMax="842" yMax="1588">
      <contour>
        <pt x="142" y="226" on="1"/>
        <pt x="142" y="1588" on="1"/>
        <pt x="842" y="1588" on="1"/>
        <pt x="842" y="226" on="1"/>
      </contour>
      <contour>
        <pt x="284" y="368" on="1"/>
        <pt x="700" y="368" on="1"/>
        <pt x="700" y="1447" on="1"/>
        <pt x="284" y="1447" on="1"/>
      </contour>
    </TTGlyph>
    <TTGlyph name="tehringmedial" xMin="142" yMin="226" xMax="842" yMax="1588">
      <contour>
        <pt x="142" y="226" on="1"/>
        <pt x="142" y="1588" on="1"/>
        <pt x="842" y="1588" on="1"/>
        <pt x="842" y="226" on="1"/>
      </contour>
      <contour>
        <pt x="284" y="368" on="1"/>
        <pt x="700" y="368" on="1"/>
        <pt x="700" y="1447" on="1"/>
        <pt x="284" y="1447" on="1"/>
      </contour>
    </TTGlyph>
    <TTGlyph name="ttehfinalarabic" xMin="142" yMin="226" xMax="842" yMax="1588">
      <contour>
        <pt x="142" y="226" on="1"/>
        <pt x="142" y="1588" on="1"/>
        <pt x="842" y="1588" on="1"/>
        <pt x="842" y="226" on="1"/>
      </contour>
      <contour>
        <pt x="284" y="368" on="1"/>
        <pt x="700" y="368" on="1"/>
        <pt x="700" y="1447" on="1"/>
        <pt x="284" y="1447" on="1"/>
      </contour>
    </TTGlyph>
    <TTGlyph name="ttehinitialarabic" xMin="142" yMin="226" xMax="842" yMax="1588">
      <contour>
        <pt x="142" y="226" on="1"/>
        <pt x="142" y="1588" on="1"/>
        <pt x="842" y="1588" on="1"/>
        <pt x="842" y="226" on="1"/>
      </contour>
      <contour>
        <pt x="284" y="368" on="1"/>
        <pt x="700" y="368" on="1"/>
        <pt x="700" y="1447" on="1"/>
        <pt x="284" y="1447" on="1"/>
      </contour>
    </TTGlyph>
    <TTGlyph name="ttehmedialarabic" xMin="142" yMin="226" xMax="842" yMax="1588">
      <contour>
        <pt x="142" y="226" on="1"/>
        <pt x="142" y="1588" on="1"/>
        <pt x="842" y="1588" on="1"/>
        <pt x="842" y="226" on="1"/>
      </contour>
      <contour>
        <pt x="284" y="368" on="1"/>
        <pt x="700" y="368" on="1"/>
        <pt x="700" y="1447" on="1"/>
        <pt x="284" y="1447" on="1"/>
      </contour>
    </TTGlyph>
    <TTGlyph name="uni000D" xMin="142" yMin="226" xMax="842" yMax="1588">
      <contour>
        <pt x="142" y="226" on="1"/>
        <pt x="142" y="1588" on="1"/>
        <pt x="842" y="1588" on="1"/>
        <pt x="842" y="226" on="1"/>
      </contour>
      <contour>
        <pt x="284" y="368" on="1"/>
        <pt x="700" y="368" on="1"/>
        <pt x="700" y="1447" on="1"/>
        <pt x="284" y="1447" on="1"/>
      </contour>
    </TTGlyph>
    <TTGlyph name="uni00A0" xMin="142" yMin="226" xMax="842" yMax="1588">
      <contour>
        <pt x="142" y="226" on="1"/>
        <pt x="142" y="1588" on="1"/>
        <pt x="842" y="1588" on="1"/>
        <pt x="842" y="226" on="1"/>
      </contour>
      <contour>
        <pt x="284" y="368" on="1"/>
        <pt x="700" y="368" on="1"/>
        <pt x="700" y="1447" on="1"/>
        <pt x="284" y="1447" on="1"/>
      </contour>
    </TTGlyph>
    <TTGlyph name="uni00AD" xMin="142" yMin="226" xMax="842" yMax="1588">
      <contour>
        <pt x="142" y="226" on="1"/>
        <pt x="142" y="1588" on="1"/>
        <pt x="842" y="1588" on="1"/>
        <pt x="842" y="226" on="1"/>
      </contour>
      <contour>
        <pt x="284" y="368" on="1"/>
        <pt x="700" y="368" on="1"/>
        <pt x="700" y="1447" on="1"/>
        <pt x="284" y="1447" on="1"/>
      </contour>
    </TTGlyph>
    <TTGlyph name="uni0653" xMin="142" yMin="226" xMax="842" yMax="1588">
      <contour>
        <pt x="142" y="226" on="1"/>
        <pt x="142" y="1588" on="1"/>
        <pt x="842" y="1588" on="1"/>
        <pt x="842" y="226" on="1"/>
      </contour>
      <contour>
        <pt x="284" y="368" on="1"/>
        <pt x="700" y="368" on="1"/>
        <pt x="700" y="1447" on="1"/>
        <pt x="284" y="1447" on="1"/>
      </contour>
    </TTGlyph>
    <TTGlyph name="uni0654" xMin="142" yMin="226" xMax="842" yMax="1588">
      <contour>
        <pt x="142" y="226" on="1"/>
        <pt x="142" y="1588" on="1"/>
        <pt x="842" y="1588" on="1"/>
        <pt x="842" y="226" on="1"/>
      </contour>
      <contour>
        <pt x="284" y="368" on="1"/>
        <pt x="700" y="368" on="1"/>
        <pt x="700" y="1447" on="1"/>
        <pt x="284" y="1447" on="1"/>
      </contour>
    </TTGlyph>
    <TTGlyph name="uni0655" xMin="142" yMin="226" xMax="842" yMax="1588">
      <contour>
        <pt x="142" y="226" on="1"/>
        <pt x="142" y="1588" on="1"/>
        <pt x="842" y="1588" on="1"/>
        <pt x="842" y="226" on="1"/>
      </contour>
      <contour>
        <pt x="284" y="368" on="1"/>
        <pt x="700" y="368" on="1"/>
        <pt x="700" y="1447" on="1"/>
        <pt x="284" y="1447" on="1"/>
      </contour>
    </TTGlyph>
    <TTGlyph name="uni066B" xMin="142" yMin="226" xMax="842" yMax="1588">
      <contour>
        <pt x="142" y="226" on="1"/>
        <pt x="142" y="1588" on="1"/>
        <pt x="842" y="1588" on="1"/>
        <pt x="842" y="226" on="1"/>
      </contour>
      <contour>
        <pt x="284" y="368" on="1"/>
        <pt x="700" y="368" on="1"/>
        <pt x="700" y="1447" on="1"/>
        <pt x="284" y="1447" on="1"/>
      </contour>
    </TTGlyph>
    <TTGlyph name="uni066C" xMin="142" yMin="226" xMax="842" yMax="1588">
      <contour>
        <pt x="142" y="226" on="1"/>
        <pt x="142" y="1588" on="1"/>
        <pt x="842" y="1588" on="1"/>
        <pt x="842" y="226" on="1"/>
      </contour>
      <contour>
        <pt x="284" y="368" on="1"/>
        <pt x="700" y="368" on="1"/>
        <pt x="700" y="1447" on="1"/>
        <pt x="284" y="1447" on="1"/>
      </contour>
    </TTGlyph>
    <TTGlyph name="uni0671" xMin="142" yMin="226" xMax="842" yMax="1588">
      <contour>
        <pt x="142" y="226" on="1"/>
        <pt x="142" y="1588" on="1"/>
        <pt x="842" y="1588" on="1"/>
        <pt x="842" y="226" on="1"/>
      </contour>
      <contour>
        <pt x="284" y="368" on="1"/>
        <pt x="700" y="368" on="1"/>
        <pt x="700" y="1447" on="1"/>
        <pt x="284" y="1447" on="1"/>
      </contour>
    </TTGlyph>
    <TTGlyph name="uni067C" xMin="142" yMin="226" xMax="842" yMax="1588">
      <contour>
        <pt x="142" y="226" on="1"/>
        <pt x="142" y="1588" on="1"/>
        <pt x="842" y="1588" on="1"/>
        <pt x="842" y="226" on="1"/>
      </contour>
      <contour>
        <pt x="284" y="368" on="1"/>
        <pt x="700" y="368" on="1"/>
        <pt x="700" y="1447" on="1"/>
        <pt x="284" y="1447" on="1"/>
      </contour>
    </TTGlyph>
    <TTGlyph name="uni0681" xMin="142" yMin="226" xMax="842" yMax="1588">
      <contour>
        <pt x="142" y="226" on="1"/>
        <pt x="142" y="1588" on="1"/>
        <pt x="842" y="1588" on="1"/>
        <pt x="842" y="226" on="1"/>
      </contour>
      <contour>
        <pt x="284" y="368" on="1"/>
        <pt x="700" y="368" on="1"/>
        <pt x="700" y="1447" on="1"/>
        <pt x="284" y="1447" on="1"/>
      </contour>
    </TTGlyph>
    <TTGlyph name="uni0685" xMin="142" yMin="226" xMax="842" yMax="1588">
      <contour>
        <pt x="142" y="226" on="1"/>
        <pt x="142" y="1588" on="1"/>
        <pt x="842" y="1588" on="1"/>
        <pt x="842" y="226" on="1"/>
      </contour>
      <contour>
        <pt x="284" y="368" on="1"/>
        <pt x="700" y="368" on="1"/>
        <pt x="700" y="1447" on="1"/>
        <pt x="284" y="1447" on="1"/>
      </contour>
    </TTGlyph>
    <TTGlyph name="uni0689" xMin="142" yMin="226" xMax="842" yMax="1588">
      <contour>
        <pt x="142" y="226" on="1"/>
        <pt x="142" y="1588" on="1"/>
        <pt x="842" y="1588" on="1"/>
        <pt x="842" y="226" on="1"/>
      </contour>
      <contour>
        <pt x="284" y="368" on="1"/>
        <pt x="700" y="368" on="1"/>
        <pt x="700" y="1447" on="1"/>
        <pt x="284" y="1447" on="1"/>
      </contour>
    </TTGlyph>
    <TTGlyph name="uni0693" xMin="142" yMin="226" xMax="842" yMax="1588">
      <contour>
        <pt x="142" y="226" on="1"/>
        <pt x="142" y="1588" on="1"/>
        <pt x="842" y="1588" on="1"/>
        <pt x="842" y="226" on="1"/>
      </contour>
      <contour>
        <pt x="284" y="368" on="1"/>
        <pt x="700" y="368" on="1"/>
        <pt x="700" y="1447" on="1"/>
        <pt x="284" y="1447" on="1"/>
      </contour>
    </TTGlyph>
    <TTGlyph name="uni0696" xMin="142" yMin="226" xMax="842" yMax="1588">
      <contour>
        <pt x="142" y="226" on="1"/>
        <pt x="142" y="1588" on="1"/>
        <pt x="842" y="1588" on="1"/>
        <pt x="842" y="226" on="1"/>
      </contour>
      <contour>
        <pt x="284" y="368" on="1"/>
        <pt x="700" y="368" on="1"/>
        <pt x="700" y="1447" on="1"/>
        <pt x="284" y="1447" on="1"/>
      </contour>
    </TTGlyph>
    <TTGlyph name="uni069A" xMin="142" yMin="226" xMax="842" yMax="1588">
      <contour>
        <pt x="142" y="226" on="1"/>
        <pt x="142" y="1588" on="1"/>
        <pt x="842" y="1588" on="1"/>
        <pt x="842" y="226" on="1"/>
      </contour>
      <contour>
        <pt x="284" y="368" on="1"/>
        <pt x="700" y="368" on="1"/>
        <pt x="700" y="1447" on="1"/>
        <pt x="284" y="1447" on="1"/>
      </contour>
    </TTGlyph>
    <TTGlyph name="uni06A9" xMin="142" yMin="226" xMax="842" yMax="1588">
      <contour>
        <pt x="142" y="226" on="1"/>
        <pt x="142" y="1588" on="1"/>
        <pt x="842" y="1588" on="1"/>
        <pt x="842" y="226" on="1"/>
      </contour>
      <contour>
        <pt x="284" y="368" on="1"/>
        <pt x="700" y="368" on="1"/>
        <pt x="700" y="1447" on="1"/>
        <pt x="284" y="1447" on="1"/>
      </contour>
    </TTGlyph>
    <TTGlyph name="uni06AB" xMin="142" yMin="226" xMax="842" yMax="1588">
      <contour>
        <pt x="142" y="226" on="1"/>
        <pt x="142" y="1588" on="1"/>
        <pt x="842" y="1588" on="1"/>
        <pt x="842" y="226" on="1"/>
      </contour>
      <contour>
        <pt x="284" y="368" on="1"/>
        <pt x="700" y="368" on="1"/>
        <pt x="700" y="1447" on="1"/>
        <pt x="284" y="1447" on="1"/>
      </contour>
    </TTGlyph>
    <TTGlyph name="uni06B7" xMin="142" yMin="226" xMax="842" yMax="1588">
      <contour>
        <pt x="142" y="226" on="1"/>
        <pt x="142" y="1588" on="1"/>
        <pt x="842" y="1588" on="1"/>
        <pt x="842" y="226" on="1"/>
      </contour>
      <contour>
        <pt x="284" y="368" on="1"/>
        <pt x="700" y="368" on="1"/>
        <pt x="700" y="1447" on="1"/>
        <pt x="284" y="1447" on="1"/>
      </contour>
    </TTGlyph>
    <TTGlyph name="uni06BC" xMin="142" yMin="226" xMax="842" yMax="1588">
      <contour>
        <pt x="142" y="226" on="1"/>
        <pt x="142" y="1588" on="1"/>
        <pt x="842" y="1588" on="1"/>
        <pt x="842" y="226" on="1"/>
      </contour>
      <contour>
        <pt x="284" y="368" on="1"/>
        <pt x="700" y="368" on="1"/>
        <pt x="700" y="1447" on="1"/>
        <pt x="284" y="1447" on="1"/>
      </contour>
    </TTGlyph>
    <TTGlyph name="uni06BE" xMin="142" yMin="226" xMax="842" yMax="1588">
      <contour>
        <pt x="142" y="226" on="1"/>
        <pt x="142" y="1588" on="1"/>
        <pt x="842" y="1588" on="1"/>
        <pt x="842" y="226" on="1"/>
      </contour>
      <contour>
        <pt x="284" y="368" on="1"/>
        <pt x="700" y="368" on="1"/>
        <pt x="700" y="1447" on="1"/>
        <pt x="284" y="1447" on="1"/>
      </contour>
    </TTGlyph>
    <TTGlyph name="uni06C2" xMin="142" yMin="226" xMax="842" yMax="1588">
      <contour>
        <pt x="142" y="226" on="1"/>
        <pt x="142" y="1588" on="1"/>
        <pt x="842" y="1588" on="1"/>
        <pt x="842" y="226" on="1"/>
      </contour>
      <contour>
        <pt x="284" y="368" on="1"/>
        <pt x="700" y="368" on="1"/>
        <pt x="700" y="1447" on="1"/>
        <pt x="284" y="1447" on="1"/>
      </contour>
    </TTGlyph>
    <TTGlyph name="uni06C7" xMin="142" yMin="226" xMax="842" yMax="1588">
      <contour>
        <pt x="142" y="226" on="1"/>
        <pt x="142" y="1588" on="1"/>
        <pt x="842" y="1588" on="1"/>
        <pt x="842" y="226" on="1"/>
      </contour>
      <contour>
        <pt x="284" y="368" on="1"/>
        <pt x="700" y="368" on="1"/>
        <pt x="700" y="1447" on="1"/>
        <pt x="284" y="1447" on="1"/>
      </contour>
    </TTGlyph>
    <TTGlyph name="uni06C9" xMin="142" yMin="226" xMax="842" yMax="1588">
      <contour>
        <pt x="142" y="226" on="1"/>
        <pt x="142" y="1588" on="1"/>
        <pt x="842" y="1588" on="1"/>
        <pt x="842" y="226" on="1"/>
      </contour>
      <contour>
        <pt x="284" y="368" on="1"/>
        <pt x="700" y="368" on="1"/>
        <pt x="700" y="1447" on="1"/>
        <pt x="284" y="1447" on="1"/>
      </contour>
    </TTGlyph>
    <TTGlyph name="uni06CC" xMin="142" yMin="226" xMax="842" yMax="1588">
      <contour>
        <pt x="142" y="226" on="1"/>
        <pt x="142" y="1588" on="1"/>
        <pt x="842" y="1588" on="1"/>
        <pt x="842" y="226" on="1"/>
      </contour>
      <contour>
        <pt x="284" y="368" on="1"/>
        <pt x="700" y="368" on="1"/>
        <pt x="700" y="1447" on="1"/>
        <pt x="284" y="1447" on="1"/>
      </contour>
    </TTGlyph>
    <TTGlyph name="uni06CD" xMin="142" yMin="226" xMax="842" yMax="1588">
      <contour>
        <pt x="142" y="226" on="1"/>
        <pt x="142" y="1588" on="1"/>
        <pt x="842" y="1588" on="1"/>
        <pt x="842" y="226" on="1"/>
      </contour>
      <contour>
        <pt x="284" y="368" on="1"/>
        <pt x="700" y="368" on="1"/>
        <pt x="700" y="1447" on="1"/>
        <pt x="284" y="1447" on="1"/>
      </contour>
    </TTGlyph>
    <TTGlyph name="uni06D0" xMin="142" yMin="226" xMax="842" yMax="1588">
      <contour>
        <pt x="142" y="226" on="1"/>
        <pt x="142" y="1588" on="1"/>
        <pt x="842" y="1588" on="1"/>
        <pt x="842" y="226" on="1"/>
      </contour>
      <contour>
        <pt x="284" y="368" on="1"/>
        <pt x="700" y="368" on="1"/>
        <pt x="700" y="1447" on="1"/>
        <pt x="284" y="1447" on="1"/>
      </contour>
    </TTGlyph>
    <TTGlyph name="uni06D1" xMin="142" yMin="226" xMax="842" yMax="1588">
      <contour>
        <pt x="142" y="226" on="1"/>
        <pt x="142" y="1588" on="1"/>
        <pt x="842" y="1588" on="1"/>
        <pt x="842" y="226" on="1"/>
      </contour>
      <contour>
        <pt x="284" y="368" on="1"/>
        <pt x="700" y="368" on="1"/>
        <pt x="700" y="1447" on="1"/>
        <pt x="284" y="1447" on="1"/>
      </contour>
    </TTGlyph>
    <TTGlyph name="uni06D3" xMin="142" yMin="226" xMax="842" yMax="1588">
      <contour>
        <pt x="142" y="226" on="1"/>
        <pt x="142" y="1588" on="1"/>
        <pt x="842" y="1588" on="1"/>
        <pt x="842" y="226" on="1"/>
      </contour>
      <contour>
        <pt x="284" y="368" on="1"/>
        <pt x="700" y="368" on="1"/>
        <pt x="700" y="1447" on="1"/>
        <pt x="284" y="1447" on="1"/>
      </contour>
    </TTGlyph>
    <TTGlyph name="uni06D4" xMin="142" yMin="226" xMax="842" yMax="1588">
      <contour>
        <pt x="142" y="226" on="1"/>
        <pt x="142" y="1588" on="1"/>
        <pt x="842" y="1588" on="1"/>
        <pt x="842" y="226" on="1"/>
      </contour>
      <contour>
        <pt x="284" y="368" on="1"/>
        <pt x="700" y="368" on="1"/>
        <pt x="700" y="1447" on="1"/>
        <pt x="284" y="1447" on="1"/>
      </contour>
    </TTGlyph>
    <TTGlyph name="uni06F0" xMin="142" yMin="226" xMax="842" yMax="1588">
      <contour>
        <pt x="142" y="226" on="1"/>
        <pt x="142" y="1588" on="1"/>
        <pt x="842" y="1588" on="1"/>
        <pt x="842" y="226" on="1"/>
      </contour>
      <contour>
        <pt x="284" y="368" on="1"/>
        <pt x="700" y="368" on="1"/>
        <pt x="700" y="1447" on="1"/>
        <pt x="284" y="1447" on="1"/>
      </contour>
    </TTGlyph>
    <TTGlyph name="uni06F1" xMin="142" yMin="226" xMax="842" yMax="1588">
      <contour>
        <pt x="142" y="226" on="1"/>
        <pt x="142" y="1588" on="1"/>
        <pt x="842" y="1588" on="1"/>
        <pt x="842" y="226" on="1"/>
      </contour>
      <contour>
        <pt x="284" y="368" on="1"/>
        <pt x="700" y="368" on="1"/>
        <pt x="700" y="1447" on="1"/>
        <pt x="284" y="1447" on="1"/>
      </contour>
    </TTGlyph>
    <TTGlyph name="uni06F2" xMin="142" yMin="226" xMax="842" yMax="1588">
      <contour>
        <pt x="142" y="226" on="1"/>
        <pt x="142" y="1588" on="1"/>
        <pt x="842" y="1588" on="1"/>
        <pt x="842" y="226" on="1"/>
      </contour>
      <contour>
        <pt x="284" y="368" on="1"/>
        <pt x="700" y="368" on="1"/>
        <pt x="700" y="1447" on="1"/>
        <pt x="284" y="1447" on="1"/>
      </contour>
    </TTGlyph>
    <TTGlyph name="uni06F3" xMin="142" yMin="226" xMax="842" yMax="1588">
      <contour>
        <pt x="142" y="226" on="1"/>
        <pt x="142" y="1588" on="1"/>
        <pt x="842" y="1588" on="1"/>
        <pt x="842" y="226" on="1"/>
      </contour>
      <contour>
        <pt x="284" y="368" on="1"/>
        <pt x="700" y="368" on="1"/>
        <pt x="700" y="1447" on="1"/>
        <pt x="284" y="1447" on="1"/>
      </contour>
    </TTGlyph>
    <TTGlyph name="uni06F4" xMin="142" yMin="226" xMax="842" yMax="1588">
      <contour>
        <pt x="142" y="226" on="1"/>
        <pt x="142" y="1588" on="1"/>
        <pt x="842" y="1588" on="1"/>
        <pt x="842" y="226" on="1"/>
      </contour>
      <contour>
        <pt x="284" y="368" on="1"/>
        <pt x="700" y="368" on="1"/>
        <pt x="700" y="1447" on="1"/>
        <pt x="284" y="1447" on="1"/>
      </contour>
    </TTGlyph>
    <TTGlyph name="uni06F5" xMin="142" yMin="226" xMax="842" yMax="1588">
      <contour>
        <pt x="142" y="226" on="1"/>
        <pt x="142" y="1588" on="1"/>
        <pt x="842" y="1588" on="1"/>
        <pt x="842" y="226" on="1"/>
      </contour>
      <contour>
        <pt x="284" y="368" on="1"/>
        <pt x="700" y="368" on="1"/>
        <pt x="700" y="1447" on="1"/>
        <pt x="284" y="1447" on="1"/>
      </contour>
    </TTGlyph>
    <TTGlyph name="uni06F6" xMin="142" yMin="226" xMax="842" yMax="1588">
      <contour>
        <pt x="142" y="226" on="1"/>
        <pt x="142" y="1588" on="1"/>
        <pt x="842" y="1588" on="1"/>
        <pt x="842" y="226" on="1"/>
      </contour>
      <contour>
        <pt x="284" y="368" on="1"/>
        <pt x="700" y="368" on="1"/>
        <pt x="700" y="1447" on="1"/>
        <pt x="284" y="1447" on="1"/>
      </contour>
    </TTGlyph>
    <TTGlyph name="uni06F7" xMin="142" yMin="226" xMax="842" yMax="1588">
      <contour>
        <pt x="142" y="226" on="1"/>
        <pt x="142" y="1588" on="1"/>
        <pt x="842" y="1588" on="1"/>
        <pt x="842" y="226" on="1"/>
      </contour>
      <contour>
        <pt x="284" y="368" on="1"/>
        <pt x="700" y="368" on="1"/>
        <pt x="700" y="1447" on="1"/>
        <pt x="284" y="1447" on="1"/>
      </contour>
    </TTGlyph>
    <TTGlyph name="uni06F8" xMin="142" yMin="226" xMax="842" yMax="1588">
      <contour>
        <pt x="142" y="226" on="1"/>
        <pt x="142" y="1588" on="1"/>
        <pt x="842" y="1588" on="1"/>
        <pt x="842" y="226" on="1"/>
      </contour>
      <contour>
        <pt x="284" y="368" on="1"/>
        <pt x="700" y="368" on="1"/>
        <pt x="700" y="1447" on="1"/>
        <pt x="284" y="1447" on="1"/>
      </contour>
    </TTGlyph>
    <TTGlyph name="uni06F9" xMin="142" yMin="226" xMax="842" yMax="1588">
      <contour>
        <pt x="142" y="226" on="1"/>
        <pt x="142" y="1588" on="1"/>
        <pt x="842" y="1588" on="1"/>
        <pt x="842" y="226" on="1"/>
      </contour>
      <contour>
        <pt x="284" y="368" on="1"/>
        <pt x="700" y="368" on="1"/>
        <pt x="700" y="1447" on="1"/>
        <pt x="284" y="1447" on="1"/>
      </contour>
    </TTGlyph>
    <TTGlyph name="uni2010" xMin="122" yMin="-434" xMax="4186" yMax="1665">
      <contour>
        <pt x="4186" y="1485" on="1"/>
        <pt x="4186" y="1441" on="0"/>
        <pt x="4039" y="1347" on="1"/>
        <pt x="3958" y="1299" on="0"/>
        <pt x="3876" y="1252" on="1"/>
        <pt x="3769" y="1183" on="0"/>
        <pt x="3627" y="1112" on="1"/>
        <pt x="3613" y="1126" on="0"/>
        <pt x="3613" y="1148" on="1"/>
        <pt x="3613" y="1185" on="0"/>
        <pt x="3696" y="1235" on="1"/>
        <pt x="3754" y="1266" on="0"/>
        <pt x="3810" y="1298" on="1"/>
        <pt x="3918" y="1369" on="0"/>
        <pt x="4139" y="1511" on="1"/>
        <pt x="4174" y="1511" on="1"/>
        <pt x="4186" y="1509" on="0"/>
      </contour>
      <contour>
        <pt x="3520" y="1458" on="1"/>
        <pt x="3517" y="1426" on="0"/>
        <pt x="3495" y="1379" on="1"/>
        <pt x="3346" y="1266" on="0"/>
        <pt x="2981" y="1051" on="1"/>
        <pt x="2981" y="1054" on="0"/>
        <pt x="2968" y="1067" on="0"/>
        <pt x="2968" y="1081" on="1"/>
        <pt x="2968" y="1134" on="0"/>
        <pt x="3110" y="1226" on="1"/>
        <pt x="3189" y="1272" on="0"/>
        <pt x="3267" y="1318" on="1"/>
        <pt x="3337" y="1366" on="0"/>
        <pt x="3473" y="1458" on="1"/>
      </contour>
      <contour>
        <pt x="4186" y="251" on="1"/>
        <pt x="4186" y="98" on="0"/>
        <pt x="4099" y="-58" on="1"/>
        <pt x="4022" y="-196" on="0"/>
        <pt x="3908" y="-287" on="1"/>
        <pt x="3872" y="-315" on="0"/>
        <pt x="3834" y="-318" on="1"/>
        <pt x="3593" y="-342" on="0"/>
        <pt x="3603" y="-342" on="1"/>
        <pt x="3590" y="-342" on="0"/>
        <pt x="3451" y="-331" on="0"/>
        <pt x="3439" y="-331" on="1"/>
        <pt x="3387" y="-331" on="0"/>
        <pt x="3367" y="-285" on="1"/>
        <pt x="3374" y="-267" on="0"/>
        <pt x="3397" y="-264" on="1"/>
        <pt x="3412" y="-261" on="0"/>
        <pt x="3441" y="-265" on="1"/>
        <pt x="3474" y="-270" on="0"/>
        <pt x="3480" y="-270" on="1"/>
        <pt x="3552" y="-270" on="0"/>
        <pt x="3721" y="-225" on="0"/>
        <pt x="3821" y="-176" on="1"/>
        <pt x="3898" y="-138" on="0"/>
        <pt x="3998" y="-13" on="1"/>
        <pt x="4104" y="118" on="0"/>
        <pt x="4104" y="190" on="1"/>
        <pt x="4104" y="215" on="0"/>
        <pt x="4099" y="221" on="1"/>
        <pt x="3994" y="139" on="0"/>
        <pt x="3976" y="139" on="1"/>
        <pt x="3918" y="139" on="0"/>
        <pt x="3871" y="193" on="1"/>
        <pt x="3828" y="243" on="0"/>
        <pt x="3828" y="297" on="1"/>
        <pt x="3828" y="361" on="0"/>
        <pt x="3867" y="452" on="1"/>
        <pt x="3918" y="569" on="0"/>
        <pt x="3992" y="569" on="1"/>
        <pt x="3997" y="569" on="0"/>
        <pt x="4061" y="534" on="1"/>
        <pt x="4079" y="523" on="0"/>
        <pt x="4100" y="487" on="1"/>
        <pt x="4134" y="427" on="0"/>
        <pt x="4137" y="424" on="1"/>
        <pt x="4186" y="353" on="0"/>
      </contour>
      <contour>
        <pt x="2487" y="1102" on="1"/>
        <pt x="2487" y="1050" on="0"/>
        <pt x="2435" y="1050" on="1"/>
        <pt x="2422" y="1050" on="0"/>
        <pt x="2356" y="1091" on="0"/>
        <pt x="2344" y="1091" on="1"/>
        <pt x="2317" y="1091" on="0"/>
        <pt x="2263" y="1031" on="1"/>
        <pt x="2103" y="856" on="0"/>
        <pt x="1968" y="856" on="1"/>
        <pt x="1955" y="856" on="0"/>
        <pt x="1946" y="858" on="1"/>
        <pt x="1946" y="886" on="0"/>
        <pt x="2005" y="934" on="1"/>
        <pt x="2053" y="967" on="0"/>
        <pt x="2100" y="1001" on="1"/>
        <pt x="2145" y="1040" on="0"/>
        <pt x="2241" y="1119" on="1"/>
        <pt x="2236" y="1142" on="0"/>
        <pt x="2162" y="1196" on="1"/>
        <pt x="2162" y="1205" on="0"/>
        <pt x="2149" y="1262" on="0"/>
        <pt x="2149" y="1275" on="1"/>
        <pt x="2149" y="1312" on="0"/>
        <pt x="2199" y="1383" on="1"/>
        <pt x="2253" y="1460" on="0"/>
        <pt x="2297" y="1460" on="1"/>
        <pt x="2348" y="1460" on="0"/>
        <pt x="2367" y="1370" on="1"/>
        <pt x="2383" y="1294" on="0"/>
        <pt x="2370" y="1241" on="1"/>
        <pt x="2387" y="1217" on="0"/>
        <pt x="2447" y="1167" on="1"/>
        <pt x="2487" y="1132" on="0"/>
      </contour>
      <contour>
        <pt x="3541" y="338" on="1"/>
        <pt x="3541" y="215" on="0"/>
        <pt x="3469" y="70" on="1"/>
        <pt x="3392" y="-84" on="0"/>
        <pt x="3269" y="-185" on="1"/>
        <pt x="3221" y="-223" on="0"/>
        <pt x="3097" y="-249" on="0"/>
        <pt x="2988" y="-249" on="1"/>
        <pt x="2938" y="-249" on="0"/>
        <pt x="2694" y="-216" on="1"/>
        <pt x="2683" y="-208" on="0"/>
        <pt x="2662" y="-171" on="1"/>
        <pt x="2671" y="-167" on="0"/>
        <pt x="2784" y="-167" on="1"/>
        <pt x="2929" y="-167" on="0"/>
        <pt x="3054" y="-135" on="1"/>
        <pt x="3115" y="-118" on="0"/>
        <pt x="3246" y="-22" on="1"/>
        <pt x="3283" y="4" on="0"/>
        <pt x="3368" y="115" on="1"/>
        <pt x="3459" y="234" on="0"/>
        <pt x="3459" y="272" on="1"/>
        <pt x="3459" y="331" on="0"/>
        <pt x="3310" y="447" on="1"/>
        <pt x="3285" y="467" on="0"/>
        <pt x="3285" y="513" on="1"/>
        <pt x="3285" y="560" on="0"/>
        <pt x="3319" y="609" on="1"/>
        <pt x="3350" y="609" on="1"/>
        <pt x="3386" y="610" on="0"/>
        <pt x="3541" y="437" on="0"/>
      </contour>
      <contour>
        <pt x="1340" y="1633" on="1"/>
        <pt x="1340" y="1590" on="0"/>
        <pt x="1142" y="1437" on="1"/>
        <pt x="991" y="1319" on="0"/>
        <pt x="904" y="1266" on="1"/>
        <pt x="890" y="1280" on="0"/>
        <pt x="890" y="1301" on="1"/>
        <pt x="890" y="1348" on="0"/>
        <pt x="1089" y="1506" on="1"/>
        <pt x="1196" y="1585" on="0"/>
        <pt x="1302" y="1665" on="1"/>
        <pt x="1340" y="1665" on="0"/>
      </contour>
      <contour>
        <pt x="2896" y="338" on="1"/>
        <pt x="2896" y="249" on="0"/>
        <pt x="2840" y="143" on="1"/>
        <pt x="2797" y="119" on="0"/>
        <pt x="2752" y="119" on="1"/>
        <pt x="2740" y="119" on="0"/>
        <pt x="2607" y="149" on="0"/>
        <pt x="2594" y="149" on="1"/>
        <pt x="2586" y="149" on="0"/>
        <pt x="2546" y="113" on="1"/>
        <pt x="2503" y="75" on="0"/>
        <pt x="2483" y="70" on="1"/>
        <pt x="2421" y="57" on="0"/>
        <pt x="2374" y="57" on="1"/>
        <pt x="2361" y="57" on="0"/>
        <pt x="2228" y="119" on="0"/>
        <pt x="2215" y="119" on="1"/>
        <pt x="2203" y="119" on="0"/>
        <pt x="2181" y="93" on="1"/>
        <pt x="2156" y="65" on="0"/>
        <pt x="2145" y="60" on="1"/>
        <pt x="2087" y="48" on="0"/>
        <pt x="1982" y="13" on="1"/>
        <pt x="1964" y="4" on="0"/>
        <pt x="1954" y="-27" on="1"/>
        <pt x="1946" y="-49" on="0"/>
        <pt x="1940" y="-72" on="1"/>
        <pt x="1907" y="-155" on="0"/>
        <pt x="1821" y="-261" on="1"/>
        <pt x="1716" y="-389" on="0"/>
        <pt x="1623" y="-421" on="1"/>
        <pt x="1584" y="-434" on="0"/>
        <pt x="1478" y="-434" on="1"/>
        <pt x="1346" y="-434" on="0"/>
        <pt x="1167" y="-401" on="1"/>
        <pt x="1167" y="-398" on="0"/>
        <pt x="1156" y="-367" on="0"/>
        <pt x="1156" y="-355" on="1"/>
        <pt x="1169" y="-339" on="1"/>
        <pt x="1197" y="-335" on="0"/>
        <pt x="1267" y="-343" on="1"/>
        <pt x="1348" y="-352" on="0"/>
        <pt x="1350" y="-352" on="1"/>
        <pt x="1560" y="-352" on="0"/>
        <pt x="1774" y="-132" on="1"/>
        <pt x="1803" y="-107" on="0"/>
        <pt x="1832" y="-58" on="1"/>
        <pt x="1832" y="-12" on="1"/>
        <pt x="1757" y="2" on="0"/>
        <pt x="1683" y="17" on="1"/>
        <pt x="1575" y="51" on="0"/>
        <pt x="1575" y="144" on="1"/>
        <pt x="1575" y="216" on="0"/>
        <pt x="1625" y="308" on="1"/>
        <pt x="1684" y="415" on="0"/>
        <pt x="1760" y="415" on="1"/>
        <pt x="1820" y="415" on="0"/>
        <pt x="1882" y="313" on="1"/>
        <pt x="1926" y="240" on="0"/>
        <pt x="1936" y="197" on="1"/>
        <pt x="1944" y="186" on="0"/>
        <pt x="1961" y="170" on="1"/>
        <pt x="2075" y="181" on="0"/>
        <pt x="2104" y="188" on="1"/>
        <pt x="2186" y="210" on="0"/>
        <pt x="2227" y="270" on="1"/>
        <pt x="2240" y="298" on="0"/>
        <pt x="2254" y="326" on="1"/>
        <pt x="2273" y="363" on="0"/>
        <pt x="2310" y="374" on="1"/>
        <pt x="2311" y="369" on="0"/>
        <pt x="2311" y="209" on="1"/>
        <pt x="2314" y="209" on="0"/>
        <pt x="2334" y="201" on="0"/>
        <pt x="2349" y="201" on="1"/>
        <pt x="2391" y="201" on="0"/>
        <pt x="2464" y="222" on="1"/>
        <pt x="2544" y="246" on="0"/>
        <pt x="2555" y="270" on="1"/>
        <pt x="2575" y="327" on="0"/>
        <pt x="2594" y="385" on="1"/>
        <pt x="2616" y="448" on="0"/>
        <pt x="2646" y="456" on="1"/>
        <pt x="2660" y="445" on="0"/>
        <pt x="2670" y="445" on="1"/>
        <pt x="2670" y="430" on="0"/>
        <pt x="2661" y="351" on="0"/>
        <pt x="2661" y="338" on="1"/>
        <pt x="2661" y="292" on="0"/>
        <pt x="2698" y="292" on="1"/>
        <pt x="2777" y="292" on="1"/>
        <pt x="2798" y="305" on="0"/>
        <pt x="2798" y="330" on="1"/>
        <pt x="2798" y="349" on="0"/>
        <pt x="2773" y="411" on="0"/>
        <pt x="2773" y="415" on="1"/>
        <pt x="2773" y="461" on="0"/>
        <pt x="2818" y="528" on="1"/>
        <pt x="2852" y="517" on="0"/>
        <pt x="2875" y="455" on="1"/>
        <pt x="2896" y="399" on="0"/>
      </contour>
      <contour>
        <pt x="787" y="1209" on="1"/>
        <pt x="787" y="1194" on="0"/>
        <pt x="776" y="1168" on="0"/>
        <pt x="776" y="1165" on="1"/>
        <pt x="756" y="1158" on="0"/>
        <pt x="736" y="1158" on="1"/>
        <pt x="717" y="1158" on="0"/>
        <pt x="662" y="1173" on="0"/>
        <pt x="654" y="1173" on="1"/>
        <pt x="643" y="1173" on="0"/>
        <pt x="570" y="1102" on="1"/>
        <pt x="486" y="1018" on="0"/>
        <pt x="447" y="992" on="1"/>
        <pt x="410" y="976" on="0"/>
        <pt x="343" y="938" on="1"/>
        <pt x="298" y="938" on="1"/>
        <pt x="285" y="940" on="0"/>
        <pt x="285" y="963" on="1"/>
        <pt x="285" y="979" on="0"/>
        <pt x="422" y="1094" on="1"/>
        <pt x="526" y="1183" on="0"/>
        <pt x="562" y="1210" on="1"/>
        <pt x="547" y="1235" on="0"/>
        <pt x="481" y="1277" on="1"/>
        <pt x="478" y="1384" on="0"/>
        <pt x="494" y="1407" on="1"/>
        <pt x="586" y="1532" on="0"/>
        <pt x="628" y="1532" on="1"/>
        <pt x="700" y="1532" on="0"/>
        <pt x="700" y="1416" on="1"/>
        <pt x="700" y="1395" on="0"/>
        <pt x="694" y="1327" on="0"/>
        <pt x="694" y="1319" on="1"/>
        <pt x="694" y="1307" on="0"/>
        <pt x="696" y="1304" on="1"/>
        <pt x="701" y="1298" on="0"/>
        <pt x="750" y="1257" on="1"/>
        <pt x="787" y="1224" on="0"/>
      </contour>
      <contour>
        <pt x="1309" y="267" on="1"/>
        <pt x="1309" y="91" on="0"/>
        <pt x="1204" y="-44" on="1"/>
        <pt x="1177" y="-49" on="0"/>
        <pt x="1148" y="-49" on="1"/>
        <pt x="1051" y="-49" on="0"/>
        <pt x="972" y="0" on="1"/>
        <pt x="882" y="57" on="0"/>
        <pt x="852" y="160" on="1"/>
        <pt x="812" y="116" on="0"/>
        <pt x="727" y="43" on="1"/>
        <pt x="682" y="16" on="0"/>
        <pt x="608" y="16" on="1"/>
        <pt x="496" y="16" on="0"/>
        <pt x="439" y="70" on="1"/>
        <pt x="443" y="200" on="0"/>
        <pt x="656" y="380" on="1"/>
        <pt x="658" y="382" on="0"/>
        <pt x="721" y="419" on="1"/>
        <pt x="768" y="446" on="0"/>
        <pt x="784" y="474" on="1"/>
        <pt x="794" y="492" on="0"/>
        <pt x="801" y="551" on="1"/>
        <pt x="810" y="620" on="0"/>
        <pt x="820" y="650" on="1"/>
        <pt x="850" y="650" on="0"/>
        <pt x="865" y="627" on="1"/>
        <pt x="882" y="429" on="0"/>
        <pt x="953" y="238" on="1"/>
        <pt x="968" y="197" on="0"/>
        <pt x="1027" y="154" on="1"/>
        <pt x="1089" y="108" on="0"/>
        <pt x="1140" y="108" on="1"/>
        <pt x="1223" y="108" on="0"/>
        <pt x="1217" y="184" on="1"/>
        <pt x="1074" y="1055" on="1"/>
        <pt x="1091" y="1191" on="0"/>
        <pt x="1160" y="1275" on="1"/>
        <pt x="1193" y="1256" on="0"/>
        <pt x="1196" y="1199" on="1"/>
        <pt x="1198" y="1154" on="0"/>
        <pt x="1198" y="1109" on="1"/>
        <pt x="1223" y="1094" on="0"/>
        <pt x="1268" y="1058" on="1"/>
        <pt x="1268" y="1022" on="0"/>
        <pt x="1264" y="1013" on="1"/>
        <pt x="1227" y="932" on="0"/>
        <pt x="1227" y="830" on="1"/>
        <pt x="1227" y="818" on="0"/>
        <pt x="1309" y="280" on="0"/>
      </contour>
      <contour>
        <pt x="367" y="185" on="1"/>
        <pt x="367" y="70" on="0"/>
        <pt x="279" y="0" on="1"/>
        <pt x="224" y="-45" on="0"/>
        <pt x="187" y="-43" on="1"/>
        <pt x="122" y="-43" on="1"/>
        <pt x="178" y="10" on="0"/>
        <pt x="275" y="114" on="1"/>
        <pt x="274" y="116" on="0"/>
        <pt x="227" y="121" on="1"/>
        <pt x="183" y="160" on="0"/>
        <pt x="183" y="196" on="1"/>
        <pt x="183" y="215" on="0"/>
        <pt x="216" y="270" on="1"/>
        <pt x="255" y="333" on="0"/>
        <pt x="291" y="333" on="1"/>
        <pt x="355" y="333" on="0"/>
      </contour>
      <contour>
        <pt x="4033" y="350" on="1"/>
        <pt x="4016" y="372" on="0"/>
        <pt x="3989" y="415" on="1"/>
        <pt x="3953" y="415" on="1"/>
        <pt x="3953" y="411" on="0"/>
        <pt x="3930" y="379" on="0"/>
        <pt x="3930" y="365" on="1"/>
        <pt x="3930" y="346" on="0"/>
        <pt x="3971" y="313" on="0"/>
        <pt x="3992" y="313" on="1"/>
        <pt x="4007" y="313" on="0"/>
        <pt x="4021" y="328" on="1"/>
        <pt x="4033" y="342" on="0"/>
      </contour>
      <contour>
        <pt x="2299" y="1245" on="1"/>
        <pt x="2313" y="1287" on="0"/>
        <pt x="2289" y="1337" on="1"/>
        <pt x="2241" y="1313" on="0"/>
        <pt x="2241" y="1291" on="1"/>
        <pt x="2241" y="1270" on="0"/>
      </contour>
      <contour>
        <pt x="632" y="1407" on="1"/>
        <pt x="573" y="1389" on="0"/>
        <pt x="573" y="1348" on="1"/>
        <pt x="577" y="1348" on="0"/>
        <pt x="609" y="1327" on="0"/>
        <pt x="623" y="1327" on="1"/>
        <pt x="635" y="1327" on="0"/>
        <pt x="636" y="1344" on="1"/>
        <pt x="638" y="1357" on="0"/>
        <pt x="632" y="1407" on="0"/>
      </contour>
      <contour>
        <pt x="1789" y="177" on="1"/>
        <pt x="1760" y="251" on="0"/>
        <pt x="1729" y="251" on="1"/>
        <pt x="1710" y="251" on="0"/>
        <pt x="1678" y="215" on="1"/>
        <pt x="1688" y="206" on="0"/>
        <pt x="1691" y="191" on="1"/>
        <pt x="1676" y="191" on="0"/>
      </contour>
      <contour>
        <pt x="828" y="272" on="1"/>
        <pt x="828" y="287" on="0"/>
        <pt x="812" y="314" on="1"/>
        <pt x="793" y="343" on="0"/>
        <pt x="771" y="354" on="1"/>
        <pt x="767" y="351" on="0"/>
        <pt x="668" y="289" on="1"/>
        <pt x="596" y="245" on="0"/>
        <pt x="582" y="205" on="1"/>
        <pt x="606" y="180" on="1"/>
        <pt x="740" y="180" on="1"/>
        <pt x="759" y="180" on="0"/>
        <pt x="828" y="258" on="0"/>
      </contour>
    </TTGlyph>
    <TTGlyph name="uni2011" xMin="122" yMin="-434" xMax="4186" yMax="1665">
      <contour>
        <pt x="4186" y="1485" on="1"/>
        <pt x="4186" y="1441" on="0"/>
        <pt x="4039" y="1347" on="1"/>
        <pt x="3958" y="1299" on="0"/>
        <pt x="3876" y="1252" on="1"/>
        <pt x="3769" y="1183" on="0"/>
        <pt x="3627" y="1112" on="1"/>
        <pt x="3613" y="1126" on="0"/>
        <pt x="3613" y="1148" on="1"/>
        <pt x="3613" y="1185" on="0"/>
        <pt x="3696" y="1235" on="1"/>
        <pt x="3754" y="1266" on="0"/>
        <pt x="3810" y="1298" on="1"/>
        <pt x="3918" y="1369" on="0"/>
        <pt x="4139" y="1511" on="1"/>
        <pt x="4174" y="1511" on="1"/>
        <pt x="4186" y="1509" on="0"/>
      </contour>
      <contour>
        <pt x="3520" y="1458" on="1"/>
        <pt x="3517" y="1426" on="0"/>
        <pt x="3495" y="1379" on="1"/>
        <pt x="3346" y="1266" on="0"/>
        <pt x="2981" y="1051" on="1"/>
        <pt x="2981" y="1054" on="0"/>
        <pt x="2968" y="1067" on="0"/>
        <pt x="2968" y="1081" on="1"/>
        <pt x="2968" y="1134" on="0"/>
        <pt x="3110" y="1226" on="1"/>
        <pt x="3189" y="1272" on="0"/>
        <pt x="3267" y="1318" on="1"/>
        <pt x="3337" y="1366" on="0"/>
        <pt x="3473" y="1458" on="1"/>
      </contour>
      <contour>
        <pt x="4186" y="251" on="1"/>
        <pt x="4186" y="98" on="0"/>
        <pt x="4099" y="-58" on="1"/>
        <pt x="4022" y="-196" on="0"/>
        <pt x="3908" y="-287" on="1"/>
        <pt x="3872" y="-315" on="0"/>
        <pt x="3834" y="-318" on="1"/>
        <pt x="3593" y="-342" on="0"/>
        <pt x="3603" y="-342" on="1"/>
        <pt x="3590" y="-342" on="0"/>
        <pt x="3451" y="-331" on="0"/>
        <pt x="3439" y="-331" on="1"/>
        <pt x="3387" y="-331" on="0"/>
        <pt x="3367" y="-285" on="1"/>
        <pt x="3374" y="-267" on="0"/>
        <pt x="3397" y="-264" on="1"/>
        <pt x="3412" y="-261" on="0"/>
        <pt x="3441" y="-265" on="1"/>
        <pt x="3474" y="-270" on="0"/>
        <pt x="3480" y="-270" on="1"/>
        <pt x="3552" y="-270" on="0"/>
        <pt x="3721" y="-225" on="0"/>
        <pt x="3821" y="-176" on="1"/>
        <pt x="3898" y="-138" on="0"/>
        <pt x="3998" y="-13" on="1"/>
        <pt x="4104" y="118" on="0"/>
        <pt x="4104" y="190" on="1"/>
        <pt x="4104" y="215" on="0"/>
        <pt x="4099" y="221" on="1"/>
        <pt x="3994" y="139" on="0"/>
        <pt x="3976" y="139" on="1"/>
        <pt x="3918" y="139" on="0"/>
        <pt x="3871" y="193" on="1"/>
        <pt x="3828" y="243" on="0"/>
        <pt x="3828" y="297" on="1"/>
        <pt x="3828" y="361" on="0"/>
        <pt x="3867" y="452" on="1"/>
        <pt x="3918" y="569" on="0"/>
        <pt x="3992" y="569" on="1"/>
        <pt x="3997" y="569" on="0"/>
        <pt x="4061" y="534" on="1"/>
        <pt x="4079" y="523" on="0"/>
        <pt x="4100" y="487" on="1"/>
        <pt x="4134" y="427" on="0"/>
        <pt x="4137" y="424" on="1"/>
        <pt x="4186" y="353" on="0"/>
      </contour>
      <contour>
        <pt x="2487" y="1102" on="1"/>
        <pt x="2487" y="1050" on="0"/>
        <pt x="2435" y="1050" on="1"/>
        <pt x="2422" y="1050" on="0"/>
        <pt x="2356" y="1091" on="0"/>
        <pt x="2344" y="1091" on="1"/>
        <pt x="2317" y="1091" on="0"/>
        <pt x="2263" y="1031" on="1"/>
        <pt x="2103" y="856" on="0"/>
        <pt x="1968" y="856" on="1"/>
        <pt x="1955" y="856" on="0"/>
        <pt x="1946" y="858" on="1"/>
        <pt x="1946" y="886" on="0"/>
        <pt x="2005" y="934" on="1"/>
        <pt x="2053" y="967" on="0"/>
        <pt x="2100" y="1001" on="1"/>
        <pt x="2145" y="1040" on="0"/>
        <pt x="2241" y="1119" on="1"/>
        <pt x="2236" y="1142" on="0"/>
        <pt x="2162" y="1196" on="1"/>
        <pt x="2162" y="1205" on="0"/>
        <pt x="2149" y="1262" on="0"/>
        <pt x="2149" y="1275" on="1"/>
        <pt x="2149" y="1312" on="0"/>
        <pt x="2199" y="1383" on="1"/>
        <pt x="2253" y="1460" on="0"/>
        <pt x="2297" y="1460" on="1"/>
        <pt x="2348" y="1460" on="0"/>
        <pt x="2367" y="1370" on="1"/>
        <pt x="2383" y="1294" on="0"/>
        <pt x="2370" y="1241" on="1"/>
        <pt x="2387" y="1217" on="0"/>
        <pt x="2447" y="1167" on="1"/>
        <pt x="2487" y="1132" on="0"/>
      </contour>
      <contour>
        <pt x="3541" y="338" on="1"/>
        <pt x="3541" y="215" on="0"/>
        <pt x="3469" y="70" on="1"/>
        <pt x="3392" y="-84" on="0"/>
        <pt x="3269" y="-185" on="1"/>
        <pt x="3221" y="-223" on="0"/>
        <pt x="3097" y="-249" on="0"/>
        <pt x="2988" y="-249" on="1"/>
        <pt x="2938" y="-249" on="0"/>
        <pt x="2694" y="-216" on="1"/>
        <pt x="2683" y="-208" on="0"/>
        <pt x="2662" y="-171" on="1"/>
        <pt x="2671" y="-167" on="0"/>
        <pt x="2784" y="-167" on="1"/>
        <pt x="2929" y="-167" on="0"/>
        <pt x="3054" y="-135" on="1"/>
        <pt x="3115" y="-118" on="0"/>
        <pt x="3246" y="-22" on="1"/>
        <pt x="3283" y="4" on="0"/>
        <pt x="3368" y="115" on="1"/>
        <pt x="3459" y="234" on="0"/>
        <pt x="3459" y="272" on="1"/>
        <pt x="3459" y="331" on="0"/>
        <pt x="3310" y="447" on="1"/>
        <pt x="3285" y="467" on="0"/>
        <pt x="3285" y="513" on="1"/>
        <pt x="3285" y="560" on="0"/>
        <pt x="3319" y="609" on="1"/>
        <pt x="3350" y="609" on="1"/>
        <pt x="3386" y="610" on="0"/>
        <pt x="3541" y="437" on="0"/>
      </contour>
      <contour>
        <pt x="1340" y="1633" on="1"/>
        <pt x="1340" y="1590" on="0"/>
        <pt x="1142" y="1437" on="1"/>
        <pt x="991" y="1319" on="0"/>
        <pt x="904" y="1266" on="1"/>
        <pt x="890" y="1280" on="0"/>
        <pt x="890" y="1301" on="1"/>
        <pt x="890" y="1348" on="0"/>
        <pt x="1089" y="1506" on="1"/>
        <pt x="1196" y="1585" on="0"/>
        <pt x="1302" y="1665" on="1"/>
        <pt x="1340" y="1665" on="0"/>
      </contour>
      <contour>
        <pt x="2896" y="338" on="1"/>
        <pt x="2896" y="249" on="0"/>
        <pt x="2840" y="143" on="1"/>
        <pt x="2797" y="119" on="0"/>
        <pt x="2752" y="119" on="1"/>
        <pt x="2740" y="119" on="0"/>
        <pt x="2607" y="149" on="0"/>
        <pt x="2594" y="149" on="1"/>
        <pt x="2586" y="149" on="0"/>
        <pt x="2546" y="113" on="1"/>
        <pt x="2503" y="75" on="0"/>
        <pt x="2483" y="70" on="1"/>
        <pt x="2421" y="57" on="0"/>
        <pt x="2374" y="57" on="1"/>
        <pt x="2361" y="57" on="0"/>
        <pt x="2228" y="119" on="0"/>
        <pt x="2215" y="119" on="1"/>
        <pt x="2203" y="119" on="0"/>
        <pt x="2181" y="93" on="1"/>
        <pt x="2156" y="65" on="0"/>
        <pt x="2145" y="60" on="1"/>
        <pt x="2087" y="48" on="0"/>
        <pt x="1982" y="13" on="1"/>
        <pt x="1964" y="4" on="0"/>
        <pt x="1954" y="-27" on="1"/>
        <pt x="1946" y="-49" on="0"/>
        <pt x="1940" y="-72" on="1"/>
        <pt x="1907" y="-155" on="0"/>
        <pt x="1821" y="-261" on="1"/>
        <pt x="1716" y="-389" on="0"/>
        <pt x="1623" y="-421" on="1"/>
        <pt x="1584" y="-434" on="0"/>
        <pt x="1478" y="-434" on="1"/>
        <pt x="1346" y="-434" on="0"/>
        <pt x="1167" y="-401" on="1"/>
        <pt x="1167" y="-398" on="0"/>
        <pt x="1156" y="-367" on="0"/>
        <pt x="1156" y="-355" on="1"/>
        <pt x="1169" y="-339" on="1"/>
        <pt x="1197" y="-335" on="0"/>
        <pt x="1267" y="-343" on="1"/>
        <pt x="1348" y="-352" on="0"/>
        <pt x="1350" y="-352" on="1"/>
        <pt x="1560" y="-352" on="0"/>
        <pt x="1774" y="-132" on="1"/>
        <pt x="1803" y="-107" on="0"/>
        <pt x="1832" y="-58" on="1"/>
        <pt x="1832" y="-12" on="1"/>
        <pt x="1757" y="2" on="0"/>
        <pt x="1683" y="17" on="1"/>
        <pt x="1575" y="51" on="0"/>
        <pt x="1575" y="144" on="1"/>
        <pt x="1575" y="216" on="0"/>
        <pt x="1625" y="308" on="1"/>
        <pt x="1684" y="415" on="0"/>
        <pt x="1760" y="415" on="1"/>
        <pt x="1820" y="415" on="0"/>
        <pt x="1882" y="313" on="1"/>
        <pt x="1926" y="240" on="0"/>
        <pt x="1936" y="197" on="1"/>
        <pt x="1944" y="186" on="0"/>
        <pt x="1961" y="170" on="1"/>
        <pt x="2075" y="181" on="0"/>
        <pt x="2104" y="188" on="1"/>
        <pt x="2186" y="210" on="0"/>
        <pt x="2227" y="270" on="1"/>
        <pt x="2240" y="298" on="0"/>
        <pt x="2254" y="326" on="1"/>
        <pt x="2273" y="363" on="0"/>
        <pt x="2310" y="374" on="1"/>
        <pt x="2311" y="369" on="0"/>
        <pt x="2311" y="209" on="1"/>
        <pt x="2314" y="209" on="0"/>
        <pt x="2334" y="201" on="0"/>
        <pt x="2349" y="201" on="1"/>
        <pt x="2391" y="201" on="0"/>
        <pt x="2464" y="222" on="1"/>
        <pt x="2544" y="246" on="0"/>
        <pt x="2555" y="270" on="1"/>
        <pt x="2575" y="327" on="0"/>
        <pt x="2594" y="385" on="1"/>
        <pt x="2616" y="448" on="0"/>
        <pt x="2646" y="456" on="1"/>
        <pt x="2660" y="445" on="0"/>
        <pt x="2670" y="445" on="1"/>
        <pt x="2670" y="430" on="0"/>
        <pt x="2661" y="351" on="0"/>
        <pt x="2661" y="338" on="1"/>
        <pt x="2661" y="292" on="0"/>
        <pt x="2698" y="292" on="1"/>
        <pt x="2777" y="292" on="1"/>
        <pt x="2798" y="305" on="0"/>
        <pt x="2798" y="330" on="1"/>
        <pt x="2798" y="349" on="0"/>
        <pt x="2773" y="411" on="0"/>
        <pt x="2773" y="415" on="1"/>
        <pt x="2773" y="461" on="0"/>
        <pt x="2818" y="528" on="1"/>
        <pt x="2852" y="517" on="0"/>
        <pt x="2875" y="455" on="1"/>
        <pt x="2896" y="399" on="0"/>
      </contour>
      <contour>
        <pt x="787" y="1209" on="1"/>
        <pt x="787" y="1194" on="0"/>
        <pt x="776" y="1168" on="0"/>
        <pt x="776" y="1165" on="1"/>
        <pt x="756" y="1158" on="0"/>
        <pt x="736" y="1158" on="1"/>
        <pt x="717" y="1158" on="0"/>
        <pt x="662" y="1173" on="0"/>
        <pt x="654" y="1173" on="1"/>
        <pt x="643" y="1173" on="0"/>
        <pt x="570" y="1102" on="1"/>
        <pt x="486" y="1018" on="0"/>
        <pt x="447" y="992" on="1"/>
        <pt x="410" y="976" on="0"/>
        <pt x="343" y="938" on="1"/>
        <pt x="298" y="938" on="1"/>
        <pt x="285" y="940" on="0"/>
        <pt x="285" y="963" on="1"/>
        <pt x="285" y="979" on="0"/>
        <pt x="422" y="1094" on="1"/>
        <pt x="526" y="1183" on="0"/>
        <pt x="562" y="1210" on="1"/>
        <pt x="547" y="1235" on="0"/>
        <pt x="481" y="1277" on="1"/>
        <pt x="478" y="1384" on="0"/>
        <pt x="494" y="1407" on="1"/>
        <pt x="586" y="1532" on="0"/>
        <pt x="628" y="1532" on="1"/>
        <pt x="700" y="1532" on="0"/>
        <pt x="700" y="1416" on="1"/>
        <pt x="700" y="1395" on="0"/>
        <pt x="694" y="1327" on="0"/>
        <pt x="694" y="1319" on="1"/>
        <pt x="694" y="1307" on="0"/>
        <pt x="696" y="1304" on="1"/>
        <pt x="701" y="1298" on="0"/>
        <pt x="750" y="1257" on="1"/>
        <pt x="787" y="1224" on="0"/>
      </contour>
      <contour>
        <pt x="1309" y="267" on="1"/>
        <pt x="1309" y="91" on="0"/>
        <pt x="1204" y="-44" on="1"/>
        <pt x="1177" y="-49" on="0"/>
        <pt x="1148" y="-49" on="1"/>
        <pt x="1051" y="-49" on="0"/>
        <pt x="972" y="0" on="1"/>
        <pt x="882" y="57" on="0"/>
        <pt x="852" y="160" on="1"/>
        <pt x="812" y="116" on="0"/>
        <pt x="727" y="43" on="1"/>
        <pt x="682" y="16" on="0"/>
        <pt x="608" y="16" on="1"/>
        <pt x="496" y="16" on="0"/>
        <pt x="439" y="70" on="1"/>
        <pt x="443" y="200" on="0"/>
        <pt x="656" y="380" on="1"/>
        <pt x="658" y="382" on="0"/>
        <pt x="721" y="419" on="1"/>
        <pt x="768" y="446" on="0"/>
        <pt x="784" y="474" on="1"/>
        <pt x="794" y="492" on="0"/>
        <pt x="801" y="551" on="1"/>
        <pt x="810" y="620" on="0"/>
        <pt x="820" y="650" on="1"/>
        <pt x="850" y="650" on="0"/>
        <pt x="865" y="627" on="1"/>
        <pt x="882" y="429" on="0"/>
        <pt x="953" y="238" on="1"/>
        <pt x="968" y="197" on="0"/>
        <pt x="1027" y="154" on="1"/>
        <pt x="1089" y="108" on="0"/>
        <pt x="1140" y="108" on="1"/>
        <pt x="1223" y="108" on="0"/>
        <pt x="1217" y="184" on="1"/>
        <pt x="1074" y="1055" on="1"/>
        <pt x="1091" y="1191" on="0"/>
        <pt x="1160" y="1275" on="1"/>
        <pt x="1193" y="1256" on="0"/>
        <pt x="1196" y="1199" on="1"/>
        <pt x="1198" y="1154" on="0"/>
        <pt x="1198" y="1109" on="1"/>
        <pt x="1223" y="1094" on="0"/>
        <pt x="1268" y="1058" on="1"/>
        <pt x="1268" y="1022" on="0"/>
        <pt x="1264" y="1013" on="1"/>
        <pt x="1227" y="932" on="0"/>
        <pt x="1227" y="830" on="1"/>
        <pt x="1227" y="818" on="0"/>
        <pt x="1309" y="280" on="0"/>
      </contour>
      <contour>
        <pt x="367" y="185" on="1"/>
        <pt x="367" y="70" on="0"/>
        <pt x="279" y="0" on="1"/>
        <pt x="224" y="-45" on="0"/>
        <pt x="187" y="-43" on="1"/>
        <pt x="122" y="-43" on="1"/>
        <pt x="178" y="10" on="0"/>
        <pt x="275" y="114" on="1"/>
        <pt x="274" y="116" on="0"/>
        <pt x="227" y="121" on="1"/>
        <pt x="183" y="160" on="0"/>
        <pt x="183" y="196" on="1"/>
        <pt x="183" y="215" on="0"/>
        <pt x="216" y="270" on="1"/>
        <pt x="255" y="333" on="0"/>
        <pt x="291" y="333" on="1"/>
        <pt x="355" y="333" on="0"/>
      </contour>
      <contour>
        <pt x="4033" y="350" on="1"/>
        <pt x="4016" y="372" on="0"/>
        <pt x="3989" y="415" on="1"/>
        <pt x="3953" y="415" on="1"/>
        <pt x="3953" y="411" on="0"/>
        <pt x="3930" y="379" on="0"/>
        <pt x="3930" y="365" on="1"/>
        <pt x="3930" y="346" on="0"/>
        <pt x="3971" y="313" on="0"/>
        <pt x="3992" y="313" on="1"/>
        <pt x="4007" y="313" on="0"/>
        <pt x="4021" y="328" on="1"/>
        <pt x="4033" y="342" on="0"/>
      </contour>
      <contour>
        <pt x="2299" y="1245" on="1"/>
        <pt x="2313" y="1287" on="0"/>
        <pt x="2289" y="1337" on="1"/>
        <pt x="2241" y="1313" on="0"/>
        <pt x="2241" y="1291" on="1"/>
        <pt x="2241" y="1270" on="0"/>
      </contour>
      <contour>
        <pt x="632" y="1407" on="1"/>
        <pt x="573" y="1389" on="0"/>
        <pt x="573" y="1348" on="1"/>
        <pt x="577" y="1348" on="0"/>
        <pt x="609" y="1327" on="0"/>
        <pt x="623" y="1327" on="1"/>
        <pt x="635" y="1327" on="0"/>
        <pt x="636" y="1344" on="1"/>
        <pt x="638" y="1357" on="0"/>
        <pt x="632" y="1407" on="0"/>
      </contour>
      <contour>
        <pt x="1789" y="177" on="1"/>
        <pt x="1760" y="251" on="0"/>
        <pt x="1729" y="251" on="1"/>
        <pt x="1710" y="251" on="0"/>
        <pt x="1678" y="215" on="1"/>
        <pt x="1688" y="206" on="0"/>
        <pt x="1691" y="191" on="1"/>
        <pt x="1676" y="191" on="0"/>
      </contour>
      <contour>
        <pt x="828" y="272" on="1"/>
        <pt x="828" y="287" on="0"/>
        <pt x="812" y="314" on="1"/>
        <pt x="793" y="343" on="0"/>
        <pt x="771" y="354" on="1"/>
        <pt x="767" y="351" on="0"/>
        <pt x="668" y="289" on="1"/>
        <pt x="596" y="245" on="0"/>
        <pt x="582" y="205" on="1"/>
        <pt x="606" y="180" on="1"/>
        <pt x="740" y="180" on="1"/>
        <pt x="759" y="180" on="0"/>
        <pt x="828" y="258" on="0"/>
      </contour>
    </TTGlyph>
    <TTGlyph name="uniE000" xMin="0" yMin="0" xMax="1460" yMax="1460">
      <contour>
        <pt x="0" y="1460" on="1"/>
        <pt x="1460" y="1460" on="1"/>
        <pt x="1460" y="0" on="1"/>
        <pt x="0" y="0" on="1"/>
      </contour>
    </TTGlyph>
    <TTGlyph name="uniFB51" xMin="302" yMin="-480" xMax="5133" yMax="1985">
      <contour>
        <pt x="5133" y="1406" on="1"/>
        <pt x="5133" y="1383" on="0"/>
        <pt x="4898" y="1248" on="1"/>
        <pt x="4753" y="1167" on="0"/>
        <pt x="4608" y="1085" on="1"/>
        <pt x="4572" y="1085" on="1"/>
        <pt x="4560" y="1086" on="0"/>
        <pt x="4560" y="1110" on="1"/>
        <pt x="4560" y="1158" on="0"/>
        <pt x="4604" y="1183" on="1"/>
        <pt x="4763" y="1277" on="0"/>
        <pt x="5086" y="1462" on="1"/>
        <pt x="5133" y="1462" on="1"/>
      </contour>
      <contour>
        <pt x="4488" y="1520" on="1"/>
        <pt x="4488" y="1462" on="0"/>
        <pt x="4404" y="1395" on="1"/>
        <pt x="4323" y="1330" on="0"/>
        <pt x="4268" y="1330" on="1"/>
        <pt x="4256" y="1330" on="0"/>
        <pt x="4167" y="1351" on="0"/>
        <pt x="4156" y="1351" on="1"/>
        <pt x="4133" y="1351" on="0"/>
        <pt x="4070" y="1311" on="1"/>
        <pt x="4070" y="1348" on="1"/>
        <pt x="4074" y="1357" on="0"/>
        <pt x="4133" y="1421" on="1"/>
        <pt x="4146" y="1434" on="0"/>
        <pt x="4177" y="1445" on="1"/>
        <pt x="4214" y="1458" on="0"/>
        <pt x="4224" y="1466" on="1"/>
        <pt x="4230" y="1469" on="0"/>
        <pt x="4300" y="1552" on="1"/>
        <pt x="4355" y="1617" on="0"/>
        <pt x="4396" y="1617" on="1"/>
        <pt x="4430" y="1617" on="0"/>
        <pt x="4488" y="1555" on="0"/>
      </contour>
      <contour>
        <pt x="3884" y="1960" on="1"/>
        <pt x="3884" y="1908" on="0"/>
        <pt x="3830" y="1876" on="1"/>
        <pt x="3707" y="1814" on="0"/>
        <pt x="3459" y="1679" on="1"/>
        <pt x="3444" y="1690" on="0"/>
        <pt x="3435" y="1690" on="1"/>
        <pt x="3435" y="1733" on="1"/>
        <pt x="3434" y="1765" on="0"/>
        <pt x="3837" y="1985" on="1"/>
        <pt x="3872" y="1985" on="1"/>
        <pt x="3884" y="1984" on="0"/>
      </contour>
      <contour>
        <pt x="3905" y="1566" on="1"/>
        <pt x="3905" y="1529" on="0"/>
        <pt x="3865" y="1475" on="1"/>
        <pt x="3832" y="1431" on="0"/>
        <pt x="3820" y="1425" on="1"/>
        <pt x="3782" y="1417" on="0"/>
        <pt x="3717" y="1398" on="1"/>
        <pt x="3710" y="1396" on="0"/>
        <pt x="3681" y="1376" on="1"/>
        <pt x="3658" y="1362" on="0"/>
        <pt x="3644" y="1362" on="1"/>
        <pt x="3577" y="1362" on="0"/>
        <pt x="3577" y="1474" on="1"/>
        <pt x="3577" y="1515" on="0"/>
        <pt x="3607" y="1556" on="1"/>
        <pt x="3613" y="1547" on="0"/>
        <pt x="3621" y="1497" on="1"/>
        <pt x="3628" y="1464" on="0"/>
        <pt x="3664" y="1453" on="1"/>
        <pt x="3699" y="1470" on="0"/>
        <pt x="3709" y="1532" on="1"/>
        <pt x="3720" y="1598" on="0"/>
        <pt x="3748" y="1617" on="1"/>
        <pt x="3752" y="1584" on="0"/>
        <pt x="3789" y="1504" on="1"/>
        <pt x="3823" y="1503" on="0"/>
        <pt x="3834" y="1563" on="1"/>
        <pt x="3847" y="1631" on="0"/>
        <pt x="3880" y="1647" on="1"/>
        <pt x="3905" y="1600" on="0"/>
      </contour>
      <contour>
        <pt x="4386" y="251" on="1"/>
        <pt x="4386" y="125" on="0"/>
        <pt x="4354" y="72" on="1"/>
        <pt x="4346" y="72" on="0"/>
        <pt x="4328" y="61" on="1"/>
        <pt x="4160" y="1040" on="1"/>
        <pt x="4172" y="1077" on="0"/>
        <pt x="4204" y="1155" on="1"/>
        <pt x="4241" y="1155" on="1"/>
        <pt x="4285" y="931" on="0"/>
        <pt x="4330" y="707" on="1"/>
        <pt x="4386" y="408" on="0"/>
      </contour>
      <contour>
        <pt x="5112" y="240" on="1"/>
        <pt x="5112" y="111" on="0"/>
        <pt x="5038" y="-52" on="1"/>
        <pt x="4947" y="-250" on="0"/>
        <pt x="4813" y="-304" on="1"/>
        <pt x="4754" y="-328" on="0"/>
        <pt x="4554" y="-328" on="1"/>
        <pt x="4455" y="-328" on="0"/>
        <pt x="4335" y="-294" on="1"/>
        <pt x="4341" y="-285" on="0"/>
        <pt x="4350" y="-271" on="1"/>
        <pt x="4438" y="-262" on="0"/>
        <pt x="4526" y="-254" on="1"/>
        <pt x="4635" y="-240" on="0"/>
        <pt x="4696" y="-213" on="1"/>
        <pt x="4800" y="-166" on="0"/>
        <pt x="4912" y="-46" on="1"/>
        <pt x="5030" y="79" on="0"/>
        <pt x="5030" y="158" on="1"/>
        <pt x="5030" y="188" on="0"/>
        <pt x="5025" y="194" on="1"/>
        <pt x="5014" y="191" on="0"/>
        <pt x="4976" y="160" on="1"/>
        <pt x="4942" y="133" on="0"/>
        <pt x="4923" y="133" on="1"/>
        <pt x="4844" y="133" on="0"/>
        <pt x="4804" y="197" on="1"/>
        <pt x="4775" y="246" on="0"/>
        <pt x="4775" y="312" on="1"/>
        <pt x="4775" y="344" on="0"/>
        <pt x="4829" y="437" on="1"/>
        <pt x="4890" y="542" on="0"/>
        <pt x="4934" y="542" on="1"/>
        <pt x="4952" y="542" on="0"/>
        <pt x="4992" y="506" on="1"/>
        <pt x="5035" y="468" on="0"/>
        <pt x="5043" y="437" on="1"/>
        <pt x="5057" y="422" on="0"/>
        <pt x="5078" y="396" on="1"/>
        <pt x="5112" y="322" on="0"/>
      </contour>
      <contour>
        <pt x="3494" y="992" on="1"/>
        <pt x="3498" y="983" on="0"/>
        <pt x="3498" y="972" on="1"/>
        <pt x="3498" y="940" on="0"/>
        <pt x="3453" y="870" on="0"/>
        <pt x="3434" y="870" on="1"/>
        <pt x="3399" y="870" on="0"/>
        <pt x="3311" y="933" on="1"/>
        <pt x="3322" y="972" on="0"/>
        <pt x="3331" y="1011" on="1"/>
        <pt x="3348" y="1054" on="0"/>
        <pt x="3377" y="1054" on="1"/>
        <pt x="3408" y="1054" on="0"/>
      </contour>
      <contour>
        <pt x="4007" y="188" on="1"/>
        <pt x="3988" y="106" on="0"/>
        <pt x="3969" y="25" on="1"/>
        <pt x="3944" y="-31" on="0"/>
        <pt x="3828" y="-31" on="1"/>
        <pt x="3791" y="-31" on="0"/>
        <pt x="3734" y="-18" on="1"/>
        <pt x="3691" y="-8" on="0"/>
        <pt x="3644" y="56" on="1"/>
        <pt x="3607" y="110" on="0"/>
        <pt x="3570" y="164" on="1"/>
        <pt x="3559" y="164" on="0"/>
        <pt x="3538" y="135" on="1"/>
        <pt x="3516" y="63" on="0"/>
        <pt x="3379" y="21" on="1"/>
        <pt x="3275" y="-10" on="0"/>
        <pt x="3177" y="-10" on="1"/>
        <pt x="3073" y="-10" on="0"/>
        <pt x="3035" y="32" on="1"/>
        <pt x="3029" y="53" on="0"/>
        <pt x="3041" y="100" on="1"/>
        <pt x="3055" y="153" on="0"/>
        <pt x="3080" y="174" on="1"/>
        <pt x="3162" y="133" on="0"/>
        <pt x="3204" y="133" on="1"/>
        <pt x="3278" y="133" on="0"/>
        <pt x="3383" y="163" on="1"/>
        <pt x="3536" y="208" on="0"/>
        <pt x="3536" y="286" on="1"/>
        <pt x="3536" y="295" on="0"/>
        <pt x="3475" y="557" on="0"/>
        <pt x="3475" y="578" on="1"/>
        <pt x="3475" y="585" on="0"/>
        <pt x="3492" y="628" on="1"/>
        <pt x="3511" y="677" on="0"/>
        <pt x="3522" y="685" on="1"/>
        <pt x="3560" y="582" on="0"/>
        <pt x="3614" y="374" on="1"/>
        <pt x="3627" y="292" on="0"/>
        <pt x="3687" y="208" on="1"/>
        <pt x="3757" y="111" on="0"/>
        <pt x="3829" y="111" on="1"/>
        <pt x="3907" y="111" on="1"/>
        <pt x="3915" y="125" on="0"/>
        <pt x="3915" y="163" on="1"/>
        <pt x="3915" y="228" on="0"/>
        <pt x="3846" y="597" on="1"/>
        <pt x="3827" y="732" on="0"/>
        <pt x="3789" y="976" on="1"/>
        <pt x="3785" y="994" on="0"/>
        <pt x="3761" y="1049" on="1"/>
        <pt x="3741" y="1100" on="0"/>
        <pt x="3741" y="1116" on="1"/>
        <pt x="3741" y="1151" on="0"/>
        <pt x="3770" y="1218" on="1"/>
        <pt x="3802" y="1290" on="0"/>
        <pt x="3829" y="1299" on="1"/>
        <pt x="3848" y="1271" on="0"/>
        <pt x="3866" y="1167" on="0"/>
        <pt x="3880" y="1148" on="1"/>
        <pt x="3903" y="1115" on="0"/>
        <pt x="3965" y="1103" on="1"/>
        <pt x="3965" y="1037" on="1"/>
        <pt x="3965" y="1021" on="0"/>
        <pt x="3894" y="925" on="1"/>
      </contour>
      <contour>
        <pt x="3680" y="-190" on="1"/>
        <pt x="3680" y="-244" on="0"/>
        <pt x="3507" y="-327" on="1"/>
        <pt x="3417" y="-365" on="0"/>
        <pt x="3329" y="-403" on="1"/>
        <pt x="3280" y="-428" on="0"/>
        <pt x="3184" y="-480" on="1"/>
        <pt x="3148" y="-480" on="1"/>
        <pt x="3148" y="-426" on="1"/>
        <pt x="3147" y="-401" on="0"/>
        <pt x="3346" y="-305" on="1"/>
        <pt x="3494" y="-235" on="0"/>
        <pt x="3642" y="-164" on="1"/>
        <pt x="3680" y="-164" on="0"/>
      </contour>
      <contour>
        <pt x="3034" y="-251" on="1"/>
        <pt x="3034" y="-283" on="0"/>
        <pt x="2991" y="-313" on="1"/>
        <pt x="2955" y="-338" on="0"/>
        <pt x="2937" y="-338" on="1"/>
        <pt x="2926" y="-338" on="0"/>
        <pt x="2863" y="-308" on="0"/>
        <pt x="2850" y="-308" on="1"/>
        <pt x="2837" y="-308" on="0"/>
        <pt x="2740" y="-379" on="0"/>
        <pt x="2727" y="-379" on="1"/>
        <pt x="2700" y="-379" on="0"/>
        <pt x="2635" y="-328" on="0"/>
        <pt x="2635" y="-308" on="1"/>
        <pt x="2635" y="-289" on="0"/>
        <pt x="2704" y="-205" on="0"/>
        <pt x="2722" y="-205" on="1"/>
        <pt x="2733" y="-205" on="0"/>
        <pt x="2801" y="-256" on="0"/>
        <pt x="2814" y="-256" on="1"/>
        <pt x="2827" y="-256" on="0"/>
        <pt x="2914" y="-174" on="0"/>
        <pt x="2927" y="-174" on="1"/>
        <pt x="2950" y="-174" on="0"/>
        <pt x="3034" y="-235" on="0"/>
      </contour>
      <contour>
        <pt x="2317" y="1423" on="1"/>
        <pt x="2317" y="1354" on="0"/>
        <pt x="2140" y="1275" on="1"/>
        <pt x="2049" y="1235" on="0"/>
        <pt x="1782" y="1112" on="1"/>
        <pt x="1595" y="1017" on="0"/>
        <pt x="1219" y="842" on="1"/>
        <pt x="1063" y="775" on="0"/>
        <pt x="830" y="672" on="1"/>
        <pt x="801" y="659" on="0"/>
        <pt x="705" y="601" on="1"/>
        <pt x="624" y="553" on="0"/>
        <pt x="612" y="553" on="1"/>
        <pt x="567" y="553" on="1"/>
        <pt x="567" y="587" on="1"/>
        <pt x="567" y="641" on="0"/>
        <pt x="731" y="728" on="1"/>
        <pt x="820" y="769" on="0"/>
        <pt x="907" y="810" on="1"/>
        <pt x="1126" y="902" on="0"/>
        <pt x="1542" y="1097" on="1"/>
        <pt x="1758" y="1210" on="0"/>
        <pt x="2305" y="1452" on="1"/>
        <pt x="2305" y="1449" on="0"/>
        <pt x="2317" y="1438" on="0"/>
      </contour>
      <contour>
        <pt x="1795" y="419" on="1"/>
        <pt x="1795" y="395" on="0"/>
        <pt x="1722" y="327" on="0"/>
        <pt x="1698" y="327" on="1"/>
        <pt x="1678" y="327" on="0"/>
        <pt x="1591" y="401" on="0"/>
        <pt x="1591" y="419" on="1"/>
        <pt x="1591" y="444" on="0"/>
        <pt x="1656" y="511" on="0"/>
        <pt x="1673" y="511" on="1"/>
        <pt x="1693" y="511" on="0"/>
        <pt x="1795" y="437" on="0"/>
      </contour>
      <contour>
        <pt x="3034" y="573" on="1"/>
        <pt x="3034" y="537" on="0"/>
        <pt x="3014" y="475" on="1"/>
        <pt x="2991" y="404" on="0"/>
        <pt x="2966" y="392" on="1"/>
        <pt x="2915" y="378" on="0"/>
        <pt x="2816" y="344" on="1"/>
        <pt x="2792" y="334" on="0"/>
        <pt x="2784" y="284" on="1"/>
        <pt x="2779" y="246" on="0"/>
        <pt x="2774" y="208" on="1"/>
        <pt x="2754" y="129" on="0"/>
        <pt x="2662" y="44" on="1"/>
        <pt x="2582" y="-30" on="0"/>
        <pt x="2499" y="-65" on="1"/>
        <pt x="2461" y="-91" on="0"/>
        <pt x="2366" y="-140" on="1"/>
        <pt x="2244" y="-188" on="0"/>
        <pt x="1935" y="-226" on="1"/>
        <pt x="1923" y="-226" on="0"/>
        <pt x="1881" y="-237" on="1"/>
        <pt x="1845" y="-246" on="0"/>
        <pt x="1830" y="-246" on="1"/>
        <pt x="1372" y="-246" on="1"/>
        <pt x="1349" y="-246" on="0"/>
        <pt x="1206" y="-221" on="1"/>
        <pt x="1047" y="-193" on="0"/>
        <pt x="970" y="-172" on="1"/>
        <pt x="913" y="-145" on="0"/>
        <pt x="795" y="-95" on="1"/>
        <pt x="741" y="-76" on="0"/>
        <pt x="686" y="-56" on="1"/>
        <pt x="617" y="-27" on="0"/>
        <pt x="569" y="13" on="1"/>
        <pt x="497" y="75" on="0"/>
        <pt x="423" y="176" on="1"/>
        <pt x="363" y="264" on="0"/>
        <pt x="302" y="351" on="1"/>
        <pt x="302" y="387" on="1"/>
        <pt x="339" y="387" on="1"/>
        <pt x="382" y="338" on="0"/>
        <pt x="465" y="254" on="1"/>
        <pt x="564" y="170" on="0"/>
        <pt x="779" y="77" on="1"/>
        <pt x="982" y="-9" on="0"/>
        <pt x="1106" y="-35" on="1"/>
        <pt x="1151" y="-53" on="0"/>
        <pt x="1248" y="-80" on="1"/>
        <pt x="1392" y="-103" on="0"/>
        <pt x="1654" y="-103" on="1"/>
        <pt x="1871" y="-103" on="1"/>
        <pt x="1900" y="-103" on="0"/>
        <pt x="2023" y="-81" on="1"/>
        <pt x="2180" y="-54" on="0"/>
        <pt x="2301" y="-18" on="1"/>
        <pt x="2325" y="-11" on="0"/>
        <pt x="2505" y="77" on="1"/>
        <pt x="2520" y="79" on="0"/>
        <pt x="2547" y="84" on="1"/>
        <pt x="2576" y="97" on="0"/>
        <pt x="2643" y="151" on="1"/>
        <pt x="2727" y="218" on="0"/>
        <pt x="2727" y="251" on="1"/>
        <pt x="2727" y="263" on="0"/>
        <pt x="2615" y="478" on="0"/>
        <pt x="2615" y="491" on="1"/>
        <pt x="2615" y="501" on="0"/>
        <pt x="2626" y="555" on="0"/>
        <pt x="2626" y="571" on="1"/>
        <pt x="2629" y="571" on="0"/>
        <pt x="2641" y="583" on="0"/>
        <pt x="2656" y="583" on="1"/>
        <pt x="2669" y="583" on="0"/>
        <pt x="2690" y="558" on="1"/>
        <pt x="2716" y="528" on="0"/>
        <pt x="2724" y="523" on="1"/>
        <pt x="2764" y="501" on="0"/>
        <pt x="2829" y="501" on="1"/>
        <pt x="2942" y="501" on="0"/>
        <pt x="2942" y="563" on="1"/>
        <pt x="2942" y="570" on="0"/>
        <pt x="2891" y="646" on="0"/>
        <pt x="2891" y="670" on="1"/>
        <pt x="2891" y="700" on="0"/>
        <pt x="2924" y="757" on="1"/>
        <pt x="2971" y="752" on="0"/>
        <pt x="3005" y="686" on="1"/>
        <pt x="3034" y="628" on="0"/>
      </contour>
      <contour>
        <pt x="4386" y="1484" on="1"/>
        <pt x="4386" y="1498" on="0"/>
        <pt x="4374" y="1510" on="0"/>
        <pt x="4374" y="1514" on="1"/>
        <pt x="4337" y="1514" on="1"/>
        <pt x="4290" y="1467" on="0"/>
        <pt x="4284" y="1446" on="1"/>
        <pt x="4330" y="1433" on="1"/>
        <pt x="4386" y="1461" on="0"/>
      </contour>
      <contour>
        <pt x="4979" y="319" on="1"/>
        <pt x="4979" y="356" on="1"/>
        <pt x="4913" y="388" on="0"/>
        <pt x="4911" y="388" on="1"/>
        <pt x="4877" y="354" on="0"/>
        <pt x="4877" y="338" on="1"/>
        <pt x="4877" y="323" on="0"/>
        <pt x="4889" y="311" on="0"/>
        <pt x="4889" y="308" on="1"/>
        <pt x="4892" y="308" on="0"/>
        <pt x="4919" y="297" on="0"/>
        <pt x="4934" y="297" on="1"/>
        <pt x="4956" y="297" on="0"/>
      </contour>
    </TTGlyph>
</ttFont>
